<svg width="10" height="8" viewBox="0 0 10 8" fill="none" xmlns="http://www.w3.org/2000/svg">
<path fill-rule="evenodd" clip-rule="evenodd" d="M8.80668 3.52667C8.68155 3.40047 8.51115 3.32947 8.33335 3.32947C8.15561 3.32947 7.98521 3.40047 7.86001 3.52667L5.66668 5.72667V0.666667C5.66668 0.29848 5.36821 0 5.00001 0C4.63188 0 4.33335 0.29848 4.33335 0.666667V5.72667L2.14004 3.52667C1.87863 3.26527 1.45479 3.26527 1.19337 3.52667C0.931961 3.78807 0.931961 4.21193 1.19337 4.47333L4.52668 7.80667C4.59008 7.86733 4.66488 7.91493 4.74668 7.94667C4.90808 8.018 5.09201 8.018 5.25335 7.94667C5.33521 7.91493 5.40995 7.86733 5.47335 7.80667L8.80668 4.47333C8.93295 4.34813 9.00388 4.17773 9.00388 4C9.00388 3.82227 8.93295 3.65187 8.80668 3.52667Z" fill="#60646A"/>
</svg>
