<svg width="10" height="6" viewBox="0 0 10 6" fill="none" xmlns="http://www.w3.org/2000/svg">
<path fill-rule="evenodd" clip-rule="evenodd" d="M9.16667 0.641666C8.84167 0.318566 8.31675 0.318566 7.99167 0.641666L5 3.59167L2.05004 0.641666C1.72501 0.318566 1.20007 0.318566 0.87504 0.641666C0.717282 0.798141 0.62854 1.01114 0.62854 1.23333C0.62854 1.4555 0.717282 1.6685 0.87504 1.825L4.40833 5.35833C4.56483 5.51608 4.77783 5.60483 5 5.60483C5.22225 5.60483 5.43525 5.51608 5.59167 5.35833L9.16667 1.825C9.3245 1.6685 9.41317 1.4555 9.41317 1.23333C9.41317 1.01114 9.3245 0.798141 9.16667 0.641666Z" fill="#90979E"/>
</svg>
