<svg width="8" height="12" viewBox="0 0 8 12" fill="none" xmlns="http://www.w3.org/2000/svg">
<path fill-rule="evenodd" clip-rule="evenodd" d="M4.7099 6.00006L1.1699 9.54005C0.782202 9.93009 0.782202 10.56 1.1699 10.95C1.3577 11.1394 1.6133 11.2458 1.8799 11.2458C2.1466 11.2458 2.4022 11.1394 2.5899 10.95L6.82993 6.71006C7.01925 6.52226 7.12573 6.26666 7.12573 6.00006C7.12573 5.73346 7.01925 5.47786 6.82993 5.29006L2.5899 1.00006C2.4012 0.812859 2.1457 0.708559 1.8799 0.710059C1.6141 0.708559 1.3587 0.812859 1.1699 1.00006C0.782202 1.39006 0.782202 2.02006 1.1699 2.41006L4.7099 6.00006Z" fill="#90979E"/>
</svg>
