<svg width="18" height="16" viewBox="0 0 18 16" fill="none" xmlns="http://www.w3.org/2000/svg">
<path fill-rule="evenodd" clip-rule="evenodd" d="M14.8333 3H12.3333V2.16667C12.3333 1.24619 11.5872 0.5 10.6667 0.5H7.33332C6.41285 0.5 5.66666 1.24619 5.66666 2.16667V3H3.16666C1.78595 3 0.666656 4.11929 0.666656 5.5V13C0.666656 14.3807 1.78595 15.5 3.16666 15.5H14.8333C16.2141 15.5 17.3333 14.3807 17.3333 13V5.5C17.3333 4.11929 16.2141 3 14.8333 3ZM7.33332 2.16667H10.6667V3H7.33332V2.16667ZM15.6667 13C15.6667 13.4603 15.2936 13.8333 14.8333 13.8333H3.16666C2.70642 13.8333 2.33332 13.4603 2.33332 13V8.325L6.23332 9.66667C6.32181 9.67867 6.41151 9.67867 6.49999 9.66667H11.5C11.5903 9.665 11.6801 9.651 11.7667 9.625L15.6667 8.325V13ZM15.6667 6.56667L11.3667 8H6.63332L2.33332 6.56667V5.5C2.33332 5.03977 2.70642 4.66667 3.16666 4.66667H14.8333C15.2936 4.66667 15.6667 5.03977 15.6667 5.5V6.56667Z" fill="#90979E"/>
</svg>
