<svg width="522" height="273" viewBox="0 0 522 273" fill="none" xmlns="http://www.w3.org/2000/svg">
<g opacity="0.2" clip-path="url(#clip0_3050_42794)">
<path d="M57 185.624C56.9998 186.312 57.1353 186.992 57.399 187.628C57.6626 188.263 58.0491 188.84 58.5364 189.326C59.0238 189.813 59.6023 190.198 60.2391 190.461C60.8759 190.724 61.5583 190.859 62.2475 190.859H179.266C180.657 190.859 181.992 190.308 182.976 189.326C183.96 188.344 184.513 187.012 184.513 185.624C184.513 184.235 183.96 182.904 182.976 181.922C181.992 180.94 180.657 180.389 179.266 180.389H62.2475C61.5583 180.388 60.8759 180.524 60.2391 180.787C59.6023 181.05 59.0238 181.435 58.5364 181.922C58.0491 182.408 57.6626 182.985 57.399 183.62C57.1353 184.255 56.9998 184.936 57 185.624Z" fill="#0A1F44"/>
<path d="M284.926 199.962C284.926 200.65 285.062 201.331 285.325 201.966C285.589 202.601 285.975 203.179 286.463 203.665C286.95 204.151 287.529 204.537 288.165 204.8C288.802 205.063 289.485 205.198 290.174 205.198H407.192C408.584 205.198 409.919 204.646 410.903 203.664C411.887 202.682 412.44 201.351 412.44 199.962C412.44 198.574 411.887 197.242 410.903 196.26C409.919 195.278 408.584 194.726 407.192 194.726H290.174C288.782 194.726 287.447 195.277 286.463 196.259C285.479 197.241 284.926 198.572 284.926 199.961V199.962Z" fill="#0A1F44"/>
<path d="M128.156 170.89C128.155 171.578 128.291 172.259 128.554 172.894C128.818 173.53 129.204 174.107 129.692 174.594C130.179 175.08 130.757 175.466 131.394 175.73C132.031 175.993 132.714 176.129 133.403 176.129H250.422C251.111 176.129 251.794 175.993 252.43 175.73C253.067 175.467 253.646 175.081 254.133 174.595C254.62 174.108 255.007 173.531 255.27 172.896C255.534 172.26 255.669 171.58 255.669 170.892V170.892C255.669 169.503 255.116 168.172 254.132 167.19C253.148 166.208 251.814 165.657 250.422 165.657H133.403C132.012 165.657 130.678 166.208 129.693 167.189C128.709 168.171 128.156 169.502 128.156 170.89V170.89Z" fill="#0A1F44"/>
<path d="M86.3098 170.89C86.3095 171.578 86.4452 172.26 86.7092 172.896C86.9731 173.531 87.3601 174.109 87.8481 174.596C88.336 175.082 88.9153 175.468 89.5528 175.731C90.1903 175.994 90.8735 176.129 91.5634 176.129H105.763C107.155 176.128 108.489 175.576 109.473 174.594C110.457 173.612 111.01 172.281 111.01 170.892V170.892C111.01 169.504 110.457 168.172 109.473 167.19C108.489 166.209 107.154 165.657 105.763 165.657H91.5634C90.1718 165.657 88.8373 166.209 87.8532 167.19C86.8692 168.172 86.3162 169.504 86.3159 170.892L86.3098 170.89Z" fill="#0A1F44"/>
<path d="M96.4365 229.643C96.4365 230.33 96.5723 231.011 96.836 231.646C97.0997 232.282 97.4862 232.859 97.9735 233.345C98.4608 233.831 99.0393 234.217 99.6759 234.48C100.313 234.743 100.995 234.878 101.684 234.878H115.882C116.571 234.878 117.253 234.743 117.89 234.48C118.527 234.217 119.106 233.831 119.593 233.345C120.08 232.859 120.467 232.282 120.731 231.647C120.995 231.011 121.13 230.331 121.13 229.643V229.643C121.13 228.254 120.577 226.923 119.593 225.941C118.608 224.959 117.273 224.408 115.882 224.408H101.684C100.292 224.408 98.9579 224.96 97.9739 225.941C96.9899 226.923 96.4369 228.255 96.4365 229.643V229.643Z" fill="#0A1F44"/>
<path d="M384.701 213.988C384.701 214.676 384.566 215.357 384.302 215.992C384.038 216.627 383.652 217.205 383.165 217.691C382.677 218.177 382.099 218.563 381.462 218.826C380.825 219.089 380.143 219.224 379.454 219.224H262.435C261.746 219.224 261.064 219.089 260.427 218.826C259.79 218.563 259.212 218.177 258.724 217.691C258.237 217.205 257.851 216.627 257.587 215.992C257.323 215.357 257.188 214.676 257.188 213.988C257.188 213.301 257.323 212.62 257.587 211.985C257.851 211.349 258.237 210.772 258.724 210.286C259.212 209.8 259.79 209.414 260.427 209.151C261.064 208.888 261.746 208.753 262.435 208.753H379.454C380.143 208.753 380.826 208.888 381.462 209.151C382.099 209.414 382.677 209.8 383.165 210.286C383.652 210.772 384.039 211.349 384.302 211.985C384.566 212.62 384.701 213.301 384.701 213.988Z" fill="#0A1F44"/>
<path d="M420 214.797C420 215.485 419.864 216.166 419.601 216.801C419.337 217.436 418.95 218.013 418.463 218.5C417.975 218.986 417.397 219.372 416.76 219.635C416.123 219.898 415.441 220.034 414.751 220.034H400.553C399.864 220.034 399.182 219.898 398.545 219.635C397.908 219.372 397.33 218.986 396.842 218.5C396.355 218.013 395.969 217.436 395.705 216.801C395.441 216.165 395.306 215.484 395.306 214.797V214.797C395.306 214.109 395.441 213.428 395.704 212.793C395.968 212.157 396.355 211.58 396.842 211.094C397.329 210.607 397.908 210.222 398.545 209.958C399.182 209.695 399.864 209.56 400.553 209.56H414.751C416.143 209.56 417.477 210.111 418.462 211.093C419.446 212.074 419.999 213.405 420 214.794L420 214.797Z" fill="#0A1F44"/>
<path d="M109.162 189.213C109.162 190.958 108.643 192.665 107.672 194.117C106.7 195.568 105.318 196.699 103.702 197.368C102.085 198.036 100.307 198.211 98.5905 197.87C96.8744 197.53 95.298 196.689 94.0608 195.455C92.8235 194.221 91.9809 192.648 91.6395 190.936C91.2981 189.224 91.4733 187.45 92.1429 185.837C92.8124 184.224 93.9463 182.846 95.4012 181.876C96.856 180.906 98.5664 180.389 100.316 180.389C102.662 180.389 104.912 181.319 106.57 182.973C108.229 184.628 109.161 186.873 109.162 189.213V189.213Z" fill="#0A1F44"/>
<path d="M116.63 164.897C116.63 167.245 115.933 169.54 114.625 171.492C113.318 173.445 111.46 174.966 109.286 175.865C107.112 176.764 104.719 176.999 102.411 176.541C100.103 176.083 97.9829 174.952 96.3187 173.292C94.6546 171.632 93.5213 169.517 93.0622 167.214C92.603 164.911 92.8386 162.525 93.7392 160.355C94.6398 158.186 96.1649 156.332 98.1216 155.028C100.078 153.724 102.379 153.027 104.732 153.028C107.888 153.028 110.914 154.278 113.145 156.504C115.376 158.73 116.63 161.749 116.63 164.897V164.897Z" fill="#0A1F44"/>
<path d="M295.763 143.088C295.763 144.477 295.21 145.808 294.226 146.789C293.242 147.771 291.907 148.322 290.516 148.323H276.318C275.629 148.323 274.947 148.187 274.31 147.924C273.673 147.661 273.094 147.275 272.607 146.789C272.12 146.303 271.733 145.725 271.47 145.09C271.206 144.455 271.071 143.774 271.071 143.086C271.071 141.698 271.624 140.366 272.608 139.384C273.592 138.402 274.927 137.851 276.318 137.851H290.516C291.908 137.851 293.243 138.403 294.227 139.385C295.211 140.368 295.764 141.7 295.763 143.088V143.088Z" fill="#0A1F44"/>
<path d="M265.444 137.094C265.444 139.441 266.142 141.736 267.449 143.688C268.756 145.64 270.614 147.162 272.788 148.06C274.962 148.959 277.354 149.194 279.662 148.737C281.97 148.279 284.09 147.149 285.754 145.489C287.418 143.83 288.552 141.715 289.011 139.413C289.471 137.11 289.236 134.724 288.336 132.554C287.436 130.385 285.912 128.531 283.956 127.226C282 125.921 279.7 125.224 277.347 125.223C275.784 125.223 274.237 125.529 272.792 126.125C271.348 126.722 270.036 127.596 268.931 128.698C267.825 129.801 266.948 131.109 266.35 132.55C265.752 133.991 265.444 135.535 265.444 137.094V137.094Z" fill="#0A1F44"/>
<path d="M401.853 196.373C401.853 198.118 401.335 199.825 400.363 201.276C399.39 202.727 398.009 203.859 396.392 204.527C394.776 205.195 392.997 205.369 391.281 205.029C389.565 204.688 387.989 203.848 386.752 202.613C385.515 201.379 384.672 199.806 384.331 198.094C383.99 196.382 384.165 194.608 384.835 192.995C385.504 191.382 386.638 190.004 388.093 189.034C389.548 188.065 391.258 187.547 393.008 187.547C395.354 187.547 397.604 188.477 399.263 190.132C400.921 191.787 401.853 194.032 401.853 196.373V196.373Z" fill="#0A1F44"/>
<path d="M388.604 190.515C388.605 193.415 387.743 196.25 386.128 198.662C384.513 201.074 382.218 202.953 379.532 204.063C376.846 205.173 373.891 205.464 371.04 204.898C368.188 204.333 365.569 202.936 363.514 200.885C361.458 198.835 360.058 196.222 359.491 193.377C358.924 190.533 359.215 187.584 360.327 184.905C361.44 182.225 363.324 179.935 365.741 178.324C368.158 176.712 371 175.852 373.907 175.852C377.805 175.853 381.543 177.397 384.299 180.147C387.055 182.897 388.604 186.626 388.604 190.515V190.515Z" fill="#0A1F44"/>
<path d="M342.223 204.002C354.742 203.802 364.727 193.515 364.526 181.025C364.325 168.536 354.014 158.573 341.495 158.774C328.977 158.975 318.991 169.262 319.192 181.751C319.393 194.241 329.705 204.203 342.223 204.002Z" fill="#0A1F44"/>
<path d="M318.475 199.256C328.983 188.773 328.983 171.776 318.475 161.293C307.968 150.81 290.931 150.81 280.424 161.293C269.916 171.776 269.916 188.773 280.424 199.256C290.931 209.74 307.968 209.74 318.475 199.256Z" fill="#0A1F44"/>
<path d="M368.383 223.416C368.383 226.315 367.521 229.15 365.907 231.562C364.292 233.973 361.996 235.852 359.311 236.962C356.626 238.072 353.67 238.362 350.82 237.796C347.969 237.23 345.35 235.834 343.295 233.783C341.239 231.733 339.84 229.12 339.273 226.276C338.706 223.432 338.997 220.484 340.109 217.804C341.221 215.125 343.105 212.835 345.522 211.224C347.939 209.613 350.78 208.753 353.687 208.753C357.585 208.753 361.323 210.298 364.079 213.048C366.835 215.797 368.383 219.527 368.383 223.416V223.416Z" fill="#0A1F44"/>
<path d="M133.055 198.038C133.055 200.939 132.193 203.774 130.578 206.185C128.963 208.597 126.667 210.476 123.981 211.586C121.296 212.696 118.34 212.986 115.489 212.42C112.638 211.854 110.019 210.458 107.964 208.407C105.908 206.356 104.508 203.743 103.941 200.899C103.374 198.054 103.665 195.106 104.778 192.426C105.89 189.747 107.774 187.457 110.191 185.846C112.609 184.234 115.45 183.374 118.357 183.375C122.255 183.375 125.994 184.92 128.75 187.67C131.506 190.42 133.055 194.149 133.055 198.038V198.038Z" fill="#0A1F44"/>
<path d="M179.741 215.304C180.863 200.559 169.792 187.699 155.013 186.58C140.234 185.461 127.345 196.507 126.223 211.251C125.101 225.996 136.173 238.855 150.951 239.974C165.73 241.093 178.62 230.048 179.741 215.304Z" fill="#0A1F44"/>
<path d="M181.629 153.024C181.629 157.044 180.434 160.974 178.196 164.316C175.957 167.659 172.776 170.264 169.053 171.802C165.33 173.341 161.234 173.743 157.282 172.959C153.331 172.175 149.701 170.239 146.851 167.396C144.002 164.554 142.062 160.932 141.276 156.99C140.49 153.047 140.893 148.96 142.435 145.246C143.977 141.533 146.588 138.358 149.939 136.125C153.289 133.892 157.228 132.7 161.257 132.7C166.66 132.7 171.842 134.841 175.662 138.653C179.483 142.464 181.629 147.634 181.629 153.024V153.024Z" fill="#0A1F44"/>
<path d="M221.767 148.897C222.972 134.238 212.039 121.381 197.347 120.178C182.654 118.976 169.766 129.884 168.561 144.542C167.356 159.2 178.289 172.058 192.982 173.26C207.674 174.463 220.562 163.555 221.767 148.897Z" fill="#0A1F44"/>
<path d="M151.43 163.852C151.431 165.731 150.873 167.567 149.827 169.13C148.781 170.692 147.295 171.91 145.555 172.629C143.816 173.348 141.901 173.537 140.054 173.171C138.207 172.805 136.511 171.9 135.179 170.572C133.847 169.244 132.94 167.551 132.573 165.709C132.205 163.866 132.394 161.956 133.114 160.22C133.835 158.485 135.055 157.001 136.621 155.957C138.186 154.914 140.027 154.356 141.91 154.356C144.435 154.356 146.856 155.357 148.641 157.137C150.426 158.918 151.43 161.333 151.43 163.852V163.852Z" fill="#0A1F44"/>
</g>
<g clip-path="url(#clip1_3050_42794)">
<path d="M96.9909 61.5107L142 39L92.2952 58.2014L96.314 59.3556L96.9909 61.5107Z" fill="white"/>
<path opacity="0.2" d="M96.3137 59.3551L142 39L96.9907 61.5107L96.3137 59.3551Z" fill="#231F20"/>
<path d="M96.9907 61.5107L141.999 39L101.397 70.1693L96.9907 61.5107Z" fill="white"/>
<path opacity="0.2" d="M96.9907 61.5107L141.999 39L103.681 68.4164L96.9907 61.5107Z" fill="#231F20"/>
<path d="M96.9907 61.5107L141.999 39L112.147 70.2272L96.9907 61.5107Z" fill="white"/>
<path d="M55.5144 98.0762C60.2724 99.8436 64.7599 102.369 69.745 103.563C72.7599 104.289 75.5243 104.046 78.4964 103.309C83.9535 101.952 90.6034 99.1868 93.8948 94.411C96.7685 90.2377 94.5209 84.1989 89.411 83.0415C85.4143 82.1377 82.8591 86.3577 82.6985 89.7407C82.3687 96.7627 90.9081 97.9496 96.0981 96.3998C104.407 93.914 104.82 82.6099 103.784 75.7145C103.605 74.5206 101.702 74.6257 101.885 75.8163C102.855 82.2358 102.764 92.4516 95.0806 94.7487C90.3848 96.1532 83.3425 94.433 84.832 88.3498C85.1981 86.8112 86.3621 85.127 88.0458 84.8733C90.487 84.5104 92.6578 87.1522 93.2942 89.1882C94.1177 91.8229 91.863 94.298 89.9999 95.8291C87.4965 97.8865 84.4693 99.3167 81.4425 100.438C78.7102 101.45 75.6194 102.399 72.6582 102.143C66.8751 101.646 61.7365 98.3839 56.4057 96.4096C55.2675 95.9892 54.3889 97.6651 55.5346 98.0911L55.5144 98.0762Z" fill="white"/>
</g>
<path d="M294.529 1.69391L292.881 31.5344L291.234 1.69391C291.231 1.26776 291.391 0.856858 291.682 0.54627C291.972 0.235683 292.37 0.0492246 292.794 0.0255208C293.217 0.00181702 293.634 0.142686 293.957 0.418941C294.28 0.695195 294.484 1.08567 294.529 1.5095C294.533 1.57091 294.533 1.63249 294.529 1.69391Z" fill="#FA4A0C"/>
<path d="M294.528 88.0004L292.881 58.1599L291.233 88.0004C291.21 88.224 291.232 88.45 291.298 88.6648C291.365 88.8795 291.473 89.0785 291.618 89.2497C291.764 89.4209 291.942 89.5606 292.142 89.6605C292.343 89.7605 292.561 89.8184 292.785 89.8309C293.008 89.8434 293.232 89.8102 293.442 89.7333C293.652 89.6564 293.844 89.5373 294.008 89.3834C294.171 89.2294 294.301 89.0439 294.39 88.8379C294.48 88.6318 294.527 88.4096 294.528 88.1848C294.532 88.1234 294.532 88.0619 294.528 88.0004Z" fill="#FA4A0C"/>
<path d="M324.4 15.5031L302.22 35.437L322.057 13.151C322.2 12.9826 322.376 12.8446 322.573 12.7452C322.77 12.6457 322.984 12.5868 323.204 12.5719C323.424 12.5571 323.645 12.5865 323.853 12.6585C324.062 12.7305 324.254 12.8437 324.418 12.9913C324.582 13.139 324.716 13.3181 324.81 13.5183C324.905 13.7184 324.958 13.9355 324.968 14.1568C324.978 14.378 324.943 14.599 324.867 14.8068C324.791 15.0145 324.674 15.2048 324.523 15.3664L324.4 15.5031Z" fill="#FA4A0C"/>
<path d="M263.658 76.5343L283.497 54.2484L261.315 74.1778C261.153 74.323 261.021 74.4988 260.927 74.6951C260.832 74.8915 260.777 75.1046 260.765 75.3222C260.753 75.5399 260.783 75.7579 260.855 75.9637C260.926 76.1695 261.038 76.3591 261.182 76.5218C261.327 76.6845 261.501 76.817 261.697 76.9117C261.892 77.0064 262.105 77.0615 262.321 77.0739C262.538 77.0862 262.755 77.0556 262.96 76.9837C263.165 76.9119 263.353 76.8002 263.515 76.655C263.565 76.6179 263.613 76.5776 263.658 76.5343Z" fill="#FA4A0C"/>
<path d="M335.818 46.5004L306.116 44.8474L335.818 43.1921C336.255 43.1677 336.683 43.3185 337.009 43.6114C337.335 43.9043 337.532 44.3154 337.556 44.7541C337.58 45.1928 337.431 45.6232 337.139 45.9507C336.847 46.2782 336.438 46.476 336.002 46.5004C335.941 46.5039 335.879 46.5039 335.818 46.5004Z" fill="#FA4A0C"/>
<path d="M249.911 46.5004L279.612 44.8474L249.911 43.1921C249.474 43.1677 249.046 43.3185 248.72 43.6114C248.394 43.9043 248.197 44.3154 248.172 44.7541C248.148 45.1928 248.298 45.6232 248.59 45.9507C248.881 46.2782 249.291 46.476 249.727 46.5004C249.788 46.5039 249.849 46.5039 249.911 46.5004Z" fill="#FA4A0C"/>
<path d="M322.388 76.2314L302.32 54.1619L324.688 73.8795C324.984 74.1774 325.155 74.5772 325.168 74.9975C325.18 75.4179 325.033 75.8274 324.756 76.1427C324.479 76.458 324.093 76.6556 323.677 76.6954C323.26 76.7351 322.844 76.614 322.513 76.3566C322.463 76.3238 322.421 76.2812 322.388 76.2314Z" fill="#FA4A0C"/>
<path d="M261.033 15.8284L283.401 35.5324L263.331 13.4628C263.03 13.1643 262.626 12.9934 262.203 12.9853C261.78 12.9772 261.37 13.1326 261.057 13.4193C260.745 13.7061 260.554 14.1024 260.523 14.5265C260.493 14.9506 260.626 15.3702 260.895 15.6986C260.938 15.7448 260.985 15.7881 261.033 15.8284Z" fill="#FA4A0C"/>
<path d="M301.493 17.0606L295.197 36.1611L299.349 16.4572C299.422 16.1805 299.598 15.9424 299.84 15.792C300.082 15.6415 300.373 15.5903 300.652 15.6486C300.93 15.707 301.177 15.8706 301.339 16.1058C301.501 16.3409 301.568 16.6297 301.525 16.9126L301.493 17.0606Z" fill="#FA4A0C"/>
<path d="M286.384 73.2031L290.536 53.5037L284.24 72.6293C284.19 72.7742 284.171 72.9277 284.183 73.0804C284.195 73.233 284.238 73.3817 284.31 73.5169C284.381 73.6522 284.48 73.7712 284.599 73.8666C284.718 73.9621 284.856 74.0319 285.003 74.0718C285.15 74.1116 285.304 74.1207 285.455 74.0984C285.605 74.076 285.75 74.0228 285.88 73.942C286.009 73.8612 286.121 73.7545 286.207 73.6286C286.294 73.5026 286.354 73.3601 286.384 73.2099V73.2031Z" fill="#FA4A0C"/>
<path d="M318.517 31.3341L300.614 40.3823L317.411 29.4169C317.533 29.3302 317.672 29.2691 317.818 29.2373C317.964 29.2055 318.116 29.2037 318.263 29.2319C318.409 29.2601 318.549 29.3178 318.674 29.4016C318.798 29.4853 318.904 29.5934 318.986 29.7193C319.067 29.8452 319.123 29.9864 319.149 30.1344C319.175 30.2824 319.171 30.4342 319.138 30.5807C319.104 30.7272 319.042 30.8654 318.954 30.987C318.866 31.1086 318.754 31.2111 318.626 31.2885L318.517 31.3341Z" fill="#FA4A0C"/>
<path d="M268.322 60.2934L285.124 49.3281L267.22 58.3763C266.975 58.519 266.793 58.7507 266.712 59.0239C266.63 59.297 266.656 59.5911 266.783 59.8458C266.911 60.1006 267.13 60.2968 267.397 60.3944C267.663 60.492 267.957 60.4836 268.218 60.3708C268.255 60.3484 268.29 60.3225 268.322 60.2934Z" fill="#FA4A0C"/>
<path d="M320.511 53.5174L301.5 47.1923L321.112 51.3658C321.387 51.439 321.625 51.6155 321.774 51.859C321.924 52.1025 321.975 52.3944 321.917 52.6746C321.859 52.9548 321.696 53.2019 321.462 53.3651C321.228 53.5282 320.941 53.595 320.659 53.5516L320.511 53.5174Z" fill="#FA4A0C"/>
<path d="M264.639 38.3331L284.247 42.5066L265.233 36.1792C265.094 36.1327 264.948 36.1141 264.802 36.1244C264.656 36.1348 264.514 36.1739 264.383 36.2396C264.252 36.3052 264.135 36.3961 264.04 36.5071C263.944 36.618 263.871 36.7468 263.824 36.8861C263.778 37.0254 263.76 37.1726 263.77 37.3191C263.78 37.4657 263.819 37.6087 263.884 37.7401C263.95 37.8715 264.04 37.9886 264.151 38.0849C264.261 38.1812 264.389 38.2547 264.528 38.3012C264.564 38.3151 264.601 38.3257 264.639 38.3331Z" fill="#FA4A0C"/>
<path d="M306.576 70.4778L297.391 52.593L308.496 69.3599C308.64 69.6064 308.684 69.8987 308.619 70.1769C308.555 70.455 308.387 70.698 308.151 70.8559C307.914 71.0137 307.626 71.0745 307.346 71.0258C307.066 70.9771 306.815 70.8226 306.645 70.5939C306.622 70.5565 306.603 70.5177 306.586 70.4778H306.576Z" fill="#FA4A0C"/>
<path d="M277.242 20.3529L288.347 37.1197L279.161 19.2236C279.088 19.0945 278.991 18.9814 278.874 18.8907C278.757 18.8 278.623 18.7336 278.48 18.6955C278.337 18.6573 278.188 18.6482 278.042 18.6685C277.895 18.6888 277.755 18.7382 277.627 18.8138C277.5 18.8894 277.389 18.9897 277.301 19.1088C277.213 19.228 277.149 19.3635 277.114 19.5077C277.078 19.6518 277.072 19.8016 277.095 19.9483C277.117 20.095 277.169 20.2356 277.247 20.362L277.242 20.3529Z" fill="#FA4A0C"/>
<path d="M231.908 24.697L230.636 47.7183L229.365 24.697C229.352 24.3619 229.471 24.0349 229.695 23.7866C229.919 23.5383 230.232 23.3884 230.565 23.3693C230.899 23.3502 231.226 23.4634 231.477 23.6844C231.728 23.9055 231.883 24.2168 231.908 24.5513C231.911 24.5998 231.911 24.6485 231.908 24.697Z" fill="#FA9330"/>
<path d="M231.908 91.279L230.636 68.2554L229.358 91.279C229.345 91.449 229.366 91.6199 229.419 91.7817C229.472 91.9434 229.558 92.0929 229.669 92.2212C229.781 92.3495 229.917 92.454 230.07 92.5287C230.222 92.6034 230.388 92.6468 230.558 92.6562C230.727 92.6656 230.897 92.6409 231.056 92.5835C231.216 92.5261 231.363 92.4373 231.488 92.3222C231.613 92.207 231.714 92.0679 231.785 91.913C231.856 91.7582 231.895 91.5906 231.901 91.4202C231.907 91.3734 231.909 91.3262 231.908 91.279Z" fill="#FA9330"/>
<path d="M254.969 35.3526L237.868 50.7283L253.172 33.5448C253.401 33.3067 253.712 33.1669 254.042 33.1548C254.371 33.1427 254.692 33.2592 254.937 33.48C255.183 33.7007 255.334 34.0084 255.358 34.3384C255.383 34.6685 255.279 34.9953 255.069 35.2502L254.969 35.3526Z" fill="#FA9330"/>
<path d="M208.103 82.4359L223.409 65.2524L206.308 80.628C206.176 80.7379 206.068 80.8733 205.989 81.0262C205.91 81.1792 205.863 81.3465 205.851 81.5181C205.838 81.6897 205.86 81.8622 205.915 82.0251C205.97 82.1881 206.058 82.3382 206.172 82.4664C206.286 82.5947 206.425 82.6985 206.58 82.7716C206.735 82.8447 206.903 82.8856 207.074 82.8919C207.245 82.8982 207.416 82.8697 207.576 82.8081C207.736 82.7466 207.882 82.6533 208.005 82.5338L208.103 82.4359Z" fill="#FA9330"/>
<path d="M263.776 59.269L240.859 57.9917L263.776 56.7144C263.945 56.7011 264.115 56.7219 264.276 56.7756C264.437 56.8293 264.586 56.9148 264.714 57.0271C264.842 57.1394 264.945 57.2762 265.02 57.4294C265.094 57.5827 265.137 57.7493 265.147 57.9195C265.156 58.0897 265.131 58.2601 265.074 58.4206C265.017 58.5811 264.929 58.7286 264.814 58.8543C264.7 58.98 264.561 59.0815 264.407 59.1527C264.253 59.2239 264.086 59.2635 263.917 59.269H263.776Z" fill="#FA9330"/>
<path d="M197.497 59.269L220.413 57.9917L197.497 56.7144C197.328 56.7011 197.158 56.7219 196.997 56.7756C196.836 56.8293 196.687 56.9148 196.559 57.0271C196.431 57.1394 196.327 57.2762 196.253 57.4294C196.179 57.5827 196.135 57.7493 196.126 57.9195C196.117 58.0897 196.141 58.2601 196.198 58.4206C196.256 58.5811 196.344 58.7286 196.458 58.8543C196.573 58.98 196.712 59.0815 196.866 59.1527C197.02 59.2239 197.187 59.2635 197.356 59.269H197.497Z" fill="#FA9330"/>
<path d="M253.417 82.2038L237.925 65.1797L255.178 80.3891C255.431 80.6129 255.586 80.9286 255.608 81.267C255.63 81.6054 255.517 81.9387 255.294 82.1935C255.072 82.4483 254.757 82.6039 254.421 82.6258C254.084 82.6478 253.752 82.5345 253.498 82.3108C253.47 82.2774 253.443 82.2417 253.417 82.2038Z" fill="#FA9330"/>
<path d="M206.088 35.6124L223.341 50.8218L207.849 33.7977C207.736 33.6736 207.6 33.573 207.449 33.5017C207.298 33.4304 207.134 33.3897 206.967 33.382C206.8 33.3743 206.633 33.3997 206.476 33.4568C206.318 33.5138 206.174 33.6014 206.05 33.7146C205.927 33.8278 205.827 33.9643 205.756 34.1164C205.685 34.2684 205.644 34.433 205.637 34.6007C205.629 34.7685 205.654 34.9362 205.711 35.0942C205.768 35.2521 205.855 35.3973 205.968 35.5213C206.006 35.5539 206.046 35.5842 206.088 35.6124Z" fill="#FA9330"/>
<path d="M237.295 36.5593L232.436 51.3088L235.64 36.0994C235.696 35.8853 235.832 35.7009 236.019 35.5845C236.207 35.468 236.431 35.4284 236.647 35.4737C236.863 35.5191 237.053 35.6458 237.178 35.828C237.303 36.0101 237.354 36.2336 237.32 36.4523C237.314 36.4884 237.305 36.5241 237.295 36.5593Z" fill="#FA9330"/>
<path d="M225.637 79.8677L228.841 64.6583L223.983 79.4078C223.942 79.5166 223.923 79.6326 223.928 79.7488C223.933 79.865 223.961 79.979 224.011 80.0839C224.061 80.1889 224.132 80.2826 224.218 80.3595C224.305 80.4364 224.407 80.4949 224.516 80.5315C224.626 80.568 224.742 80.5818 224.858 80.5722C224.973 80.5625 225.085 80.5295 225.188 80.4752C225.29 80.4208 225.38 80.3463 225.453 80.256C225.526 80.1657 225.58 80.0615 225.612 79.9497C225.622 79.9229 225.63 79.8956 225.637 79.8677Z" fill="#FA9330"/>
<path d="M250.435 47.5638L236.61 54.5469L249.573 46.0747C249.667 46.0047 249.775 45.9548 249.889 45.9281C250.003 45.9013 250.121 45.8983 250.236 45.9192C250.352 45.94 250.461 45.9843 250.559 46.0494C250.657 46.1144 250.74 46.1988 250.804 46.2974C250.868 46.396 250.911 46.5067 250.931 46.6226C250.951 46.7386 250.946 46.8574 250.919 46.9717C250.891 47.0861 250.841 47.1935 250.77 47.2875C250.7 47.3815 250.611 47.46 250.509 47.5182C250.486 47.5356 250.461 47.5509 250.435 47.5638Z" fill="#FA9330"/>
<path d="M211.699 69.9269L224.662 61.4365L210.838 68.4151C210.642 68.5222 210.496 68.7015 210.429 68.9152C210.362 69.1288 210.381 69.3601 210.481 69.5602C210.581 69.7603 210.755 69.9135 210.965 69.9875C211.176 70.0614 211.406 70.0503 211.609 69.9565L211.699 69.9269Z" fill="#FA9330"/>
<path d="M251.971 64.6763L237.288 59.7993L252.426 63.0143C252.541 63.0332 252.65 63.0752 252.748 63.1377C252.846 63.2003 252.93 63.2822 252.996 63.3784C253.061 63.4745 253.107 63.583 253.13 63.6974C253.152 63.8117 253.152 63.9295 253.128 64.0435C253.104 64.1576 253.057 64.2656 252.991 64.3611C252.924 64.4565 252.839 64.5374 252.74 64.5989C252.642 64.6604 252.532 64.7012 252.417 64.7188C252.302 64.7364 252.185 64.7305 252.073 64.7014L251.971 64.6763Z" fill="#FA9330"/>
<path d="M208.86 52.9642L223.999 56.1837L209.325 51.3067C209.109 51.2348 208.874 51.252 208.67 51.3545C208.467 51.457 208.313 51.6363 208.241 51.8531C208.17 52.0699 208.187 52.3063 208.289 52.5104C208.391 52.7145 208.57 52.8696 208.785 52.9414L208.86 52.9642Z" fill="#FA9330"/>
<path d="M241.215 77.7638L234.128 63.9683L242.691 76.9077C242.802 77.0981 242.836 77.3241 242.787 77.5392C242.737 77.7543 242.607 77.9422 242.424 78.0641C242.241 78.186 242.018 78.2327 241.802 78.1947C241.585 78.1566 241.392 78.0366 241.261 77.8594L241.215 77.7638Z" fill="#FA9330"/>
<path d="M218.584 39.0869L227.146 52.0218L220.06 38.2263C219.951 38.0303 219.771 37.8844 219.557 37.8196C219.344 37.7548 219.113 37.7763 218.915 37.8793C218.716 37.9823 218.566 38.1589 218.495 38.3716C218.424 38.5843 218.438 38.8163 218.535 39.0186C218.55 39.0425 218.566 39.0653 218.584 39.0869Z" fill="#FA9330"/>
<path d="M186.505 168.068L216.685 168.105L216.66 186.299L216.608 230.634V235.94C216.643 236.64 216.506 237.339 216.21 237.974C215.914 238.609 215.467 239.161 214.908 239.582C213.64 240.476 212.114 240.923 210.566 240.855L192.461 240.832C190.913 240.897 189.388 240.444 188.123 239.546C187.566 239.125 187.12 238.572 186.825 237.937C186.53 237.301 186.395 236.603 186.433 235.903V230.598L186.485 186.263L186.508 168.068H141.196V168.009H139V204.41H141.196L141.146 249.537C141.146 252.064 142.155 252.932 144.672 252.934L258.779 253.062C261.294 253.062 261.854 252.212 261.856 249.685L261.906 204.569H263.801V168.169L244.449 168.144H229.503C230.036 168.144 230.557 168.121 231.074 168.089L186.505 168.068Z" fill="#5B3D80"/>
<path d="M216.685 169.73H186.423V252.913H216.685V169.73Z" fill="#B57BFF"/>
<path opacity="0.1" d="M261.904 204.394H141.196V207.328H261.904V204.394Z" fill="#231F20"/>
<path opacity="0.1" d="M220.488 168.007C219.978 168.151 219.451 168.222 218.922 168.216H207.697L207.851 168.021H195.817L195.958 168.201H184.676C184.214 168.201 183.752 168.145 183.303 168.034H172.855C173.501 169.446 174.395 170.728 175.493 171.821C176.68 173.052 178.105 174.026 179.681 174.683C181.257 175.339 182.95 175.664 184.656 175.637H219.871C222.98 175.461 225.91 174.118 228.08 171.875C229.199 170.766 230.108 169.46 230.761 168.023L220.488 168.007Z" fill="#231F20"/>
<path d="M192.529 172.887H219.876C223.222 172.643 226.344 171.104 228.584 168.595C230.825 166.085 232.009 162.801 231.888 159.432C231.767 156.064 230.35 152.873 227.936 150.533C225.521 148.192 222.297 146.884 218.942 146.883C217.085 146.799 215.235 147.159 213.544 147.935C211.853 148.711 210.37 149.88 209.218 151.345L201.798 160.926L194.405 151.327C193.257 149.858 191.778 148.684 190.089 147.903C188.4 147.122 186.55 146.757 184.692 146.837C181.255 146.833 177.958 148.2 175.525 150.639C173.091 153.078 171.722 156.387 171.718 159.84C171.714 163.293 173.075 166.606 175.502 169.051C177.929 171.495 181.224 172.871 184.66 172.875L192.529 172.887ZM214.94 156.115C215.424 155.529 216.035 155.062 216.727 154.751C217.419 154.44 218.173 154.293 218.931 154.321C220.403 154.321 221.816 154.909 222.857 155.955C223.898 157.001 224.483 158.42 224.483 159.899C224.483 161.379 223.898 162.798 222.857 163.844C221.816 164.89 220.403 165.478 218.931 165.478H207.706L214.94 156.115ZM180.74 163.804C179.958 163.024 179.425 162.028 179.209 160.943C178.993 159.857 179.103 158.731 179.526 157.709C179.949 156.687 180.666 155.815 181.584 155.203C182.502 154.592 183.581 154.269 184.683 154.276C185.443 154.252 186.198 154.403 186.89 154.719C187.582 155.035 188.192 155.506 188.674 156.097L195.953 165.462H184.681C183.946 165.472 183.217 165.33 182.539 165.045C181.861 164.76 181.249 164.339 180.74 163.806V163.804Z" fill="#B57BFF"/>
<path d="M312.156 253.061H274.244V177.888C274.244 168.519 284.394 153.59 284.394 153.59H300.648C300.648 153.59 312.156 167.073 312.156 177.888V253.061Z" fill="#7F471C"/>
<path d="M292.686 184.007C296.477 184.007 299.551 180.919 299.551 177.11C299.551 173.301 296.477 170.213 292.686 170.213C288.895 170.213 285.822 173.301 285.822 177.11C285.822 180.919 288.895 184.007 292.686 184.007Z" fill="#FEC79C"/>
<path d="M300.648 153.278H284.394L287.837 104.858H296.872L300.648 153.278Z" fill="#FFE3CD"/>
<path d="M298.674 95.999H286.366V104.858H298.674V95.999Z" fill="#FEC79C"/>
<path d="M311.508 199.979H274.894V241.119H311.508V199.979Z" fill="#FFE3CD"/>
<path opacity="0.1" d="M312.155 177.893C311.755 172.607 310.054 167.503 307.204 163.042C307.365 163.772 307.498 164.501 307.614 165.241C310.682 184.546 312.62 203.529 306.968 222.349C305.158 227.42 302.774 232.265 299.863 236.789C296.48 243.197 291.165 248.364 284.679 251.552C283.678 252.047 282.675 252.549 281.672 253.059H312.153L312.155 177.893Z" fill="#231F20"/>
<path d="M277.99 161.935V132.213H237.016V161.937C237.016 161.937 237.015 182.639 256.052 183.649V245.084H256.22C253.065 249.004 242.439 253.053 242.439 253.053H272.55C272.55 253.053 261.738 248.31 259.121 245.084C259.058 245.082 258.995 245.077 258.932 245.068V183.649C277.971 182.648 277.99 161.935 277.99 161.935Z" fill="white"/>
<path d="M258.631 145.758C254.006 149.749 246.736 149.526 240.274 150.744V161.306C240.274 161.306 240.274 179.608 257.498 179.608C274.722 179.608 274.721 161.306 274.721 161.306V140.548C268.897 140.189 263.151 142.049 258.631 145.758V145.758Z" fill="#FFE3CD"/>
<ellipse opacity="0.5" cx="226" cy="269" rx="86" ry="4" fill="#0A1F44"/>
<ellipse opacity="0.5" cx="46" cy="253" rx="46" ry="4" fill="#0A1F44"/>
<ellipse opacity="0.3" cx="444" cy="237" rx="46" ry="4" fill="#0A1F44"/>
<ellipse opacity="0.3" cx="457" cy="241" rx="46" ry="4" fill="#0A1F44"/>
<ellipse opacity="0.3" cx="476" cy="237" rx="46" ry="4" fill="#0A1F44"/>
<defs>
<clipPath id="clip0_3050_42794">
<rect width="363" height="124" fill="white" transform="translate(57 118)"/>
</clipPath>
<clipPath id="clip1_3050_42794">
<rect width="87" height="65" fill="white" transform="translate(55 39)"/>
</clipPath>
</defs>
</svg>
