<svg width="14" height="14" viewBox="0 0 14 14" fill="none" xmlns="http://www.w3.org/2000/svg">
<path fill-rule="evenodd" clip-rule="evenodd" d="M8.81322 4.86004L5.95322 7.72671L4.85322 6.62671C4.6903 6.43644 4.43448 6.35358 4.19094 6.41218C3.94741 6.47078 3.75726 6.66091 3.69868 6.90444C3.6401 7.14797 3.72297 7.40378 3.91322 7.56671L5.47989 9.14004C5.6057 9.26484 5.77602 9.33438 5.95322 9.33338C6.12809 9.33264 6.29569 9.26318 6.41989 9.14004L9.75322 5.80671C9.87942 5.68151 9.95042 5.51114 9.95042 5.33337C9.95042 5.15561 9.87942 4.98522 9.75322 4.86004C9.49322 4.60156 9.07322 4.60156 8.81322 4.86004ZM6.99992 0.333374C3.31802 0.333374 0.333252 3.31814 0.333252 7.00004C0.333252 10.6819 3.31802 13.6667 6.99992 13.6667C10.6818 13.6667 13.6666 10.6819 13.6666 7.00004C13.6666 5.23193 12.9642 3.53624 11.714 2.28599C10.4637 1.03575 8.76805 0.333374 6.99992 0.333374ZM6.99992 12.3334C4.0544 12.3334 1.66659 9.94557 1.66659 7.00004C1.66659 4.05452 4.0544 1.66671 6.99992 1.66671C9.94545 1.66671 12.3333 4.05452 12.3333 7.00004C12.3333 8.41451 11.7713 9.77111 10.7712 10.7713C9.77098 11.7714 8.41438 12.3334 6.99992 12.3334Z" fill="#14B363"/>
</svg>
