<svg width="363" height="124" viewBox="0 0 363 124" fill="none" xmlns="http://www.w3.org/2000/svg">
<g opacity="0.2" clip-path="url(#clip0_2364_27776)">
<path d="M2.88321e-07 67.6239C-0.0002282 68.3115 0.135349 68.9924 0.398981 69.6277C0.662612 70.263 1.04913 70.8402 1.53645 71.3264C2.02377 71.8126 2.60234 72.1982 3.2391 72.4612C3.87586 72.7242 4.55833 72.8595 5.24751 72.8593H122.266C123.657 72.8593 124.992 72.3077 125.976 71.3259C126.96 70.3441 127.513 69.0124 127.513 67.6239C127.513 66.2354 126.96 64.9038 125.976 63.922C124.992 62.9402 123.657 62.3886 122.266 62.3886H5.24751C4.55833 62.3884 3.87586 62.5237 3.2391 62.7867C2.60234 63.0497 2.02377 63.4353 1.53645 63.9215C1.04913 64.4077 0.662612 64.9849 0.398981 65.6202C0.135349 66.2555 -0.0002282 66.9364 2.88321e-07 67.6239Z" fill="#0A1F44"/>
<path d="M227.926 81.9623C227.926 82.6498 228.062 83.3307 228.325 83.966C228.589 84.6013 228.975 85.1785 229.463 85.6647C229.95 86.1509 230.529 86.5365 231.165 86.7995C231.802 87.0626 232.485 87.1978 233.174 87.1976H350.192C351.584 87.1976 352.919 86.646 353.903 85.6642C354.887 84.6824 355.44 83.3508 355.44 81.9623C355.44 80.5736 354.887 79.2418 353.903 78.2597C352.919 77.2777 351.584 76.7259 350.192 76.7257H233.174C231.782 76.7257 230.447 77.2772 229.463 78.259C228.479 79.2409 227.926 80.5725 227.926 81.961V81.9623Z" fill="#0A1F44"/>
<path d="M71.1558 52.8898C71.1553 53.5776 71.2907 54.2587 71.5542 54.8943C71.8177 55.5299 72.2042 56.1074 72.6915 56.5939C73.1788 57.0804 73.7574 57.4664 74.3943 57.7297C75.0312 57.993 75.7139 58.1286 76.4033 58.1286H193.422C194.111 58.1286 194.794 57.9931 195.43 57.7299C196.067 57.4667 196.646 57.081 197.133 56.5947C197.62 56.1084 198.007 55.5311 198.27 54.8958C198.534 54.2605 198.669 53.5795 198.669 52.8919C198.669 51.5034 198.116 50.1718 197.132 49.19C196.148 48.2082 194.814 47.6566 193.422 47.6566H76.4033C75.0119 47.6566 73.6775 48.2079 72.6935 49.1892C71.7095 50.1706 71.1563 51.5016 71.1558 52.8898Z" fill="#0A1F44"/>
<path d="M29.3098 52.8898C29.3095 53.578 29.4452 54.2596 29.7092 54.8955C29.9731 55.5314 30.3601 56.1091 30.8481 56.5957C31.336 57.0823 31.9153 57.4681 32.5528 57.7311C33.1903 57.9941 33.8735 58.1292 34.5634 58.1286H48.7627C50.1545 58.1282 51.4893 57.5763 52.4733 56.5943C53.4574 55.6123 54.0102 54.2805 54.0102 52.8919C54.0098 51.5035 53.4569 50.1721 52.4728 49.1904C51.4888 48.2086 50.1543 47.657 48.7627 47.6566H34.5634C33.1718 47.657 31.8373 48.2086 30.8532 49.1904C29.8692 50.1721 29.3162 51.5035 29.3159 52.8919L29.3098 52.8898Z" fill="#0A1F44"/>
<path d="M39.4365 111.643C39.4365 112.33 39.5723 113.011 39.836 113.646C40.0997 114.282 40.4862 114.859 40.9735 115.345C41.4608 115.831 42.0393 116.217 42.6759 116.48C43.3126 116.743 43.9949 116.878 44.6841 116.878H58.8816C59.5708 116.878 60.2533 116.743 60.8901 116.48C61.5269 116.217 62.1056 115.831 62.593 115.345C63.0804 114.859 63.467 114.282 63.7308 113.647C63.9946 113.011 64.1304 112.331 64.1304 111.643C64.13 110.254 63.5769 108.923 62.5926 107.941C61.6083 106.959 60.2734 106.408 58.8816 106.408H44.6841C43.2924 106.408 41.9579 106.96 40.9739 107.941C39.9899 108.923 39.4369 110.255 39.4365 111.643Z" fill="#0A1F44"/>
<path d="M327.701 95.9884C327.701 96.6759 327.566 97.3568 327.302 97.9921C327.038 98.6274 326.652 99.2046 326.165 99.6908C325.677 100.177 325.099 100.563 324.462 100.826C323.825 101.089 323.143 101.224 322.454 101.224H205.435C204.746 101.224 204.064 101.089 203.427 100.826C202.79 100.563 202.212 100.177 201.724 99.6908C201.237 99.2046 200.851 98.6274 200.587 97.9921C200.323 97.3568 200.188 96.6759 200.188 95.9884C200.188 95.3008 200.323 94.6199 200.587 93.9846C200.851 93.3493 201.237 92.7721 201.724 92.2859C202.212 91.7998 202.79 91.4141 203.427 91.1511C204.064 90.8881 204.746 90.7528 205.435 90.7531H322.454C323.143 90.7529 323.826 90.8882 324.462 91.1512C325.099 91.4143 325.677 91.7999 326.165 92.2861C326.652 92.7723 327.039 93.3495 327.302 93.9847C327.566 94.62 327.701 95.3008 327.701 95.9884Z" fill="#0A1F44"/>
<path d="M363 96.7969C363 97.4845 362.864 98.1655 362.601 98.8008C362.337 99.4362 361.95 100.013 361.463 100.5C360.975 100.986 360.397 101.372 359.76 101.635C359.123 101.898 358.441 102.034 357.751 102.034H343.553C342.864 102.034 342.182 101.898 341.545 101.635C340.908 101.372 340.33 100.986 339.842 100.5C339.355 100.013 338.969 99.4361 338.705 98.8007C338.441 98.1654 338.306 97.4845 338.306 96.7969C338.306 96.1092 338.441 95.4282 338.704 94.7927C338.968 94.1573 339.355 93.5799 339.842 93.0936C340.329 92.6073 340.908 92.2215 341.545 91.9584C342.182 91.6953 342.864 91.56 343.553 91.5603H357.751C359.143 91.5599 360.477 92.1111 361.462 93.0926C362.446 94.074 362.999 95.4054 363 96.7938L363 96.7969Z" fill="#0A1F44"/>
<path d="M52.1618 71.2129C52.162 72.9585 51.6434 74.665 50.6715 76.1165C49.6996 77.568 48.3181 78.6994 46.7017 79.3676C45.0853 80.0358 43.3065 80.2107 41.5905 79.8703C39.8744 79.5299 38.298 78.6894 37.0608 77.4551C35.8235 76.2208 34.9809 74.6482 34.6395 72.9362C34.2981 71.2241 34.4733 69.4495 35.1429 67.8368C35.8124 66.2241 36.9463 64.8456 38.4012 63.8759C39.856 62.9061 41.5664 62.3885 43.3161 62.3886C45.6619 62.3889 47.9115 63.3186 49.5703 64.9734C51.2292 66.6282 52.1613 68.8725 52.1618 71.2129Z" fill="#0A1F44"/>
<path d="M59.6301 46.8969C59.6304 49.2447 58.9327 51.54 57.6255 53.4923C56.3182 55.4446 54.46 56.9662 52.2859 57.8649C50.1117 58.7635 47.7193 58.9988 45.4112 58.5409C43.1031 58.0829 40.9829 56.9524 39.3187 55.2923C37.6546 53.6322 36.5213 51.517 36.0622 49.2142C35.603 46.9115 35.8386 44.5246 36.7392 42.3555C37.6398 40.1863 39.1649 38.3323 41.1216 37.028C43.0784 35.7236 45.3789 35.0274 47.7322 35.0275C50.8875 35.0278 53.9135 36.2783 56.1447 38.5042C58.3759 40.73 59.6297 43.7489 59.6301 46.8969Z" fill="#0A1F44"/>
<path d="M238.763 25.0884C238.763 26.4766 238.21 27.8078 237.226 28.7894C236.242 29.7709 234.907 30.3225 233.516 30.3228H219.318C218.629 30.3229 217.947 30.1875 217.31 29.9243C216.673 29.6612 216.094 29.2754 215.607 28.7891C215.12 28.3028 214.733 27.7255 214.47 27.0901C214.206 26.4548 214.071 25.7739 214.071 25.0862C214.071 23.6977 214.624 22.3661 215.608 21.3843C216.592 20.4025 217.927 19.8509 219.318 19.8509H233.516C234.908 19.8513 236.243 20.4032 237.227 21.3854C238.211 22.3676 238.764 23.6996 238.763 25.0884Z" fill="#0A1F44"/>
<path d="M208.444 19.0938C208.444 21.4414 209.142 23.7363 210.449 25.6883C211.756 27.6403 213.614 29.1618 215.788 30.0604C217.962 30.959 220.354 31.1944 222.662 30.7367C224.97 30.2791 227.09 29.149 228.754 27.4893C230.418 25.8296 231.552 23.7149 232.011 21.4126C232.471 19.1102 232.236 16.7236 231.336 14.5544C230.436 12.3852 228.912 10.531 226.956 9.22603C225 7.92109 222.7 7.22409 220.347 7.22315C218.784 7.22252 217.237 7.5291 215.792 8.12538C214.348 8.72165 213.036 9.59594 211.931 10.6983C210.825 11.8007 209.948 13.1095 209.35 14.55C208.752 15.9905 208.444 17.5345 208.444 19.0938Z" fill="#0A1F44"/>
<path d="M344.853 78.3728C344.853 80.1183 344.335 81.8247 343.363 83.2761C342.391 84.7274 341.009 85.8586 339.392 86.5266C337.776 87.1946 335.997 87.3693 334.281 87.0288C332.565 86.6882 330.989 85.8476 329.752 84.6132C328.515 83.3789 327.672 81.8063 327.331 80.0943C326.99 78.3823 327.165 76.6077 327.835 74.9951C328.504 73.3824 329.638 72.0041 331.093 71.0344C332.548 70.0646 334.258 69.5471 336.008 69.5472C338.354 69.5473 340.604 70.4772 342.263 72.1323C343.921 73.7874 344.853 76.0322 344.853 78.3728Z" fill="#0A1F44"/>
<path d="M331.604 72.5148C331.605 75.4151 330.743 78.2503 329.128 80.662C327.513 83.0736 325.218 84.9533 322.532 86.0633C319.846 87.1734 316.891 87.4639 314.04 86.8983C311.188 86.3326 308.569 84.936 306.514 82.8853C304.458 80.8345 303.058 78.2217 302.491 75.3771C301.924 72.5325 302.215 69.5841 303.327 66.9045C304.44 64.225 306.324 61.9348 308.741 60.3235C311.158 58.7123 314 57.8523 316.907 57.8524C320.805 57.8526 324.543 59.3974 327.299 62.1471C330.055 64.8968 331.604 68.6261 331.604 72.5148Z" fill="#0A1F44"/>
<path d="M285.223 86.0025C297.742 85.8019 307.727 75.5146 307.526 63.0251C307.325 50.5356 297.014 40.5735 284.495 40.774C271.977 40.9746 261.991 51.2619 262.192 63.7514C262.393 76.2409 272.705 86.203 285.223 86.0025Z" fill="#0A1F44"/>
<path d="M261.475 81.2564C271.983 70.7731 271.983 53.7764 261.475 43.2932C250.968 32.8099 233.931 32.8099 223.424 43.2932C212.916 53.7764 212.916 70.7731 223.424 81.2564C233.931 91.7397 250.968 91.7397 261.475 81.2564Z" fill="#0A1F44"/>
<path d="M311.383 105.416C311.383 108.315 310.521 111.15 308.907 113.562C307.292 115.973 304.996 117.852 302.311 118.962C299.626 120.072 296.67 120.362 293.82 119.796C290.969 119.23 288.35 117.834 286.295 115.783C284.239 113.733 282.84 111.12 282.273 108.276C281.706 105.432 281.997 102.484 283.109 99.8044C284.221 97.1252 286.105 94.8353 288.522 93.2241C290.939 91.613 293.78 90.7531 296.687 90.7531C300.585 90.7531 304.323 92.2978 307.079 95.0476C309.835 97.7973 311.383 101.527 311.383 105.416Z" fill="#0A1F44"/>
<path d="M76.0547 80.0383C76.0547 82.9386 75.1927 85.7737 73.5777 88.1851C71.9626 90.5966 69.6671 92.4761 66.9814 93.5859C64.2957 94.6958 61.3404 94.9861 58.4893 94.4203C55.6381 93.8545 53.0192 92.4578 50.9637 90.407C48.9082 88.3562 47.5084 85.7433 46.9413 82.8988C46.3742 80.0543 46.6654 77.1059 47.7779 74.4264C48.8904 71.747 50.7743 69.4569 53.1914 67.8456C55.6086 66.2344 58.4503 65.3745 61.3573 65.3746C65.2553 65.3747 68.9937 66.9197 71.75 69.6696C74.5063 72.4196 76.0547 76.1493 76.0547 80.0383Z" fill="#0A1F44"/>
<path d="M122.741 97.3035C123.863 82.5591 112.792 69.6993 98.013 68.5804C83.2343 67.4614 70.3446 78.5069 69.223 93.2513C68.1014 107.996 79.1726 120.855 93.9514 121.974C108.73 123.093 121.62 112.048 122.741 97.3035Z" fill="#0A1F44"/>
<path d="M124.629 35.0245C124.629 39.0444 123.434 42.974 121.196 46.3164C118.957 49.6589 115.776 52.264 112.053 53.8023C108.33 55.3407 104.234 55.7432 100.282 54.9589C96.3305 54.1747 92.7005 52.2389 89.8514 49.3964C87.0023 46.5539 85.062 42.9324 84.276 38.9897C83.4899 35.047 83.8934 30.9604 85.4353 27.2465C86.9772 23.5326 89.5884 20.3582 92.9386 18.1249C96.2888 15.8916 100.228 14.6995 104.257 14.6995C109.66 14.6995 114.842 16.8409 118.662 20.6526C122.483 24.4642 124.629 29.634 124.629 35.0245Z" fill="#0A1F44"/>
<path d="M164.767 30.8966C165.972 16.2384 155.039 3.38068 140.347 2.17813C125.654 0.975583 112.766 11.8836 111.561 26.5418C110.356 41.2 121.289 54.0578 135.982 55.2603C150.674 56.4629 163.562 45.5549 164.767 30.8966Z" fill="#0A1F44"/>
<path d="M94.4304 45.8521C94.4309 47.7307 93.873 49.5674 92.8272 51.1297C91.7814 52.692 90.2947 53.9099 88.5551 54.6292C86.8156 55.3485 84.9012 55.5369 83.0543 55.1707C81.2073 54.8045 79.5107 53.9001 78.179 52.5718C76.8473 51.2436 75.9403 49.5512 75.5728 47.7086C75.2052 45.8661 75.3936 43.9562 76.1141 42.2204C76.8346 40.4847 78.0548 39.0011 79.6205 37.9573C81.1862 36.9135 83.027 36.3564 84.91 36.3564C87.4345 36.3564 89.8557 37.3567 91.641 39.1374C93.4264 40.9181 94.4297 43.3334 94.4304 45.8521Z" fill="#0A1F44"/>
</g>
<defs>
<clipPath id="clip0_2364_27776">
<rect width="363" height="124" fill="white"/>
</clipPath>
</defs>
</svg>
