<svg width="568" height="107" viewBox="0 0 568 107" fill="none" xmlns="http://www.w3.org/2000/svg">
<g clip-path="url(#clip0_2364_27849)">
<path d="M566.425 0C477.663 34.7283 381.388 52.6893 283.998 52.6893C186.607 52.6893 90.332 34.7283 1.56996 0C1.04755 1.00004 0.523322 2.00509 -0.00292969 3.01513C89.2531 37.9375 186.064 55.9988 283.997 55.9988C381.93 55.9988 478.741 37.9375 567.997 3.01513C567.477 2.00909 566.953 1.00404 566.425 0Z" fill="#666666"/>
<path d="M169.184 99.9818C184.803 84.8005 199.459 69.2273 213.154 53.262C189.779 51.1747 166.543 48.0542 143.535 43.9127C151.052 62.7054 159.602 81.3951 169.184 99.9818Z" fill="#FF7E30"/>
<path d="M89.4572 85.3982C106.951 71.791 123.525 57.6985 139.179 43.1206C116.077 38.827 93.2445 33.5089 70.7717 27.187C75.9673 46.5984 82.1958 66.0021 89.4572 85.3982Z" fill="#007FC5"/>
<path d="M250.625 107C264.205 90.4314 276.793 73.5668 288.389 56.4061C264.95 56.536 241.518 55.6314 218.186 53.696C227.98 71.6614 238.793 89.4294 250.625 107Z" fill="#3C98FB"/>
<path d="M332.519 106.282C343.941 88.5293 354.342 70.5753 363.721 52.4199C340.433 54.7647 317.023 56.0802 293.581 56.3611C305.563 73.2931 318.542 89.9334 332.519 106.282Z" fill="#B57BFF"/>
<path d="M332.519 106.282C343.941 88.5293 354.342 70.5753 363.721 52.4199C340.433 54.7647 317.023 56.0802 293.581 56.3611C305.563 73.2931 318.542 89.9334 332.519 106.282Z" fill="black" fill-opacity="0.25"/>
<path d="M413.709 97.8487C422.869 79.12 430.994 60.2833 438.084 41.3386C415.159 45.8842 391.982 49.4123 368.642 51.909C382.701 67.6095 397.724 82.9228 413.709 97.8487Z" fill="#FCEE21"/>
<path d="M492.64 81.9841C499.487 62.4873 505.294 42.9769 510.059 23.4529C487.704 30.1653 464.965 35.8764 441.933 40.5636C457.913 54.8528 474.816 68.6596 492.64 81.9841Z" fill="#885CBF"/>
</g>
<defs>
<clipPath id="clip0_2364_27849">
<rect width="568" height="107" fill="white"/>
</clipPath>
</defs>
</svg>
