<svg width="20" height="16" viewBox="0 0 20 16" fill="none" xmlns="http://www.w3.org/2000/svg">
<path fill-rule="evenodd" clip-rule="evenodd" d="M10.2499 8.18332C11.1496 7.40457 11.6666 6.27327 11.6666 5.08332C11.6666 2.78214 9.80109 0.916657 7.49992 0.916657C5.19874 0.916657 3.33325 2.78214 3.33325 5.08332C3.33324 6.27327 3.85021 7.40457 4.74992 8.18332C2.36737 9.26216 0.83576 11.6346 0.833252 14.25C0.833252 14.7102 1.20635 15.0833 1.66659 15.0833C2.12682 15.0833 2.49992 14.7102 2.49992 14.25C2.49992 11.4886 4.73849 9.24999 7.49992 9.24999C10.2613 9.24999 12.4999 11.4886 12.4999 14.25C12.4999 14.7102 12.873 15.0833 13.3333 15.0833C13.7935 15.0833 14.1666 14.7102 14.1666 14.25C14.1641 11.6346 12.6325 9.26216 10.2499 8.18332ZM7.49992 7.58332C6.11921 7.58332 4.99992 6.46407 4.99992 5.08332C4.99992 3.70261 6.11921 2.58332 7.49992 2.58332C8.88067 2.58332 9.99992 3.70261 9.99992 5.08332C9.99992 5.74636 9.7365 6.38224 9.26767 6.85107C8.79883 7.31991 8.16296 7.58332 7.49992 7.58332ZM15.6166 7.84999C16.706 6.62324 16.9741 4.87139 16.3014 3.37499C15.6288 1.87859 14.1406 0.916215 12.4999 0.916657C12.0397 0.916657 11.6666 1.28976 11.6666 1.74999C11.6666 2.21023 12.0397 2.58332 12.4999 2.58332C13.8807 2.58332 14.9999 3.70261 14.9999 5.08332C14.9975 5.97408 14.5213 6.79624 13.7499 7.24166C13.4987 7.38657 13.3408 7.65174 13.3333 7.94166C13.3262 8.22924 13.4679 8.50016 13.7083 8.65832L14.0333 8.87499L14.1416 8.93332C16.1925 9.90607 17.4928 11.9802 17.4749 14.25C17.4749 14.7102 17.848 15.0833 18.3083 15.0833C18.7685 15.0833 19.1416 14.7102 19.1416 14.25C19.1554 11.6498 17.8216 9.22807 15.6166 7.84999Z" fill="#110066"/>
</svg>
