<svg width="16" height="14" viewBox="0 0 16 14" fill="none" xmlns="http://www.w3.org/2000/svg">
<path fill-rule="evenodd" clip-rule="evenodd" d="M7.99996 9.66666C7.63176 9.66666 7.33329 9.96513 7.33329 10.3333C7.33329 10.7015 7.63176 11 7.99996 11C8.36816 11 8.66663 10.7015 8.66663 10.3333C8.66663 9.96513 8.36816 9.66666 7.99996 9.66666ZM15.1133 10.6467L9.74663 1.31335C9.39336 0.680078 8.72503 0.287598 7.99996 0.287598C7.27483 0.287598 6.60649 0.680078 6.25327 1.31335L0.919939 10.6467C0.554638 11.2627 0.546675 12.0271 0.899059 12.6507C1.25145 13.2743 1.91038 13.6618 2.62661 13.6667H13.3733C14.0954 13.6738 14.7654 13.291 15.1259 12.6653C15.4865 12.0395 15.4816 11.2679 15.1133 10.6467ZM13.9599 11.98C13.8409 12.1917 13.6161 12.322 13.3733 12.32H2.62659C2.3837 12.322 2.15894 12.1917 2.03993 11.98C1.92083 11.7737 1.92083 11.5196 2.03993 11.3133L7.37328 1.98C7.48735 1.75736 7.71641 1.61731 7.96661 1.61731C8.21675 1.61731 8.44588 1.75736 8.55995 1.98L13.9266 11.3133C14.0613 11.5168 14.0741 11.7777 13.9599 11.9933V11.98ZM7.99996 4.33336C7.63176 4.33336 7.33329 4.63183 7.33329 5.00003V7.66667C7.33329 8.03487 7.63176 8.33334 7.99996 8.33334C8.36816 8.33334 8.66663 8.03487 8.66663 7.66667V5.00003C8.66663 4.63183 8.36816 4.33336 7.99996 4.33336Z" fill="#FFBB38"/>
</svg>
