<svg width="14" height="12" viewBox="0 0 14 12" fill="none" xmlns="http://www.w3.org/2000/svg">
<path fill-rule="evenodd" clip-rule="evenodd" d="M13.6134 5.73332C12.2667 2.60666 9.73335 0.666656 7.00002 0.666656C4.26671 0.666656 1.73338 2.60666 0.38671 5.73332C0.312503 5.90339 0.312503 6.09659 0.38671 6.26666C1.73338 9.39332 4.26671 11.3333 7.00002 11.3333C9.73335 11.3333 12.2667 9.39332 13.6134 6.26666C13.6876 6.09659 13.6876 5.90339 13.6134 5.73332ZM7.00002 9.99999C4.88672 9.99999 2.88671 8.47332 1.73338 5.99999C2.88671 3.52666 4.88672 1.99999 7.00002 1.99999C9.11335 1.99999 11.1133 3.52666 12.2667 5.99999C11.1133 8.47332 9.11335 9.99999 7.00002 9.99999ZM7.00002 3.33332C5.52729 3.33332 4.33338 4.52723 4.33338 5.99999C4.33338 7.47272 5.52729 8.66666 7.00002 8.66666C8.47282 8.66666 9.66668 7.47272 9.66668 5.99999C9.66668 5.29272 9.38575 4.61447 8.88568 4.11437C8.38555 3.61428 7.70728 3.33332 7.00002 3.33332ZM7.00002 7.33332C6.26368 7.33332 5.66671 6.73639 5.66671 5.99999C5.66671 5.26359 6.26368 4.66666 7.00002 4.66666C7.73642 4.66666 8.33335 5.26359 8.33335 5.99999C8.33335 6.73639 7.73642 7.33332 7.00002 7.33332Z" fill="#60646A"/>
</svg>
