<svg width="14" height="14" viewBox="0 0 14 14" fill="none" xmlns="http://www.w3.org/2000/svg">
<path fill-rule="evenodd" clip-rule="evenodd" d="M11.6666 0.333333H2.33325C1.22869 0.333333 0.333252 1.22877 0.333252 2.33333V3.11333C0.333159 3.38863 0.389899 3.66098 0.499919 3.91333V3.95333C0.594105 4.16731 0.727512 4.36177 0.893252 4.52667L4.99992 8.60667V13C4.99946 13.2303 5.11793 13.4446 5.31325 13.5667C5.41935 13.6324 5.54176 13.6671 5.66658 13.6667C5.77092 13.6661 5.87372 13.6409 5.96658 13.5933L8.63325 12.26C8.85745 12.147 8.99918 11.9177 8.99992 11.6667V8.60667L13.0799 4.52667C13.2457 4.36177 13.3791 4.16731 13.4733 3.95333V3.91333C13.5925 3.66295 13.6583 3.39052 13.6666 3.11333V2.33333C13.6666 1.22877 12.7712 0.333333 11.6666 0.333333ZM7.85992 7.86C7.73512 7.9858 7.66559 8.15613 7.66659 8.33333V11.2533L6.33325 11.92V8.33333C6.33425 8.15613 6.26472 7.9858 6.13992 7.86L2.60659 4.33333H11.3933L7.85992 7.86ZM12.3333 3H1.66659V2.33333C1.66659 1.96515 1.96507 1.66667 2.33325 1.66667H11.6666C12.0348 1.66667 12.3333 1.96515 12.3333 2.33333V3Z" fill="#3CC13B"/>
</svg>
