<svg width="42" height="40" viewBox="0 0 42 40" fill="none" xmlns="http://www.w3.org/2000/svg">
<path fill-rule="evenodd" clip-rule="evenodd" d="M36.36 9.75987C34.3222 8.68877 31.9456 8.45901 29.74 9.11987C29.517 4.46073 25.6746 0.797852 21.01 0.797852C16.3457 0.797852 12.5032 4.46073 12.2801 9.11987C10.0807 8.45749 7.71088 8.66513 5.66014 9.69987C2.57356 11.3222 0.746622 14.624 1.01174 18.1008C1.27684 21.5776 3.58326 24.5644 6.88014 25.6998C5.8505 27.165 5.29234 28.9092 5.28014 30.6998C5.28902 31.2026 5.33582 31.7042 5.42014 32.1998C6.11576 36.3948 9.74792 39.4682 14.0001 39.4598C14.4263 39.489 14.854 39.489 15.2801 39.4598C17.5662 39.0998 19.6198 37.8574 21 35.9998C22.3948 37.8274 24.4464 39.0398 26.72 39.3798C27.1462 39.409 27.574 39.409 28 39.3798C31.254 39.3762 34.2352 37.561 35.7322 34.6718C37.2294 31.7828 36.9934 28.3006 35.12 25.6398C38.4338 24.5236 40.7602 21.536 41.0304 18.0498C41.3006 14.5637 39.4622 11.2533 36.36 9.63987V9.75987ZM17.6801 5.87981C19.5365 4.10199 22.4639 4.10199 24.3201 5.87981C25.7155 7.27717 26.1265 9.37987 25.3601 11.1998L24.8401 12.3798L23.5201 13.5398C22.7087 13.2613 21.8581 13.1128 21.0001 13.0998C19.8913 13.1009 18.7949 13.3324 17.7801 13.7798L16.6602 11.1998C15.8656 9.38637 16.2712 7.27077 17.6801 5.87981ZM5.4802 19.5598C4.5604 17.536 5.17084 15.1447 6.9482 13.8093C8.72558 12.4739 11.1922 12.5531 12.8802 13.9999L13.8602 14.8599L14.5602 16.4598C13.5583 17.8004 13.0116 19.4264 13.0002 21.0998C12.9765 21.3994 12.9765 21.7004 13.0002 21.9998H11.9002L10.2202 22.1598C8.25238 22.3676 6.36262 21.331 5.4802 19.5598ZM18.68 31.7198C18.1838 33.9206 16.2107 35.4708 13.955 35.432C11.6993 35.3934 9.78057 33.7764 9.36012 31.5598C9.34093 31.2802 9.34093 30.9996 9.36012 30.7198C9.37486 29.0658 10.2654 27.5434 11.7001 26.7198L12.7201 25.9998L14.5401 25.7998C15.6872 27.3956 17.3816 28.5134 19.3 28.9398L18.68 31.7198ZM21 25.0998C18.791 25.0998 17.0001 23.309 17.0001 21.0998C17.0001 18.8908 18.791 17.0998 21 17.0998C23.2092 17.0998 25 18.8908 25 21.0998C25 23.309 23.2092 25.0998 21 25.0998ZM32.64 31.5399C32.2108 34.0788 29.826 35.805 27.28 35.4199C25.3056 35.1417 23.7112 33.6669 23.28 31.7199L23 30.5199L23.42 28.6799C25.2652 28.0791 26.8288 26.8281 27.82 25.1599L28.82 25.7599H29L30.32 26.5399C32.078 27.5437 33.0086 29.5495 32.64 31.5399ZM36.52 19.5397C35.7178 21.1611 34.069 22.1907 32.26 22.1997H31.78L30.5 21.9997L29 21.1797C28.9972 19.2353 28.2864 17.3583 27 15.8998L27.86 15.1598L29.12 13.9998C30.8148 12.4932 33.3392 12.3979 35.1428 13.7724C36.9462 15.147 37.5236 17.6063 36.52 19.6397V19.5397Z" fill="#FFBB38"/>
</svg>
