<svg width="18" height="18" viewBox="0 0 18 18" fill="none" xmlns="http://www.w3.org/2000/svg">
<path fill-rule="evenodd" clip-rule="evenodd" d="M16.7668 6.95833L15.1918 6.43333L15.9334 4.94999C16.0875 4.6318 16.024 4.25102 15.7751 3.99999L14.0001 2.22499C13.7476 1.97226 13.3621 1.90857 13.0417 2.06666L11.5584 2.80833L11.0334 1.23333C10.9198 0.896801 10.6053 0.669301 10.2501 0.666659H7.75008C7.39183 0.665734 7.07307 0.893901 6.95842 1.23333L6.43342 2.80833L4.95008 2.06666C4.63189 1.91258 4.25111 1.97604 4.00008 2.22499L2.22508 3.99999C1.97235 4.25248 1.90866 4.63797 2.06675 4.95833L2.80842 6.44166L1.23342 6.96666C0.896892 7.08032 0.669393 7.39483 0.666751 7.74999V10.25C0.665826 10.6082 0.893992 10.927 1.23342 11.0417L2.80842 11.5667L2.06675 13.05C1.91268 13.3682 1.97613 13.749 2.22508 14L4.00008 15.775C4.25257 16.0277 4.63806 16.0914 4.95842 15.9333L6.44175 15.1917L6.96675 16.7667C7.0814 17.1061 7.40017 17.3342 7.75842 17.3333H10.2584C10.6167 17.3342 10.9354 17.1061 11.0501 16.7667L11.5751 15.1917L13.0584 15.9333C13.3744 16.0834 13.7506 16.0202 14.0001 15.775L15.7751 14C16.0278 13.7475 16.0915 13.362 15.9334 13.0417L15.1918 11.5583L16.7668 11.0333C17.1032 10.9197 17.3307 10.6052 17.3334 10.25V7.74999C17.3343 7.39174 17.1062 7.07298 16.7668 6.95833ZM15.6667 9.64999L14.6668 9.98333C14.2013 10.1343 13.8258 10.4822 13.6397 10.9347C13.4535 11.3872 13.4756 11.8986 13.7001 12.3333L14.1751 13.2833L13.2584 14.2L12.3334 13.7C11.901 13.4846 11.3964 13.4673 10.9503 13.6528C10.5043 13.8383 10.1607 14.2082 10.0084 14.6667L9.67508 15.6667H8.35008L8.01675 14.6667C7.86575 14.2012 7.51792 13.8257 7.06543 13.6396C6.61294 13.4534 6.10151 13.4755 5.66675 13.7L4.71675 14.175L3.80008 13.2583L4.30008 12.3333C4.52457 11.8986 4.54667 11.3872 4.36053 10.9347C4.1744 10.4822 3.79883 10.1343 3.33342 9.98333L2.33342 9.64999V8.34999L3.33342 8.01666C3.79883 7.86566 4.1744 7.51783 4.36053 7.06534C4.54667 6.61285 4.52457 6.10142 4.30008 5.66666L3.82508 4.74166L4.74175 3.82499L5.66675 4.29999C6.10151 4.52448 6.61294 4.54658 7.06543 4.36044C7.51792 4.17431 7.86575 3.79874 8.01675 3.33333L8.35008 2.33333H9.65008L9.98342 3.33333C10.1344 3.79874 10.4823 4.17431 10.9348 4.36044C11.3873 4.54658 11.8987 4.52448 12.3334 4.29999L13.2834 3.82499L14.2001 4.74166L13.7001 5.66666C13.4847 6.09906 13.4674 6.60366 13.6529 7.04973C13.8384 7.49583 14.2083 7.83949 14.6668 7.99166L15.6667 8.32499V9.64999ZM9.00008 5.66666C7.15914 5.66666 5.66675 7.15904 5.66675 8.99999C5.66675 10.8409 7.15914 12.3333 9.00008 12.3333C10.841 12.3333 12.3334 10.8409 12.3334 8.99999C12.3334 8.11591 11.9823 7.26809 11.3571 6.64298C10.732 6.01785 9.88417 5.66666 9.00008 5.66666ZM9.00008 10.6667C8.07958 10.6667 7.33342 9.92049 7.33342 8.99999C7.33342 8.07949 8.07958 7.33333 9.00008 7.33333C9.92058 7.33333 10.6668 8.07949 10.6668 8.99999C10.6668 9.92049 9.92058 10.6667 9.00008 10.6667Z" fill="#90979E"/>
</svg>
