<svg width="16" height="18" viewBox="0 0 16 18" fill="none" xmlns="http://www.w3.org/2000/svg">
<path fill-rule="evenodd" clip-rule="evenodd" d="M14.6665 5.66667L9.66654 1.28334C8.71746 0.434524 7.28221 0.434524 6.33317 1.28334L1.33317 5.66667C0.79771 6.14557 0.494127 6.83166 0.499835 7.55V14.8333C0.499835 16.2141 1.61913 17.3333 2.99984 17.3333H12.9999C14.3805 17.3333 15.4999 16.2141 15.4999 14.8333V7.54167C15.5031 6.82622 15.1998 6.14363 14.6665 5.66667ZM9.66653 15.6667H6.33315V11.5C6.33315 11.0397 6.70628 10.6667 7.16653 10.6667H8.83319C9.29336 10.6667 9.66653 11.0397 9.66653 11.5V15.6667ZM13.8332 14.8333C13.8332 15.2936 13.46 15.6667 12.9999 15.6667H11.3332V11.5C11.3332 10.1193 10.2139 9 8.83319 9H7.16653C5.78578 9 4.66649 10.1193 4.66649 11.5V15.6667H2.99982C2.53959 15.6667 2.16649 15.2936 2.16649 14.8333V7.54167C2.16679 7.30232 2.27 7.07465 2.44982 6.91667L7.44986 2.54167C7.76444 2.2653 8.23519 2.2653 8.54986 2.54167L13.5499 6.91667C13.7296 7.07465 13.8329 7.30232 13.8332 7.54167V14.8333Z" fill="#90979E"/>
</svg>
