<svg width="19" height="19" viewBox="0 0 19 19" fill="none" xmlns="http://www.w3.org/2000/svg">
<path fill-rule="evenodd" clip-rule="evenodd" d="M14.8334 10.8332C14.3732 10.8332 14.0001 11.2063 14.0001 11.6666V11.9832L12.7667 10.7499C11.8603 9.85058 10.3982 9.85058 9.49175 10.7499L8.90841 11.3332L6.84175 9.26658C5.92462 8.39358 4.48387 8.39358 3.56675 9.26658L2.33341 10.4999V5.83325C2.33341 5.37301 2.70651 4.99992 3.16675 4.99992H9.00008C9.46033 4.99992 9.83341 4.62682 9.83341 4.16658C9.83341 3.70634 9.46033 3.33325 9.00008 3.33325H3.16675C1.78604 3.33325 0.666748 4.45253 0.666748 5.83325V15.8332C0.666748 17.2139 1.78604 18.3332 3.16675 18.3332H13.1667C14.5475 18.3332 15.6667 17.2139 15.6667 15.8332V11.6666C15.6667 11.2063 15.2937 10.8332 14.8334 10.8332ZM3.16675 16.6666C2.70651 16.6666 2.33341 16.2935 2.33341 15.8332V12.8582L4.75008 10.4416C5.00437 10.1992 5.40412 10.1992 5.65842 10.4416L8.30008 13.0832L11.8834 16.6666H3.16675ZM14.0001 15.8332C13.9989 15.9927 13.9462 16.1477 13.8501 16.2749L10.0917 12.4999L10.6751 11.9166C10.7957 11.7934 10.961 11.724 11.1334 11.724C11.3058 11.724 11.4711 11.7934 11.5917 11.9166L14.0001 14.3416V15.8332ZM17.9251 3.57492L15.4251 1.07492C15.3458 0.999049 15.2524 0.939574 15.1501 0.899916C14.9472 0.816564 14.7197 0.816564 14.5167 0.899916C14.4144 0.939574 14.321 0.999049 14.2417 1.07492L11.7417 3.57492C11.5303 3.78629 11.4478 4.09439 11.5252 4.38314C11.6026 4.6719 11.8281 4.89744 12.1168 4.97481C12.4056 5.05218 12.7137 4.96963 12.9251 4.75825L14.0001 3.67492V8.33325C14.0001 8.7935 14.3732 9.16658 14.8334 9.16658C15.2937 9.16658 15.6667 8.7935 15.6667 8.33325V3.67492L16.7417 4.75825C16.8982 4.91601 17.1112 5.00474 17.3334 5.00474C17.5556 5.00474 17.7686 4.91601 17.9251 4.75825C18.0828 4.60177 18.1716 4.38877 18.1716 4.16658C18.1716 3.94438 18.0828 3.73138 17.9251 3.57492Z" fill="#90979E"/>
</svg>
