<svg width="14" height="14" viewBox="0 0 14 14" fill="none" xmlns="http://www.w3.org/2000/svg">
<path fill-rule="evenodd" clip-rule="evenodd" d="M7 0.75C3.54822 0.75 0.75 3.54822 0.75 7C0.75 10.4518 3.54822 13.25 7 13.25C10.4518 13.25 13.25 10.4518 13.25 7C13.2462 3.54981 10.4502 0.753838 7 0.75ZM7.00001 11.9999C4.23858 11.9999 2.00001 9.76138 2.00001 6.99994C2.00001 4.23851 4.23858 1.99994 7.00001 1.99994C9.76144 1.99994 12 4.23851 12 6.99994C11.9968 9.76006 9.76013 11.9968 7.00001 11.9999ZM7.00001 6.68744C6.65482 6.68744 6.37501 6.96725 6.37501 7.31244V9.18744C6.37501 9.53263 6.65482 9.81244 7.00001 9.81244C7.3452 9.81244 7.62501 9.53263 7.62501 9.18744V7.31244C7.62501 6.96725 7.3452 6.68744 7.00001 6.68744ZM6.99998 4.1875C6.56848 4.1875 6.21873 4.53727 6.21873 4.96875C6.21873 5.40022 6.56848 5.75 6.99998 5.75C7.43148 5.75 7.78123 5.40022 7.78123 4.96875C7.78123 4.53727 7.43148 4.1875 6.99998 4.1875Z" fill="#110066"/>
</svg>
