<svg width="87" height="65" viewBox="0 0 87 65" fill="none" xmlns="http://www.w3.org/2000/svg">
<g clip-path="url(#clip0_2364_27858)">
<path d="M41.9909 22.5107L87.0001 0L37.2952 19.2014L41.314 20.3556L41.9909 22.5107Z" fill="white"/>
<path opacity="0.2" d="M41.3137 20.3551L86.9998 0L41.9907 22.5107L41.3137 20.3551Z" fill="#231F20"/>
<path d="M41.9907 22.5107L86.9994 0L46.3973 31.1693L41.9907 22.5107Z" fill="white"/>
<path opacity="0.2" d="M41.9907 22.5107L86.9994 0L48.6811 29.4164L41.9907 22.5107Z" fill="#231F20"/>
<path d="M41.9907 22.5107L86.9994 0L57.147 31.2272L41.9907 22.5107Z" fill="white"/>
<path d="M0.51437 59.0762C5.27236 60.8436 9.75994 63.369 14.745 64.5634C17.7599 65.2892 20.5243 65.0458 23.4964 64.3093C28.9535 62.9519 35.6034 60.1868 38.8948 55.411C41.7685 51.2377 39.5209 45.1989 34.411 44.0415C30.4143 43.1377 27.8591 47.3577 27.6985 50.7407C27.3687 57.7627 35.9081 58.9496 41.0981 57.3998C49.4067 54.914 49.8203 43.6099 48.7843 36.7145C48.6049 35.5206 46.7017 35.6257 46.8849 36.8163C47.8549 43.2358 47.7635 53.4516 40.0806 55.7487C35.3848 57.1532 28.3425 55.433 29.832 49.3498C30.1981 47.8112 31.3621 46.127 33.0458 45.8733C35.487 45.5104 37.6578 48.1522 38.2942 50.1882C39.1177 52.8229 36.863 55.298 34.9999 56.8291C32.4965 58.8865 29.4693 60.3167 26.4425 61.4377C23.7102 62.4503 20.6194 63.3994 17.6582 63.1434C11.8751 62.6465 6.73648 59.3839 1.40565 57.4096C0.267505 56.9892 -0.611073 58.6651 0.534612 59.0911L0.51437 59.0762Z" fill="white"/>
</g>
<defs>
<clipPath id="clip0_2364_27858">
<rect width="87" height="65" fill="white"/>
</clipPath>
</defs>
</svg>
