<svg width="18" height="18" viewBox="0 0 18 18" fill="none" xmlns="http://www.w3.org/2000/svg">
<path fill-rule="evenodd" clip-rule="evenodd" d="M13.1667 17.3333H3.16675C1.78604 17.3333 0.666748 16.2141 0.666748 14.8333V6.5C0.666748 5.11929 1.78604 4 3.16675 4H4.00008C4.02884 2.55114 4.9904 1.28686 6.37895 0.87219C7.7675 0.457531 9.26492 0.987506 10.0834 2.18333C10.4571 2.71596 10.6605 3.34938 10.6667 4H13.1667C13.627 4 14.0001 4.37309 14.0001 4.83333V7.33332C15.4489 7.36207 16.7132 8.32366 17.1279 9.71216C17.5426 11.1007 17.0126 12.5982 15.8167 13.4167C15.2842 13.7904 14.6507 13.9937 14.0001 14V16.5C14.0001 16.9602 13.627 17.3333 13.1667 17.3333ZM3.16675 5.66666C2.70651 5.66666 2.33341 6.03976 2.33341 6.5V14.8333C2.33341 15.2936 2.70651 15.6667 3.16675 15.6667H12.3334V13.0167C12.332 12.7455 12.4625 12.4906 12.6834 12.3333C12.9037 12.1763 13.1863 12.1359 13.4417 12.225C13.9249 12.4222 14.4763 12.3492 14.8917 12.0333C15.3029 11.7826 15.5855 11.3663 15.6667 10.8917C15.7317 10.4129 15.5858 9.92949 15.2667 9.56666C14.829 9.03491 14.0966 8.84932 13.4584 9.10832C13.203 9.19741 12.9203 9.15707 12.7001 8.99999C12.4792 8.84274 12.3487 8.58782 12.3501 8.31666V5.66666H9.68341C9.40525 5.68243 9.13766 5.55815 8.97016 5.33546C8.80275 5.11279 8.75766 4.82116 8.85008 4.55833C9.04716 4.07512 8.97433 3.52372 8.65841 3.10833C8.40916 2.68491 7.98091 2.39781 7.49458 2.3281C7.00821 2.25839 6.51655 2.41363 6.15841 2.75C5.82645 3.07926 5.64805 3.53281 5.66675 4C5.66868 4.19114 5.70539 4.38034 5.77508 4.55833C5.86448 4.81405 5.82401 5.09727 5.66655 5.31771C5.50909 5.53815 5.25431 5.6683 4.98341 5.66666H3.16675Z" fill="#110066"/>
</svg>
