<svg width="20" height="20" viewBox="0 0 20 20" fill="none" xmlns="http://www.w3.org/2000/svg">
<path fill-rule="evenodd" clip-rule="evenodd" d="M9.29 13.29C9.247 13.3375 9.2069 13.3876 9.17 13.44C9.1322 13.4957 9.1019 13.5563 9.08 13.62C9.0512 13.6767 9.0309 13.7374 9.02 13.8C9.0151 13.8666 9.0151 13.9334 9.02 14C9.0166 14.1312 9.044 14.2613 9.1 14.38C9.1909 14.6312 9.3888 14.8291 9.64 14.92C9.882 15.027 10.158 15.027 10.4 14.92C10.6512 14.8291 10.8491 14.6312 10.94 14.38C10.9844 14.2584 11.0048 14.1294 11 14C11.0015 13.7342 10.8972 13.4787 10.71 13.29C10.5222 13.1007 10.2666 12.9942 10 12.9942C9.7334 12.9942 9.4778 13.1007 9.29 13.29ZM10 0C4.47715 0 0 4.47715 0 10C0 15.5228 4.47715 20 10 20C15.5228 20 20 15.5228 20 10C20 7.34784 18.9464 4.8043 17.0711 2.92893C15.1957 1.05357 12.6522 0 10 0ZM10 18C5.58172 18 2 14.4183 2 10C2 5.58172 5.58172 2 10 2C14.4183 2 18 5.58172 18 10C18 12.1217 17.1571 14.1566 15.6569 15.6569C14.1566 17.1571 12.1217 18 10 18ZM10 5C8.9275 4.99931 7.93624 5.5712 7.4 6.5C7.20294 6.80999 7.19169 7.20306 7.3707 7.52381C7.54971 7.84456 7.89016 8.0414 8.2575 8.0364C8.6247 8.0314 8.9597 7.82548 9.13 7.5C9.3093 7.18937 9.6413 6.99858 10 7C10.5523 7 11 7.44772 11 8C11 8.5523 10.5523 9 10 9C9.4477 9 9 9.4477 9 10V11C9 11.5523 9.4477 12 10 12C10.5523 12 11 11.5523 11 11V10.82C12.365 10.3247 13.1793 8.923 12.9334 7.49189C12.6875 6.06081 11.452 5.01127 10 5Z" fill="#90979E"/>
</svg>
