<svg width="21" height="21" viewBox="0 0 21 21" fill="none" xmlns="http://www.w3.org/2000/svg">
<path fill-rule="evenodd" clip-rule="evenodd" d="M20.7101 19.2899L17.0001 15.6099C19.9904 11.8816 19.5449 6.46619 15.9857 3.27656C12.4264 0.0869334 6.9948 0.235564 3.6153 3.61506C0.235809 6.99456 0.0871787 12.4262 3.27681 15.9854C6.46643 19.5447 11.8818 19.9901 15.6101 16.9999L19.2901 20.6799C19.4779 20.8692 19.7335 20.9757 20.0001 20.9757C20.2668 20.9757 20.5224 20.8692 20.7101 20.6799C21.0848 20.2923 21.0848 19.6775 20.7101 19.2899ZM10.0001 16.9999C6.13417 16.9999 3.00016 13.8659 3.00016 9.9999C3.00016 6.13393 6.13417 2.99992 10.0001 2.99992C13.8661 2.99992 17.0001 6.13393 17.0001 9.9999C17.0001 11.8564 16.2626 13.6369 14.9499 14.9497C13.6371 16.2624 11.8567 16.9999 10.0001 16.9999Z" fill="#90979E"/>
</svg>
