<svg width="18" height="10" viewBox="0 0 18 10" fill="none" xmlns="http://www.w3.org/2000/svg">
<path d="M2.24999 4.99992C2.24999 3.57492 3.40832 2.41658 4.83332 2.41658H8.16666V0.833252H4.83332C2.53332 0.833252 0.666656 2.69992 0.666656 4.99992C0.666656 7.29992 2.53332 9.16659 4.83332 9.16659H8.16666V7.58325H4.83332C3.40832 7.58325 2.24999 6.42492 2.24999 4.99992ZM5.66666 5.83325H12.3333V4.16659H5.66666V5.83325ZM13.1667 0.833252H9.83332V2.41658H13.1667C14.5917 2.41658 15.75 3.57492 15.75 4.99992C15.75 6.42492 14.5917 7.58325 13.1667 7.58325H9.83332V9.16659H13.1667C15.4667 9.16659 17.3333 7.29992 17.3333 4.99992C17.3333 2.69992 15.4667 0.833252 13.1667 0.833252Z" fill="#90979E"/>
</svg>
