<svg width="257" height="235" viewBox="0 0 257 235" fill="none" xmlns="http://www.w3.org/2000/svg">
<path d="M61.994 89.2148L27.3447 147.805L50.4196 150.45L73.209 105.814L61.994 89.2148Z" fill="#310C14"/>
<path d="M61.0872 88.6418L26.3662 147.189L28.2241 148.335L62.9451 89.7872L61.0872 88.6418Z" fill="#711A61"/>
<path d="M68.2745 104.34L42.7959 149.577V203.197H111.559V133.653L68.2745 104.34Z" fill="#7A2E9A"/>
<path d="M111.562 131.541H84.2402V203.201H111.562V131.541Z" fill="#391E4B"/>
<path d="M61.9941 89.2148L84.9703 144.546L115.901 150.45L113.004 119.832L61.9941 89.2148Z" fill="#190428"/>
<path d="M62.9974 88.7379L61.0015 89.5996L83.9797 144.929L85.9757 144.067L62.9974 88.7379Z" fill="#711A61"/>
<path d="M81.3115 148.237L40.6494 152.294V146.023L81.3115 141.966V148.237Z" fill="#511F54"/>
<path d="M81.312 141.966L115.901 147.13V152.664L81.312 148.237V141.966Z" fill="#511F54"/>
<path d="M73.2092 196.096H53.1548V166.485C53.1539 163.774 54.2089 161.174 56.088 159.256C57.967 157.338 60.5162 156.259 63.1749 156.257C65.8346 156.258 68.3851 157.336 70.2654 159.254C72.1458 161.172 73.2021 163.773 73.2021 166.485L73.2092 196.096Z" fill="#F6DE7C"/>
<path d="M69.5646 139.209L61.2539 140.212V127.943C61.2539 126.82 61.6917 125.742 62.471 124.948C63.2502 124.153 64.3072 123.707 65.4093 123.707C66.5113 123.707 67.5683 124.153 68.3476 124.948C69.1268 125.742 69.5646 126.82 69.5646 127.943V139.209Z" fill="#F6DE7C"/>
<path d="M66.4876 156.869C64.9794 156.306 63.3599 156.125 61.7681 156.342C60.1763 156.558 58.6598 157.165 57.3486 158.11C56.0374 159.055 54.9708 160.311 54.2403 161.769C53.5097 163.227 53.1371 164.844 53.1544 166.481V196.093H59.7663V166.481C59.7702 164.366 60.4192 162.305 61.6235 160.582C62.8277 158.86 64.5276 157.562 66.4876 156.869Z" fill="#F79D52"/>
<path d="M191.35 87.7163L225.999 146.307L202.928 148.948L180.135 104.315L191.35 87.7163Z" fill="#310C14"/>
<path d="M192.247 87.1964L190.389 88.3418L225.11 146.89L226.968 145.744L192.247 87.1964Z" fill="#711A61"/>
<path d="M185.069 102.838L210.552 148.075V201.699H141.785V132.155L185.069 102.838Z" fill="#7A2E9A"/>
<path d="M141.785 201.699H169.106V130.039H141.785V201.699Z" fill="#391E4B"/>
<path d="M191.349 87.7163L168.373 143.047L137.442 148.948L140.34 118.33L191.349 87.7163Z" fill="#190428"/>
<path d="M190.314 87.2424L167.346 142.576L169.342 143.437L192.311 88.1038L190.314 87.2424Z" fill="#711A61"/>
<path d="M172.032 146.734L212.694 150.795V144.521L172.032 140.463V146.734Z" fill="#511F54"/>
<path d="M172.032 140.463L137.442 145.627V151.162L172.032 146.734V140.463Z" fill="#511F54"/>
<path d="M180.135 194.601H200.193V164.983C200.192 162.271 199.135 159.67 197.254 157.753C195.372 155.836 192.822 154.759 190.162 154.759C188.845 154.759 187.541 155.023 186.325 155.537C185.108 156.051 184.003 156.804 183.072 157.753C182.141 158.703 181.402 159.83 180.898 161.07C180.394 162.311 180.135 163.64 180.135 164.983V194.601Z" fill="#F6DE7C"/>
<path d="M183.779 137.707L192.09 138.714V126.441C192.09 125.319 191.653 124.242 190.875 123.448C190.098 122.654 189.043 122.206 187.942 122.205C186.84 122.205 185.783 122.651 185.003 123.446C184.224 124.24 183.786 125.318 183.786 126.441L183.779 137.707Z" fill="#F6DE7C"/>
<path d="M186.856 155.373C187.916 154.978 189.034 154.77 190.162 154.759C192.822 154.759 195.373 155.836 197.254 157.753C199.135 159.67 200.192 162.271 200.193 164.983V194.601H193.581V164.983C193.577 162.867 192.927 160.806 191.722 159.084C190.517 157.362 188.817 156.065 186.856 155.373Z" fill="#F79D52"/>
<path d="M123.2 174.837L115.358 175.196V162.899C115.358 160.559 117.121 158.586 119.278 158.489C121.445 158.396 123.2 160.214 123.2 162.557V174.837Z" fill="#F6DE7C"/>
<path d="M145.651 207.851L145.56 237.229L238.24 235.745V211.775" fill="#371951"/>
<path d="M125.143 194.623L151.735 211.775H250.727L228.558 194.623H125.143Z" fill="#190428"/>
<path d="M105.208 208.63L105.299 238.005L12.6191 236.52V212.555" fill="#371951"/>
<path d="M125.717 195.402L99.1243 212.555H0.131836L22.3009 195.402H125.717Z" fill="#190428"/>
<path d="M105.299 238.005L105.208 208.63L125.717 195.402L125.142 237.228" fill="#7A2E9A"/>
<path d="M146.804 238.005L146.895 208.63L126.386 195.402L126.961 237.228" fill="#7A2E9A"/>
<path d="M225.999 220.048L220.385 216.702L214.767 220.048V234.257H225.999V220.048Z" fill="#F6DE7C"/>
<path d="M181.833 220.048L176.247 216.702L170.657 220.048V234.257H181.833V220.048Z" fill="#F6DE7C"/>
<path d="M79.475 220.048L73.8887 216.702L68.2988 220.048V234.257H79.475V220.048Z" fill="#F6DE7C"/>
<path d="M34.6408 218.811L28.5822 215.466L22.52 218.811V233.021H34.6408V218.811Z" fill="#F6DE7C"/>
<path d="M155.872 66.586L112.098 69.3819L97.6265 64.7426L141.401 52.9375L155.872 66.586Z" fill="black"/>
<path d="M106.759 59.0823V104.078L130.912 100.768L138.236 108.049L150.445 106.396V62.0578L131.723 49.1567L106.759 59.0823Z" fill="#752FA3"/>
<path d="M130.911 100.725V49.1567L141.4 57.1993V107.618L130.911 100.725Z" fill="#2C1444"/>
<path d="M150.444 237.283L141.4 237.211V57.1997L150.444 63.9412V237.283Z" fill="#1A152B"/>
<path d="M97.6265 64.7426L126.207 19.7397L141.401 55.8879L97.6265 64.7426Z" fill="#A02C91"/>
<path d="M126.207 19.7397L155.872 66.5861L141.401 55.8879L126.207 19.7397Z" fill="#1A152B"/>
<path d="M112.094 61.8134C112.094 61.8134 112.633 53.1097 122.227 40.8555C122.227 40.8555 127.736 41.2759 128.508 58.4965L112.094 61.8134Z" fill="#F6DE7C"/>
<path d="M122.227 40.8555C112.633 53.1097 112.094 61.8134 112.094 61.8134L116.496 60.9258C117.427 57.4472 119.756 51.3632 125.463 43.8813C123.855 41.0028 122.227 40.8555 122.227 40.8555Z" fill="#F79D52"/>
<path d="M106.759 103.636L130.821 100.614L141.401 108.671V238.005H106.759V103.636Z" fill="#752FA3"/>
<path d="M123.246 84.2523L115.358 85.2405V72.9683C115.358 70.6289 117.121 68.5123 119.302 68.2391C121.48 67.966 123.246 69.6407 123.246 71.9801V84.2523Z" fill="#F6DE7C"/>
<path d="M124.222 126.323L116.395 126.682V114.403C116.395 112.064 118.157 110.091 120.314 109.994C122.481 109.9 124.237 111.719 124.237 114.058L124.222 126.323Z" fill="#F6DE7C"/>
<path d="M123.444 171.099L115.602 171.44V159.172C115.602 156.829 117.364 154.859 119.524 154.762C121.688 154.669 123.444 156.487 123.444 158.827V171.099Z" fill="#F6DE7C"/>
<path d="M122.343 223.465L114.501 223.824V211.538C114.501 209.198 116.264 207.225 118.421 207.128C120.585 207.035 122.343 208.853 122.343 211.193V223.465Z" fill="#F6DE7C"/>
<path d="M130.82 94.4834V237.229H141.401V102.856L130.82 94.4834Z" fill="#2C1444"/>
<path d="M150.445 143.184L131.056 140.115L106.801 141.089L106.706 135.037L130.912 134.063L150.445 137.456V143.184Z" fill="#B92255"/>
<path d="M150.473 100.459L131.085 96.6465L106.829 97.6204L106.734 91.5651L130.82 90.5625L150.473 94.7275V100.459Z" fill="#B92255"/>
<path d="M150.378 192.061L130.989 188.618L106.734 189.595L106.639 183.54L130.859 181.797L150.378 186.332V192.061Z" fill="#B92255"/>
<path d="M97.415 63.6573L97.838 65.8243L141.147 57.0666L141.221 57.1205V54.7954L97.415 63.6573Z" fill="#B92255"/>
<path d="M156.51 65.6875L141.654 54.709L141.221 54.7952V57.1203L155.234 67.4807L156.51 65.6875Z" fill="#511F54"/>
<path d="M4.8125 233.703H71.5523L130.521 233.021V239.356L71.5523 242.31L4.8125 240.039V233.703Z" fill="#190428"/>
<path d="M130.521 233.021H197.26H256.528V238.005L197.26 241.627L130.521 239.356V233.021Z" fill="#190428"/>
<path d="M65.0178 123.725V139.759H64.4785V123.707" fill="#511F54"/>
<path d="M61.2574 129.226L69.5682 128.511V128.867L60.9966 129.733" fill="#511F54"/>
<path d="M61.2568 134.063L69.5676 133.333V134.063L61.2568 134.448" fill="#511F54"/>
<path d="M120.007 109.799V126.538H119.521V109.778" fill="#511F54"/>
<path d="M116.613 115.542L124.106 114.794V115.168L116.38 116.07" fill="#511F54"/>
<path d="M116.613 120.591L124.106 119.829V120.591L116.613 120.993" fill="#511F54"/>
<path d="M119.246 154.518V170.862H118.742V154.497" fill="#511F54"/>
<path d="M115.721 160.124L123.507 159.398V159.761L115.478 160.641" fill="#511F54"/>
<path d="M115.721 165.055L123.507 164.314V165.055L115.721 165.446" fill="#511F54"/>
<path d="M187.833 122.193V138.537H187.297V122.175" fill="#511F54"/>
<path d="M184.082 127.803L192.365 127.074V127.437L183.821 128.321" fill="#511F54"/>
<path d="M184.082 132.73L192.365 131.99V132.73L184.082 133.125" fill="#511F54"/>
<path d="M118.139 207.305V223.648H117.649V207.287" fill="#511F54"/>
<path d="M114.71 212.915L122.291 212.185V212.548L114.47 213.429" fill="#511F54"/>
<path d="M114.709 217.841L122.291 217.101V217.841L114.709 218.237" fill="#511F54"/>
<path d="M119.062 68.5626V84.9063H118.572V68.541" fill="#511F54"/>
<path d="M115.63 74.1683L123.211 73.4424V73.8053L115.394 74.6858" fill="#511F54"/>
<path d="M115.63 79.0992L123.211 78.3589V79.0992L115.63 79.4944" fill="#511F54"/>
<path d="M59.5689 89.5852L66.0081 90.2033L66.1385 88.0867L63.6538 87.6051L62.7233 67.8511L60.5381 87.4829H58.1133V89.5852" fill="#511F54"/>
<path d="M188.792 87.6556L195.234 88.2701L195.365 86.1534L192.876 85.6755L191.95 65.9214L189.764 85.5497H187.336V87.6556" fill="#511F54"/>
<path d="M123.634 21.7342L130.077 22.3522L130.207 20.2357L127.719 19.7541L126.788 0L124.603 19.6319H122.178V21.7342" fill="#511F54"/>
</svg>
