<svg width="526" height="771" viewBox="0 0 526 771" fill="none" xmlns="http://www.w3.org/2000/svg">
<path d="M123.532 773C122.415 773 55.6761 689.024 61.1711 626.858L73.5015 527.136L59.5405 484.098L62.1037 445.375L114.597 472.743L150.337 518.401L165.812 536.68L138.197 496.449L130.133 480.55L153.638 506.745L194.186 530.599L207.806 542.995L191.304 523.315L159.272 500.999L146.568 486.524L166.99 493.192L208.834 519.494L175.327 495.959L235.404 508.669L251.303 522.336L238.738 509.239L239.174 507.36L293.298 511.431L237.577 503.652L190.478 496.25L138.738 477.783L72.7141 439.584L109.633 444.749L151.471 476.695L135.796 455.625L179.823 483.238L139.252 451.406L75.3779 414.056L77.2933 375.989L143.636 389.57L122.415 379.029L143.078 368.5L118.685 373.5L78.2985 369.474L90.7405 339.02L174.35 331.68L431.635 323.491L185.614 320.485L260.026 277.896L182.168 306.431L145.87 326.361L85.8933 323.486L107.812 314.471L225.168 313.264L270.564 250.625L341.882 207.866L381.85 183.624L347.467 198.806L281.682 232.505L255.486 253.666L224.051 284.222L148.104 302.206L128 301.915L200.714 233.656L241.547 202.37L317.495 186.215L357.965 167.264L456.072 163.785L526 117.711L452.571 160.049L384.882 159.383L335.181 168.056L295.716 184.239L269.229 186.329L236.745 190.748L182.168 219.317L227.402 158.318L250.427 137.619L273.116 105.457L246.054 134.083L222.728 150.961L170.441 213.805L149.857 248.695L74.1437 297.041L133.243 213.765L200.34 168.432L233.545 109.403L195.571 164.639L188.311 161.792L220.036 115.228L204.506 84.9167L171.558 149.264L128.296 178.038L102.607 215.399L92.7565 230.888L99.7482 200.138L128.407 156.251L136.935 90.6111L119.718 152.732L90.5842 188.522L82.0624 176.409L105.562 143.82L116.831 100.861L99.5192 61L106.221 102L99.7929 136.007L79.1027 158.478L85.9547 129.852L92.4103 110.063L94.4933 88.3334L86.6751 105.986L73.2725 152.681L75.5063 178.875L67.6881 249.714L49.349 221.162L40.4139 146.138V228.417L51.471 254.611L9.83932 289.644L2.35064 294.552V307.439L16.3116 300.167L15.1948 312.125L2.35064 322.945L6.81816 335.473L7.57764 343.559L2.35064 350.278L14.0779 356.542L12.961 369.07L5.70128 374.195L12.4026 383.306L-1 582.612L2.35064 772.806" fill="black"/>
<path d="M343.299 86.8439L520.38 4.75585L428.164 39.8641L399.207 45.7999L354.461 63.2111L429.436 0L389.203 25.4354L340.863 69.0148L327.013 82.4838L283 107.414" fill="black"/>
<path d="M417.997 89.8899L409.052 86.0347C409.052 86.0347 407.537 85.3096 410.979 90.4899L412.2 93.1001C412.2 93.1001 413.377 93.0601 410.773 96.0552C410.773 96.0552 407.38 103.636 408.718 109.056C408.718 109.056 409.175 111.796 408.169 112.866C408.169 112.866 402.132 128.197 405.884 137.277C405.884 137.277 407.061 140.248 407.507 133.277C407.507 133.277 406.727 141.838 408.743 147.323C408.743 147.323 409.974 153.433 412.715 157.199C412.715 157.199 410.479 157.614 409.68 159.029C410.33 159.17 411.007 159.094 411.612 158.814C411.612 158.814 412.367 158.044 412.789 158.559C412.789 158.559 413.627 158.599 412.45 160.059C412.45 160.059 411.597 161.714 412.632 162.489C412.632 162.489 413.696 165.739 414.54 166.229C414.54 166.229 413.446 163.144 413.696 162.344C413.696 162.344 414.51 162.999 414.986 161.229C414.986 161.229 415.545 160.519 415.741 160.459L416.835 159.089C416.835 159.089 417.325 157.949 417.644 159.404C417.644 159.404 418.512 161.514 418.571 162.514C418.665 162.659 418.794 162.778 418.946 162.859C419.098 162.939 419.268 162.979 419.439 162.974C419.439 162.974 419.635 165.514 419.213 166.054C419.213 166.054 419.831 165.969 420.277 162.884L420.616 162.384L420.753 169.609C420.753 169.609 421.817 172.979 421.68 174.719L424.421 176.83L423.833 169.179L425.069 177.945C425.069 177.945 427.56 176.89 427.727 175.689C427.727 175.689 429.63 165.124 429.688 163.929C429.688 163.929 430.051 165.429 430.919 165.154C430.919 165.154 431.41 167.954 431.787 168.439C431.787 168.439 431.704 165.069 431.787 164.784C431.787 164.784 432.376 164.214 432.346 162.044C432.346 162.044 432.4 160.729 432.793 160.874C432.884 161.261 433.104 161.604 433.417 161.843C433.729 162.082 434.114 162.203 434.504 162.184C434.504 162.184 435.485 163.244 436.157 163.099C436.359 163.18 436.53 163.328 436.641 163.519C436.752 163.71 436.797 163.934 436.77 164.154C436.77 164.154 437.78 165.299 438.477 164.329L438.761 163.954L439.653 167.669C439.653 167.669 440.693 166.324 439.207 163.069C439.207 163.069 440.016 161.899 438.256 160.844C438.256 160.844 435.176 158.989 435.147 158.189C435.147 158.189 439.585 150.108 440.34 140.903C440.34 140.903 441.728 151.523 443.072 138.377C443.072 138.377 445.313 118.131 439.261 112.536L438.996 111.566L439.207 110.666C439.207 110.666 439.698 105.701 438.575 102.961L437.094 98.2703C437.094 98.2703 436.083 95.5702 438.226 92.53L440.409 87.8198C440.409 87.8198 441.669 86.0197 436.883 88.4198L430.247 91.115C430.247 91.115 422.98 89.0598 420.312 90.965L417.997 89.8899Z" fill="#010103"/>
<path d="M422.685 102.27C420.262 100.758 417.626 99.6331 414.868 98.9352C414.525 98.8452 414.648 101.125 414.672 101.34C414.729 101.96 414.926 102.557 415.249 103.084C415.572 103.612 416.011 104.056 416.531 104.381C417.237 104.723 418.043 104.785 418.792 104.556C419.248 104.411 422.578 102.185 422.685 102.27Z" fill="#F6DE7C"/>
<path d="M426.795 102.435C429.292 100.877 432.007 99.7187 434.848 99.0001C435.206 98.9101 435.074 101.255 435.049 101.5C434.99 102.138 434.787 102.753 434.455 103.298C434.123 103.842 433.672 104.3 433.136 104.635C432.408 104.987 431.578 105.05 430.807 104.81C430.356 104.655 426.928 102.365 426.795 102.435Z" fill="#F6DE7C"/>
<path d="M424.765 109.981C424.402 109.246 423.931 108.571 423.578 107.836C423.183 107.112 423.028 106.277 423.137 105.455C423.204 105.049 423.393 104.674 423.678 104.381C423.962 104.089 424.328 103.893 424.726 103.82C425.486 103.75 426.06 104.525 426.271 105.27C426.489 106.108 426.439 106.994 426.128 107.801C425.814 108.609 425.351 109.349 424.765 109.981Z" fill="#F6DE7C"/>
<path opacity="0.86" d="M439.855 87.1846C439.855 87.1846 433.313 94.42 435.132 96.7401C435.132 96.7401 436.726 103.83 436.726 104.666C436.726 104.666 437.746 110.046 437.319 111.586C437.28 111.977 437.327 112.372 437.457 112.743C437.586 113.113 437.796 113.449 438.07 113.726C438.07 113.726 443.533 119.296 441.723 144.263C441.723 144.263 445.416 127.657 441.037 115.871C441.037 115.871 439.717 113.371 438.992 112.681L438.545 111.681C438.545 111.681 439.119 110.346 438.889 106.601C438.889 106.601 438.938 104.661 437.417 100.575C437.417 100.575 435.539 96.4951 437.192 93.5749L440.031 87.8646C440.031 87.8646 440.581 87.3396 439.855 87.1846Z" fill="#871BC1"/>
<path d="M408.65 114.086C408.65 114.086 402.942 127.517 406.301 136.653C406.301 136.653 406.188 128.467 408.091 131.992C408.101 131.992 406.198 129.317 408.65 114.086Z" fill="#871BC1"/>
<path d="M409.445 86.7695L419.807 91.6198C419.807 91.6198 417.174 91.9648 416.781 92.4798C416.781 92.4598 415.776 90.7997 409.445 86.7695Z" fill="#871BC1"/>
</svg>
