<svg width="173" height="207" viewBox="0 0 173 207" fill="none" xmlns="http://www.w3.org/2000/svg">
<g clip-path="url(#clip0_2364_27799)">
<path d="M89.3849 75.5941C88.0361 74.9352 88.34 74.6816 88.34 74.6816L87.3694 75.0467C87.4294 75.3763 88.2369 76.3856 88.1012 77.6596C87.9082 79.45 88.6468 79.9947 89.07 80.0929C89.8388 80.2775 89.3362 78.9848 91.0343 77.9185C92.205 77.1832 92.2609 76.9886 89.3849 75.5941Z" fill="#F26973"/>
<path d="M81.2521 45.4003C91.4311 51.4826 95.0481 64.1855 89.3199 73.7893C83.5917 83.3931 70.6926 86.2525 60.5213 80.1687C50.35 74.0849 46.7198 61.3828 52.4533 51.7741C58.1867 42.1654 71.0656 39.3249 81.2521 45.4003Z" fill="#FA9330"/>
<path opacity="0.1" d="M63.6113 43.1236C69.0059 42.0599 74.6037 43.0446 79.313 45.8855C89.496 51.9633 93.109 64.6707 87.3786 74.2766C84.8649 78.4542 80.8766 81.5367 76.2012 82.9155C78.9029 82.395 81.465 81.3122 83.7213 79.7375C85.9777 78.1627 87.878 76.131 89.2989 73.7742C95.0248 64.1759 91.4071 51.4696 81.2333 45.3823C78.6144 43.8002 75.6944 42.7821 72.6601 42.3931C69.6257 42.0042 66.5438 42.253 63.6113 43.1236V43.1236Z" fill="#F286B6"/>
<path d="M82.7357 116.716C81.3207 115.07 81.0964 115.592 81.0964 115.592L81.247 114.112C81.7282 114.075 83.4194 114.828 85.1396 114.173C87.5502 113.255 88.5957 114.066 88.8629 114.636C89.3966 115.651 87.427 115.41 86.5662 118.152C85.969 120.055 85.7336 120.203 82.7357 116.716Z" fill="#F494BE"/>
<path d="M37.8252 116.486C49.9751 128.412 68.9277 128.796 80.1699 117.35C91.4121 105.905 90.6593 86.9445 78.5033 75.0117C66.3472 63.0789 47.3984 62.6978 36.1586 74.147C24.9188 85.5963 25.6737 104.559 37.8252 116.486Z" fill="#FD8E39"/>
<path d="M37.8252 116.486C49.9751 128.412 68.9277 128.796 80.1699 117.35C91.4121 105.905 90.6593 86.9445 78.5033 75.0117C66.3472 63.0789 47.3984 62.6978 36.1586 74.147C24.9188 85.5963 25.6737 104.559 37.8252 116.486Z" fill="white" fill-opacity="0.5"/>
<path opacity="0.1" d="M54.6689 65.8583C62.5569 66.194 70.037 69.4601 75.6476 75.0185C87.7977 86.9511 88.5419 105.902 77.3111 117.361C72.3967 122.34 65.7951 125.295 58.8085 125.644C62.7549 125.835 66.697 125.193 70.3791 123.761C74.0612 122.329 77.4009 120.138 80.1815 117.331C91.4108 105.875 90.6709 86.9239 78.5149 74.9911C75.3951 71.8909 71.6623 69.477 67.5558 67.9043C63.4493 66.3315 59.0599 65.6346 54.6689 65.8583V65.8583Z" fill="#F38CB9"/>
<g opacity="0.3">
<path opacity="0.3" d="M34.4683 100.126C33.2962 100.198 32.1742 100.603 32.1099 101.808C31.9904 103.983 33.0941 105.605 35.4079 105.222C36.6615 105.015 38.0289 104.166 38.1787 102.824C38.3059 101.634 37.7676 100.526 36.547 100.282C35.863 100.146 35.165 100.094 34.4683 100.126Z" fill="white"/>
</g>
<path d="M113.112 66.3152C112.208 64.7848 112.671 64.7215 112.671 64.7215L111.462 64.4483C111.31 64.8155 111.455 66.3497 110.479 67.5295C109.113 69.1819 109.5 70.2211 109.85 70.584C110.5 71.2825 110.839 69.6615 113.229 69.7122C114.88 69.7474 115.056 69.5924 113.112 66.3152Z" fill="white"/>
<path d="M124.841 30.9215C130.996 43.6604 126.245 58.677 114.267 64.5023C102.288 70.3275 87.5466 64.6746 81.3941 51.9329C75.2417 39.1912 79.9757 24.1611 91.9677 18.3513C103.96 12.5414 118.673 18.1707 124.841 30.9215Z" fill="white"/>
<path opacity="0.1" d="M108.752 17.0619C114.825 19.544 119.753 24.203 122.574 30.1275C128.731 42.8672 123.978 57.8838 112 63.7082C106.759 66.2226 100.765 66.6796 95.2028 64.9889C98.2357 66.2463 101.499 66.852 104.78 66.7666C108.062 66.6811 111.289 65.9065 114.251 64.493C126.255 58.6921 131.002 43.651 124.827 30.9106C123.261 27.6088 121.022 24.6711 118.253 22.2862C115.485 19.9012 112.249 18.1217 108.752 17.0619V17.0619Z" fill="#F6AFCE"/>
<path d="M121.695 87.7594C120.628 86.3336 121.086 86.2271 121.086 86.2271L119.866 86.0865C119.754 86.4693 120.058 87.972 119.235 89.228C118.056 91.012 118.541 91.9903 118.933 92.3236C119.659 92.9352 119.817 91.2992 122.172 91.0843C123.808 90.971 123.972 90.8016 121.695 87.7594Z" fill="#F494BE"/>
<path d="M129.536 51.4688C136.977 63.4303 133.877 78.8079 122.603 85.809C111.328 92.8101 96.1719 88.8126 88.7336 76.8542C81.2954 64.8957 84.3911 49.5129 95.6668 42.514C106.942 35.515 122.107 39.5077 129.536 51.4688Z" fill="#FEC79C"/>
<path opacity="0.1" d="M112.172 39.4616C118.444 41.2748 123.815 45.3615 127.238 50.9238C134.676 62.8822 131.58 78.2659 120.3 85.2651C115.38 88.3099 109.497 89.3985 103.813 88.316C106.948 89.2388 110.242 89.4919 113.481 89.0589C116.721 88.626 119.833 87.5165 122.615 85.8027C133.873 78.7975 136.978 63.4117 129.548 51.4625C127.647 48.3616 125.119 45.6922 122.127 43.6256C119.135 41.559 115.744 40.1406 112.172 39.4616V39.4616Z" fill="#F38CB9"/>
<g opacity="0.3">
<path opacity="0.3" d="M96.3138 43.9815C96.029 44.0576 95.7526 44.1488 95.5029 44.2432C93.502 44.9659 91.9899 46.5945 90.6664 48.1906C89.199 49.8414 88.1466 51.8186 87.5965 53.9581C87.2646 55.2147 87.1031 56.5102 87.1164 57.8098C87.1576 59.5983 88.0297 62.1897 90.0506 62.6599C90.6288 62.7719 91.227 62.7153 91.7739 62.4968C92.3208 62.2783 92.7934 61.9072 93.1355 61.4276C93.9601 60.4036 93.8888 59.4075 93.9259 58.1646C93.9459 57.4161 93.9205 56.6631 94.0144 55.9232C94.242 54.1749 95.3108 52.9357 96.6025 51.8148C97.8331 50.7749 99.2896 49.838 99.9817 48.3207C100.511 47.151 100.647 45.4707 99.6915 44.4728C98.8264 43.5792 97.4729 43.672 96.3138 43.9815Z" fill="white"/>
</g>
<g opacity="0.3">
<path opacity="0.3" d="M89.2446 63.0602C88.2869 62.8911 87.3071 62.998 87.0186 63.9489C86.4953 65.6722 87.0745 67.1915 88.9977 67.347C90.0477 67.4242 91.3159 67.0073 91.6923 65.9563C91.892 65.5344 91.9184 65.051 91.7659 64.6099C91.6135 64.1687 91.2943 63.8048 90.8769 63.5963C90.3566 63.3513 89.8083 63.1708 89.2443 63.0589L89.2446 63.0602Z" fill="white"/>
</g>
<path d="M147.544 165.935L147.392 166.077C134.227 150.669 129.039 140.643 127.028 134.925C124.816 128.731 125.749 126.194 125.787 126.088L125.983 126.166C125.983 126.166 125.052 128.749 127.241 134.905C129.256 140.583 134.422 150.585 147.544 165.935Z" fill="#FDEAF2"/>
<path d="M153.631 169.362L153.478 169.504C133.762 145.113 111.89 133.949 111.675 133.839L111.767 133.652C111.969 133.76 133.886 144.934 153.631 169.362Z" fill="#FDEAF2"/>
<path d="M147.711 166.825L147.518 166.904C141.936 152.867 107.406 122.955 107.058 122.651L107.21 122.509C107.538 122.791 142.095 152.749 147.711 166.825Z" fill="#FDEAF2"/>
<path d="M151.412 167.655L151.259 167.797C151.017 167.537 127.388 141.089 118.409 143.847C109.342 146.646 95.9693 141.328 95.8489 141.262L95.9266 141.065C96.0563 141.122 109.364 146.412 118.359 143.634C122.178 142.446 128.917 146.136 138.363 154.586C142.929 158.721 147.284 163.083 151.412 167.656L151.412 167.655Z" fill="#FDEAF2"/>
<path d="M149.509 166.335C138.885 155.998 129.976 144.033 123.119 130.889C118.249 121.395 116.603 114.981 116.58 114.925L116.78 114.875C116.797 114.937 118.446 121.329 123.308 130.796C130.158 143.917 139.055 155.861 149.665 166.178L149.509 166.335Z" fill="#FDEAF2"/>
<path d="M150.111 167.07L149.959 167.211C138.827 152.253 121.243 138.192 108.465 129.021C94.6044 119.098 83.2355 112.625 83.1207 112.559L83.2255 112.379C83.3417 112.442 94.7156 118.918 108.584 128.851C121.353 138.011 138.961 152.087 150.111 167.07Z" fill="#FDEAF2"/>
<path d="M146.865 162.661C134.066 150.194 123.632 130.416 117.13 116.031C112.914 106.723 109.19 97.1998 105.974 87.5009L106.176 87.4373C109.382 97.1311 113.1 106.648 117.314 115.948C123.808 130.323 134.232 150.069 146.998 162.518L146.865 162.661Z" fill="#FDEAF2"/>
<path d="M140.311 155.221L139.696 155.794C139.428 156.044 139.072 156.177 138.706 156.165C138.34 156.153 137.994 155.996 137.743 155.729C137.619 155.596 137.522 155.44 137.459 155.27C137.395 155.099 137.366 154.918 137.373 154.737C137.38 154.555 137.423 154.376 137.499 154.211C137.574 154.046 137.682 153.898 137.816 153.775L138.433 153.2C138.565 153.075 138.72 152.979 138.89 152.915C139.06 152.851 139.241 152.822 139.422 152.828C139.603 152.835 139.781 152.877 139.946 152.952C140.111 153.028 140.259 153.136 140.382 153.269C140.632 153.537 140.765 153.893 140.752 154.258C140.739 154.624 140.581 154.97 140.314 155.219L140.311 155.221Z" fill="#FFFDFE"/>
<path d="M105.923 110.529C104.831 109.542 105.186 109.384 105.186 109.384L104.171 109.463C104.14 109.789 104.625 110.963 104.143 112.126C103.475 113.76 104.023 114.478 104.393 114.684C105.08 115.07 104.948 113.716 106.846 113.175C108.151 112.801 108.249 112.639 105.923 110.529Z" fill="#F26973"/>
<path d="M106.53 79.8135C114.472 88.3421 114.399 101.323 106.367 108.809C98.336 116.295 85.391 115.448 77.4484 106.92C69.5057 98.3913 69.5849 85.4223 77.6159 77.9368C85.6469 70.4512 98.5901 71.2881 106.53 79.8135Z" fill="#FA9330"/>
<path opacity="0.1" d="M90.5141 72.8281C95.8949 73.3022 100.906 75.7682 104.566 79.7434C112.508 88.2719 112.438 101.25 104.407 108.736C100.895 111.99 96.2913 113.809 91.5039 113.835C94.1973 114.087 96.9132 113.768 99.4753 112.901C102.037 112.033 104.388 110.636 106.375 108.8C114.406 101.315 114.48 88.333 106.537 79.8045C104.5 77.5881 102.022 75.8224 99.2629 74.6209C96.5034 73.4195 93.5233 72.8088 90.5141 72.8281Z" fill="#F286B6"/>
<g opacity="0.3">
<path opacity="0.3" d="M78.3585 79.0232C78.1421 79.1286 77.9292 79.2438 77.741 79.36C76.2254 80.2785 75.267 81.8308 74.4442 83.3342C73.5133 84.9076 72.9729 86.6812 72.8682 88.5066C72.7956 89.5796 72.8693 90.6575 73.0874 91.7106C73.4053 93.158 74.5212 95.1201 76.2391 95.1835C76.7265 95.1823 77.2033 95.041 77.6126 94.7762C78.0219 94.5115 78.3465 94.1346 78.5477 93.6905C79.0598 92.7189 78.8401 91.9296 78.673 90.9165C78.5719 90.3048 78.4304 89.7012 78.3879 89.0827C78.2922 87.6299 78.9569 86.4412 79.8496 85.3479C80.6685 84.3177 81.7165 83.317 82.0402 81.9716C82.2757 80.9515 82.1446 79.5375 81.1912 78.8958C80.3354 78.2941 79.2537 78.5842 78.3585 79.0232Z" fill="white"/>
</g>
<g opacity="0.3">
<path opacity="0.3" d="M75.6499 95.6358C74.8482 95.6475 74.0841 95.9091 73.9849 96.7132C73.8374 98.1974 74.5464 99.3396 76.136 99.1503C76.9994 99.0457 77.9635 98.5029 78.1061 97.5924C78.201 97.2175 78.1455 96.8203 77.9514 96.4859C77.7573 96.1514 77.4401 95.9062 77.0675 95.8028C76.6037 95.6889 76.1275 95.6328 75.6499 95.6358Z" fill="white"/>
</g>
<path d="M100.577 144.305C99.5052 143.193 99.3538 143.571 99.3538 143.571L99.4068 142.501C99.7459 142.458 100.991 142.929 102.197 142.392C103.877 141.65 104.663 142.187 104.891 142.573C105.309 143.287 103.891 143.185 103.368 145.18C103.029 146.575 102.865 146.686 100.577 144.305Z" fill="white"/>
<path d="M68.337 145.924C77.5293 154.006 91.1504 153.528 98.7566 144.856C106.363 136.183 105.079 122.616 95.8841 114.536C86.6896 106.456 73.0704 106.938 65.4645 115.606C57.8586 124.273 59.1415 137.852 68.337 145.924Z" fill="white"/>
<path opacity="0.1" d="M78.4143 108.923C84.0888 108.852 89.5866 110.898 93.8346 114.664C103.026 122.746 104.322 136.325 96.7071 144.983C93.3803 148.755 88.7594 151.14 83.7586 151.666C86.5961 151.645 89.3976 151.029 91.9814 149.856C94.5652 148.683 96.8738 146.98 98.7574 144.857C106.363 136.19 105.078 122.622 95.8845 114.538C93.5234 112.437 90.7499 110.853 87.7415 109.886C84.7332 108.919 81.5563 108.591 78.4143 108.923V108.923Z" fill="#F6AFCE"/>
<g opacity="0.3">
<path opacity="0.3" d="M66.3759 116.663C66.1597 116.8 65.9535 116.942 65.7656 117.084C64.2844 118.186 63.4375 119.924 62.7382 121.586C61.9333 123.327 61.5541 125.235 61.632 127.152C61.672 128.282 61.8627 129.4 62.1989 130.479C62.6838 131.954 64.0573 133.889 65.8603 133.774C66.3695 133.721 66.8529 133.523 67.2531 133.204C67.6533 132.884 67.9535 132.457 68.118 131.972C68.5482 130.906 68.2276 130.091 67.9555 129.057C67.7543 128.432 67.5863 127.796 67.4521 127.154C67.1998 125.645 67.7789 124.322 68.5717 123.091C69.3345 121.912 70.3079 120.767 70.5019 119.329C70.6577 118.224 70.3396 116.794 69.2957 116.207C68.3515 115.705 67.2478 116.123 66.3759 116.663Z" fill="white"/>
</g>
<g opacity="0.3">
<path opacity="0.3" d="M65.2763 134.324C64.4422 134.419 63.6537 134.756 63.6534 135.622C63.6531 137.187 64.5103 138.305 66.1594 137.943C67.0456 137.745 67.9975 137.078 68.0505 136.109C68.1076 135.706 68.0061 135.295 67.7671 134.965C67.5281 134.635 67.1704 134.41 66.7692 134.338C66.2739 134.274 65.7727 134.269 65.2763 134.324Z" fill="white"/>
</g>
<path d="M126.517 134.256C125.425 132.787 125.894 132.68 125.894 132.68L124.638 132.533C124.516 132.924 124.833 134.468 123.97 135.776C122.758 137.612 123.255 138.62 123.664 138.96C124.407 139.586 124.567 137.907 127.009 137.701C128.693 137.555 128.856 137.38 126.517 134.256Z" fill="#F494BE"/>
<path d="M134.598 96.9157C142.252 109.222 139.062 125.046 127.476 132.262C115.89 139.478 100.287 135.35 92.6276 123.045C84.9685 110.741 88.1629 94.9149 99.7497 87.6985C111.336 80.482 126.938 84.6113 134.598 96.9157Z" fill="#FEC79C"/>
<path opacity="0.1" d="M116.72 84.5618C123.175 86.4274 128.702 90.6352 132.22 96.3618C139.879 108.664 136.689 124.488 125.098 131.702C120.036 134.836 113.982 135.956 108.134 134.839C111.358 135.785 114.745 136.044 118.075 135.596C121.405 135.149 124.604 134.007 127.464 132.243C139.04 125.012 142.239 109.201 134.586 96.8965C132.63 93.7099 130.031 90.9668 126.954 88.8428C123.878 86.7188 120.392 85.2607 116.72 84.5618V84.5618Z" fill="#F38CB9"/>
<g opacity="0.3">
<path opacity="0.3" d="M100.404 89.2126C100.11 89.2909 99.83 89.3859 99.5688 89.4811C97.5056 90.2182 95.9573 91.9044 94.5867 93.5321C93.0728 95.2259 91.9847 97.2567 91.4128 99.4558C91.0693 100.749 90.9025 102.082 90.9169 103.42C90.9624 105.255 91.8561 107.921 93.9355 108.403C94.5306 108.518 95.1464 108.46 95.7094 108.235C96.2724 108.01 96.7587 107.628 97.1102 107.133C97.9673 106.073 97.8903 105.054 97.9253 103.776C97.9464 103.009 97.9184 102.235 98.016 101.473C98.2453 99.6763 99.3381 98.3841 100.679 97.2475C101.944 96.1751 103.442 95.2112 104.154 93.6523C104.7 92.45 104.837 90.7203 103.855 89.6967C102.986 88.7978 101.587 88.9044 100.404 89.2126Z" fill="white"/>
</g>
<g opacity="0.3">
<path opacity="0.3" d="M93.1317 108.841C92.1444 108.665 91.1386 108.772 90.84 109.756C90.3047 111.53 90.8972 113.095 92.8963 113.237C93.9739 113.318 95.2745 112.888 95.6673 111.807C95.8738 111.373 95.9015 110.875 95.7444 110.421C95.5873 109.966 95.258 109.592 94.8274 109.378C94.2869 109.129 93.7172 108.948 93.1317 108.841Z" fill="white"/>
</g>
</g>
<defs>
<clipPath id="clip0_2364_27799">
<rect width="131" height="179" fill="white" transform="translate(0.0673828 33.9053) rotate(-15)"/>
</clipPath>
</defs>
</svg>
