<!-- Generated by IcoMoon.io -->
<svg version="1.1" xmlns="http://www.w3.org/2000/svg" width="61" height="32" viewBox="0 0 61 32">
<title>bigger-group-gift</title>
<path fill="#0a1f44" opacity="0.2" d="M6.681 21.758c-0 0.081 0.016 0.16 0.047 0.235s0.076 0.142 0.133 0.199c0.057 0.057 0.125 0.102 0.2 0.133s0.155 0.047 0.235 0.047h13.716c0.163 0 0.32-0.065 0.435-0.18s0.18-0.271 0.18-0.434c0-0.163-0.065-0.319-0.18-0.434s-0.272-0.18-0.435-0.18h-13.716c-0.081-0-0.161 0.016-0.235 0.047s-0.142 0.076-0.2 0.133c-0.057 0.057-0.102 0.125-0.133 0.199s-0.047 0.154-0.047 0.235z"></path>
<path fill="#0a1f44" opacity="0.2" d="M33.398 23.439c0 0.081 0.016 0.16 0.047 0.235s0.076 0.142 0.133 0.199c0.057 0.057 0.125 0.102 0.2 0.133s0.155 0.047 0.236 0.047h13.716c0.163 0 0.32-0.065 0.435-0.18s0.18-0.271 0.18-0.434c0-0.163-0.065-0.319-0.18-0.434s-0.272-0.18-0.435-0.18h-13.716c-0.163 0-0.32 0.065-0.435 0.18s-0.18 0.271-0.18 0.434v0z"></path>
<path fill="#0a1f44" opacity="0.2" d="M15.022 20.031c-0 0.081 0.016 0.16 0.047 0.235s0.076 0.142 0.133 0.199c0.057 0.057 0.125 0.102 0.2 0.133s0.155 0.047 0.236 0.047h13.716c0.081 0 0.161-0.016 0.235-0.047s0.143-0.076 0.2-0.133c0.057-0.057 0.102-0.125 0.133-0.199s0.047-0.154 0.047-0.235v0c0-0.163-0.065-0.319-0.18-0.434s-0.272-0.18-0.435-0.18h-13.716c-0.163 0-0.319 0.065-0.435 0.18s-0.18 0.271-0.18 0.434v0z"></path>
<path fill="#0a1f44" opacity="0.2" d="M10.117 20.031c-0 0.081 0.016 0.161 0.047 0.235s0.076 0.142 0.133 0.199c0.057 0.057 0.125 0.102 0.2 0.133s0.155 0.047 0.236 0.047h1.664c0.163-0 0.32-0.065 0.435-0.18s0.18-0.271 0.18-0.434v0c0-0.163-0.065-0.319-0.18-0.434s-0.272-0.18-0.435-0.18h-1.664c-0.163 0-0.32 0.065-0.435 0.18s-0.18 0.271-0.18 0.434l-0.001-0z"></path>
<path fill="#0a1f44" opacity="0.2" d="M11.304 26.918c0 0.081 0.016 0.16 0.047 0.235s0.076 0.142 0.133 0.199 0.125 0.102 0.2 0.133c0.075 0.031 0.155 0.047 0.235 0.047h1.664c0.081 0 0.161-0.016 0.235-0.047s0.143-0.076 0.2-0.133c0.057-0.057 0.102-0.125 0.133-0.199s0.047-0.154 0.047-0.235v0c0-0.163-0.065-0.319-0.18-0.434s-0.272-0.18-0.435-0.18h-1.664c-0.163 0-0.32 0.065-0.435 0.18s-0.18 0.271-0.18 0.434v0z"></path>
<path fill="#0a1f44" opacity="0.2" d="M45.093 25.083c0 0.081-0.016 0.16-0.047 0.235s-0.076 0.142-0.133 0.199c-0.057 0.057-0.125 0.102-0.2 0.133s-0.155 0.047-0.235 0.047h-13.716c-0.081 0-0.161-0.016-0.235-0.047s-0.142-0.076-0.2-0.133c-0.057-0.057-0.102-0.125-0.133-0.199s-0.047-0.154-0.047-0.235c0-0.081 0.016-0.16 0.047-0.235s0.076-0.142 0.133-0.199c0.057-0.057 0.125-0.102 0.2-0.133s0.155-0.047 0.235-0.047h13.716c0.081 0 0.161 0.016 0.235 0.047s0.142 0.076 0.2 0.133c0.057 0.057 0.102 0.125 0.133 0.199s0.047 0.154 0.047 0.235z"></path>
<path fill="#0a1f44" opacity="0.2" d="M49.231 25.178c0 0.081-0.016 0.16-0.047 0.235s-0.076 0.142-0.133 0.199c-0.057 0.057-0.125 0.102-0.2 0.133s-0.155 0.047-0.236 0.047h-1.664c-0.081 0-0.161-0.016-0.235-0.047s-0.142-0.076-0.2-0.133c-0.057-0.057-0.102-0.125-0.133-0.199s-0.047-0.154-0.047-0.235v0c0-0.081 0.016-0.16 0.047-0.235s0.076-0.142 0.133-0.199c0.057-0.057 0.125-0.102 0.2-0.133s0.155-0.047 0.235-0.047h1.664c0.163 0 0.32 0.065 0.435 0.18s0.18 0.271 0.18 0.434v0z"></path>
<path fill="#0a1f44" opacity="0.2" d="M12.796 22.179c0 0.205-0.061 0.405-0.175 0.575s-0.276 0.303-0.465 0.381c-0.19 0.078-0.398 0.099-0.599 0.059s-0.386-0.138-0.531-0.283-0.244-0.329-0.284-0.53c-0.040-0.201-0.019-0.409 0.059-0.598s0.211-0.351 0.382-0.464c0.171-0.114 0.371-0.174 0.576-0.174 0.275 0 0.539 0.109 0.733 0.303s0.304 0.457 0.304 0.731v0z"></path>
<path fill="#0a1f44" opacity="0.2" d="M13.671 19.329c0 0.275-0.082 0.544-0.235 0.773s-0.371 0.407-0.626 0.513-0.535 0.133-0.806 0.079c-0.271-0.054-0.519-0.186-0.714-0.381s-0.328-0.442-0.382-0.712c-0.054-0.27-0.026-0.55 0.079-0.804s0.284-0.472 0.514-0.624c0.229-0.153 0.499-0.235 0.775-0.234 0.37 0 0.725 0.147 0.986 0.407s0.409 0.615 0.409 0.984v0z"></path>
<path fill="#0a1f44" opacity="0.2" d="M34.668 16.772c0 0.163-0.065 0.319-0.18 0.434s-0.272 0.18-0.435 0.18h-1.664c-0.081 0-0.161-0.016-0.235-0.047s-0.143-0.076-0.2-0.133c-0.057-0.057-0.102-0.125-0.133-0.199s-0.047-0.154-0.047-0.235c0-0.163 0.065-0.319 0.18-0.434s0.272-0.18 0.435-0.18h1.664c0.163 0 0.32 0.065 0.435 0.18s0.18 0.271 0.18 0.434v0z"></path>
<path fill="#0a1f44" opacity="0.2" d="M31.114 16.070c0 0.275 0.082 0.544 0.235 0.773s0.371 0.407 0.626 0.512c0.255 0.105 0.535 0.133 0.806 0.079s0.519-0.186 0.714-0.381c0.195-0.194 0.328-0.442 0.382-0.712s0.026-0.55-0.079-0.804c-0.105-0.254-0.284-0.472-0.513-0.625s-0.499-0.235-0.775-0.235c-0.183 0-0.365 0.036-0.534 0.106s-0.323 0.172-0.453 0.302c-0.13 0.129-0.232 0.283-0.303 0.452s-0.106 0.35-0.106 0.533v0z"></path>
<path fill="#0a1f44" opacity="0.2" d="M47.104 23.018c0 0.205-0.061 0.405-0.175 0.575s-0.276 0.303-0.465 0.381c-0.189 0.078-0.398 0.099-0.599 0.059s-0.386-0.138-0.531-0.283c-0.145-0.145-0.244-0.329-0.284-0.53s-0.019-0.409 0.059-0.598c0.078-0.189 0.211-0.351 0.382-0.464s0.371-0.174 0.576-0.174c0.275 0 0.539 0.109 0.733 0.303s0.304 0.457 0.304 0.732v0z"></path>
<path fill="#0a1f44" opacity="0.2" d="M45.551 22.331c0 0.34-0.101 0.672-0.29 0.955s-0.458 0.503-0.773 0.633c-0.315 0.13-0.661 0.164-0.995 0.098s-0.641-0.23-0.882-0.47c-0.241-0.24-0.405-0.547-0.472-0.88s-0.032-0.679 0.098-0.993c0.13-0.314 0.351-0.583 0.635-0.771s0.616-0.29 0.957-0.29c0.457 0 0.895 0.181 1.218 0.503s0.505 0.759 0.505 1.215v0z"></path>
<path fill="#0a1f44" opacity="0.2" d="M40.114 23.912c1.467-0.023 2.638-1.229 2.614-2.693s-1.232-2.632-2.7-2.608c-1.467 0.024-2.638 1.229-2.614 2.693s1.232 2.632 2.7 2.608z"></path>
<path fill="#0a1f44" opacity="0.2" d="M37.33 23.356c1.232-1.229 1.232-3.221 0-4.45s-3.229-1.229-4.46 0c-1.232 1.229-1.232 3.221 0 4.45s3.229 1.229 4.46 0z"></path>
<path fill="#0a1f44" opacity="0.2" d="M43.18 26.188c0 0.34-0.101 0.672-0.29 0.955s-0.458 0.503-0.773 0.633-0.661 0.164-0.995 0.098c-0.334-0.066-0.641-0.23-0.882-0.47s-0.405-0.547-0.471-0.88-0.032-0.679 0.098-0.993c0.13-0.314 0.351-0.582 0.635-0.771s0.616-0.29 0.957-0.29c0.457 0 0.895 0.181 1.218 0.503s0.505 0.759 0.505 1.215v0z"></path>
<path fill="#0a1f44" opacity="0.2" d="M15.596 23.213c0 0.34-0.101 0.672-0.29 0.955s-0.458 0.503-0.773 0.633c-0.315 0.13-0.661 0.164-0.995 0.098s-0.641-0.23-0.882-0.47c-0.241-0.24-0.405-0.547-0.472-0.88s-0.032-0.679 0.098-0.993c0.13-0.314 0.351-0.582 0.634-0.771s0.616-0.29 0.957-0.29c0.457 0 0.895 0.181 1.218 0.503s0.505 0.759 0.505 1.215v0z"></path>
<path fill="#0a1f44" opacity="0.2" d="M21.069 25.237c0.132-1.728-1.166-3.236-2.899-3.367s-3.243 1.164-3.375 2.892c-0.132 1.728 1.166 3.236 2.899 3.367s3.243-1.163 3.375-2.892z"></path>
<path fill="#0a1f44" opacity="0.2" d="M21.29 17.937c0 0.471-0.14 0.932-0.402 1.324s-0.635 0.697-1.072 0.877c-0.436 0.18-0.916 0.228-1.38 0.136s-0.889-0.319-1.223-0.652c-0.334-0.333-0.561-0.758-0.653-1.22s-0.045-0.941 0.136-1.377c0.181-0.435 0.487-0.807 0.88-1.069s0.854-0.401 1.327-0.401c0.633 0 1.241 0.251 1.689 0.698s0.699 1.053 0.699 1.684v0z"></path>
<path fill="#0a1f44" opacity="0.2" d="M25.995 17.453c0.141-1.718-1.14-3.225-2.862-3.366s-3.233 1.138-3.374 2.856 1.14 3.225 2.863 3.366c1.722 0.141 3.233-1.138 3.374-2.856z"></path>
<path fill="#0a1f44" opacity="0.2" d="M17.75 19.206c0 0.22-0.065 0.435-0.188 0.619s-0.297 0.326-0.501 0.41c-0.204 0.084-0.428 0.106-0.645 0.064s-0.415-0.149-0.571-0.305c-0.156-0.156-0.262-0.354-0.305-0.57s-0.021-0.44 0.063-0.643c0.085-0.203 0.228-0.377 0.411-0.5s0.399-0.188 0.62-0.188c0.296 0 0.58 0.117 0.789 0.326s0.327 0.492 0.327 0.787v0z"></path>
<path fill="#fff" d="M11.369 7.21l5.276-2.639-5.826 2.251 0.471 0.135 0.079 0.253z"></path>
<path fill="#231f20" opacity="0.2" d="M11.29 6.957l5.355-2.386-5.276 2.639-0.079-0.253z"></path>
<path fill="#fff" d="M11.369 7.21l5.276-2.639-4.759 3.654-0.517-1.015z"></path>
<path fill="#231f20" opacity="0.2" d="M11.369 7.21l5.276-2.639-4.492 3.448-0.784-0.809z"></path>
<path fill="#fff" d="M11.369 7.21l5.276-2.639-3.499 3.66-1.777-1.022z"></path>
<path fill="#fff" d="M6.507 11.496c0.558 0.207 1.084 0.503 1.668 0.643 0.353 0.085 0.677 0.057 1.026-0.030 0.64-0.159 1.419-0.483 1.805-1.043 0.337-0.489 0.073-1.197-0.526-1.333-0.468-0.106-0.768 0.389-0.787 0.785-0.039 0.823 0.962 0.962 1.571 0.781 0.974-0.291 1.022-1.616 0.901-2.425-0.021-0.14-0.244-0.128-0.223 0.012 0.114 0.752 0.103 1.95-0.798 2.219-0.55 0.165-1.376-0.037-1.201-0.75 0.043-0.18 0.179-0.378 0.377-0.408 0.286-0.043 0.541 0.267 0.615 0.506 0.097 0.309-0.168 0.599-0.386 0.778-0.293 0.241-0.648 0.409-1.003 0.54-0.32 0.119-0.683 0.23-1.030 0.2-0.678-0.058-1.28-0.441-1.905-0.672-0.133-0.049-0.236 0.147-0.102 0.197l-0.002-0.002z"></path>
<path fill="#fa4a0c" d="M34.524 0.199l-0.193 3.498-0.193-3.498c-0-0.050 0.018-0.098 0.053-0.135s0.081-0.058 0.13-0.061c0.050-0.003 0.098 0.014 0.136 0.046s0.062 0.078 0.067 0.128c0 0.007 0 0.014 0 0.022z"></path>
<path fill="#fa4a0c" d="M34.523 10.315l-0.193-3.498-0.193 3.498c-0.003 0.026-0 0.053 0.008 0.078s0.020 0.049 0.038 0.069c0.017 0.020 0.038 0.036 0.061 0.048s0.049 0.018 0.075 0.020c0.026 0.001 0.052-0.002 0.077-0.011s0.047-0.023 0.066-0.041c0.019-0.018 0.034-0.040 0.045-0.064s0.016-0.050 0.016-0.077c0-0.007 0-0.014 0-0.022z"></path>
<path fill="#fa4a0c" d="M38.025 1.817l-2.6 2.337 2.325-2.612c0.017-0.020 0.037-0.036 0.060-0.048s0.048-0.019 0.074-0.020c0.026-0.002 0.052 0.002 0.076 0.010s0.047 0.022 0.066 0.039 0.035 0.038 0.046 0.062c0.011 0.023 0.017 0.049 0.019 0.075s-0.003 0.052-0.012 0.076c-0.009 0.024-0.023 0.047-0.040 0.066l-0.014 0.016z"></path>
<path fill="#fa4a0c" d="M30.905 8.971l2.325-2.612-2.6 2.336c-0.019 0.017-0.034 0.038-0.045 0.061s-0.018 0.048-0.019 0.073 0.002 0.051 0.011 0.075c0.008 0.024 0.021 0.046 0.038 0.065s0.037 0.035 0.060 0.046c0.023 0.011 0.048 0.018 0.073 0.019s0.051-0.002 0.075-0.011 0.046-0.021 0.065-0.039c0.006-0.004 0.012-0.009 0.017-0.014z"></path>
<path fill="#fa4a0c" d="M39.363 5.451l-3.482-0.194 3.482-0.194c0.051-0.003 0.101 0.015 0.14 0.049s0.061 0.083 0.064 0.134c0.003 0.051-0.015 0.102-0.049 0.14s-0.082 0.062-0.133 0.064c-0.007 0-0.014 0-0.022 0z"></path>
<path fill="#fa4a0c" d="M29.294 5.451l3.481-0.194-3.481-0.194c-0.051-0.003-0.101 0.015-0.14 0.049s-0.061 0.083-0.064 0.134c-0.003 0.051 0.015 0.102 0.049 0.14s0.082 0.062 0.133 0.064c0.007 0 0.014 0 0.022 0z"></path>
<path fill="#fa4a0c" d="M37.789 8.936l-2.352-2.587 2.622 2.311c0.035 0.035 0.055 0.082 0.056 0.131s-0.016 0.097-0.048 0.134-0.078 0.060-0.126 0.065c-0.049 0.005-0.098-0.010-0.136-0.040-0.006-0.004-0.011-0.009-0.015-0.015z"></path>
<path fill="#fa4a0c" d="M30.597 1.855l2.622 2.31-2.353-2.587c-0.035-0.035-0.083-0.055-0.132-0.056s-0.098 0.017-0.134 0.051c-0.037 0.034-0.059 0.080-0.063 0.13s0.012 0.099 0.044 0.137c0.005 0.005 0.011 0.010 0.016 0.015z"></path>
<path fill="#fa4a0c" d="M35.34 2l-0.738 2.239 0.487-2.31c0.009-0.032 0.029-0.060 0.058-0.078s0.062-0.024 0.095-0.017c0.033 0.007 0.062 0.026 0.081 0.054s0.027 0.061 0.022 0.095l-0.004 0.017z"></path>
<path fill="#fa4a0c" d="M33.569 8.581l0.487-2.309-0.738 2.242c-0.006 0.017-0.008 0.035-0.007 0.053s0.006 0.035 0.015 0.051c0.008 0.016 0.020 0.030 0.034 0.041s0.030 0.019 0.047 0.024c0.017 0.005 0.035 0.006 0.053 0.003s0.035-0.009 0.050-0.018c0.015-0.009 0.028-0.022 0.038-0.037s0.017-0.031 0.021-0.049v-0.001z"></path>
<path fill="#fa4a0c" d="M37.335 3.673l-2.099 1.061 1.969-1.285c0.014-0.010 0.031-0.017 0.048-0.021s0.035-0.004 0.052-0.001c0.017 0.003 0.034 0.010 0.048 0.020s0.027 0.022 0.037 0.037c0.010 0.015 0.016 0.031 0.019 0.049s0.003 0.035-0.001 0.052c-0.004 0.017-0.011 0.033-0.022 0.048s-0.023 0.026-0.038 0.035l-0.013 0.005z"></path>
<path fill="#fa4a0c" d="M31.452 7.067l1.969-1.285-2.099 1.061c-0.029 0.017-0.050 0.044-0.060 0.076s-0.007 0.067 0.008 0.096c0.015 0.030 0.041 0.053 0.072 0.064s0.066 0.010 0.096-0.003c0.004-0.003 0.008-0.006 0.012-0.009z"></path>
<path fill="#fa4a0c" d="M37.569 6.273l-2.228-0.741 2.299 0.489c0.032 0.009 0.060 0.029 0.078 0.058s0.024 0.063 0.017 0.096-0.026 0.062-0.053 0.081c-0.027 0.019-0.061 0.027-0.094 0.022l-0.017-0.004z"></path>
<path fill="#fa4a0c" d="M31.020 4.493l2.298 0.489-2.229-0.742c-0.016-0.005-0.033-0.008-0.051-0.006s-0.034 0.006-0.049 0.013c-0.015 0.008-0.029 0.018-0.040 0.031s-0.020 0.028-0.025 0.044c-0.005 0.016-0.008 0.034-0.006 0.051s0.006 0.034 0.013 0.049c0.008 0.015 0.018 0.029 0.031 0.040s0.028 0.020 0.044 0.025c0.004 0.002 0.009 0.003 0.013 0.004z"></path>
<path fill="#fa4a0c" d="M35.936 8.261l-1.077-2.096 1.302 1.965c0.017 0.029 0.022 0.063 0.014 0.096s-0.027 0.061-0.055 0.080c-0.028 0.018-0.062 0.026-0.094 0.020s-0.062-0.024-0.082-0.051c-0.003-0.004-0.005-0.009-0.007-0.014h-0.001z"></path>
<path fill="#fa4a0c" d="M32.497 2.386l1.302 1.965-1.077-2.098c-0.009-0.015-0.020-0.028-0.034-0.039s-0.029-0.018-0.046-0.023c-0.017-0.004-0.034-0.006-0.051-0.003s-0.034 0.008-0.049 0.017c-0.015 0.009-0.028 0.021-0.038 0.035s-0.018 0.030-0.022 0.047c-0.004 0.017-0.005 0.034-0.002 0.052s0.009 0.034 0.018 0.049l-0.001-0.001z"></path>
<path fill="#fa9330" d="M27.183 2.895l-0.149 2.698-0.149-2.698c-0.002-0.039 0.012-0.078 0.039-0.107s0.063-0.047 0.102-0.049c0.039-0.002 0.077 0.011 0.107 0.037s0.048 0.062 0.051 0.102c0 0.006 0 0.011 0 0.017z"></path>
<path fill="#fa9330" d="M27.183 10.699l-0.149-2.699-0.15 2.699c-0.002 0.020 0.001 0.040 0.007 0.059s0.016 0.036 0.029 0.052c0.013 0.015 0.029 0.027 0.047 0.036s0.037 0.014 0.057 0.015c0.020 0.001 0.040-0.002 0.058-0.009s0.036-0.017 0.051-0.031 0.026-0.030 0.035-0.048c0.008-0.018 0.013-0.038 0.014-0.058 0.001-0.005 0.001-0.011 0.001-0.017z"></path>
<path fill="#fa9330" d="M29.886 4.144l-2.005 1.802 1.794-2.014c0.027-0.028 0.063-0.044 0.102-0.046s0.076 0.012 0.105 0.038c0.029 0.026 0.047 0.062 0.049 0.101s-0.009 0.077-0.034 0.107l-0.012 0.012z"></path>
<path fill="#fa9330" d="M24.393 9.663l1.794-2.014-2.005 1.802c-0.015 0.013-0.028 0.029-0.037 0.047s-0.015 0.038-0.016 0.058c-0.002 0.020 0.001 0.040 0.008 0.059s0.017 0.037 0.030 0.052c0.013 0.015 0.030 0.027 0.048 0.036s0.038 0.013 0.058 0.014c0.020 0.001 0.040-0.003 0.059-0.010s0.036-0.018 0.050-0.032l0.012-0.011z"></path>
<path fill="#fa9330" d="M30.919 6.947l-2.686-0.15 2.686-0.15c0.020-0.002 0.040 0.001 0.059 0.007s0.036 0.016 0.051 0.029c0.015 0.013 0.027 0.029 0.036 0.047s0.014 0.037 0.015 0.057c0.001 0.020-0.002 0.040-0.009 0.059s-0.017 0.036-0.030 0.051c-0.013 0.015-0.030 0.027-0.048 0.035s-0.038 0.013-0.057 0.014h-0.017z"></path>
<path fill="#fa9330" d="M23.15 6.947l2.686-0.15-2.686-0.15c-0.020-0.002-0.040 0.001-0.059 0.007s-0.036 0.016-0.051 0.029c-0.015 0.013-0.027 0.029-0.036 0.047s-0.014 0.037-0.015 0.057c-0.001 0.020 0.002 0.040 0.008 0.059s0.017 0.036 0.030 0.051c0.013 0.015 0.030 0.027 0.048 0.035s0.038 0.013 0.057 0.014h0.017z"></path>
<path fill="#fa9330" d="M29.705 9.636l-1.816-1.995 2.022 1.783c0.030 0.026 0.048 0.063 0.050 0.103s-0.011 0.079-0.037 0.109c-0.026 0.030-0.063 0.048-0.102 0.051s-0.078-0.011-0.108-0.037c-0.003-0.004-0.006-0.008-0.009-0.013z"></path>
<path fill="#fa9330" d="M24.157 4.174l2.022 1.783-1.816-1.995c-0.013-0.015-0.029-0.026-0.047-0.035s-0.037-0.013-0.056-0.014c-0.020-0.001-0.039 0.002-0.058 0.009s-0.035 0.017-0.050 0.030c-0.014 0.013-0.026 0.029-0.034 0.047s-0.013 0.037-0.014 0.057c-0.001 0.020 0.002 0.039 0.009 0.058s0.017 0.036 0.030 0.050c0.004 0.004 0.009 0.007 0.014 0.011z"></path>
<path fill="#fa9330" d="M27.815 4.285l-0.57 1.729 0.376-1.783c0.007-0.025 0.023-0.047 0.044-0.060s0.048-0.018 0.074-0.013 0.048 0.020 0.062 0.042c0.015 0.021 0.021 0.048 0.017 0.073-0.001 0.004-0.002 0.008-0.003 0.013z"></path>
<path fill="#fa9330" d="M26.448 9.362l0.376-1.783-0.569 1.729c-0.005 0.013-0.007 0.026-0.006 0.040s0.004 0.027 0.010 0.039c0.006 0.012 0.014 0.023 0.024 0.032s0.022 0.016 0.035 0.020c0.013 0.004 0.026 0.006 0.040 0.005s0.027-0.005 0.039-0.011c0.012-0.006 0.023-0.015 0.031-0.026s0.015-0.023 0.019-0.036c0.001-0.003 0.002-0.006 0.003-0.010z"></path>
<path fill="#fa9330" d="M29.355 5.575l-1.62 0.819 1.519-0.993c0.011-0.008 0.024-0.014 0.037-0.017s0.027-0.003 0.041-0.001c0.014 0.002 0.026 0.008 0.038 0.015s0.021 0.018 0.029 0.029c0.008 0.012 0.013 0.025 0.015 0.038s0.002 0.028-0.001 0.041c-0.003 0.013-0.009 0.026-0.017 0.037s-0.019 0.020-0.031 0.027c-0.003 0.002-0.006 0.004-0.009 0.005z"></path>
<path fill="#fa9330" d="M24.815 8.197l1.519-0.995-1.62 0.818c-0.023 0.013-0.040 0.034-0.048 0.059s-0.006 0.052 0.006 0.076c0.012 0.023 0.032 0.041 0.057 0.050s0.052 0.007 0.076-0.004l0.011-0.003z"></path>
<path fill="#fa9330" d="M29.535 7.581l-1.721-0.572 1.774 0.377c0.013 0.002 0.026 0.007 0.038 0.014s0.021 0.017 0.029 0.028c0.008 0.011 0.013 0.024 0.016 0.037s0.003 0.027-0 0.041-0.008 0.026-0.016 0.037c-0.008 0.011-0.018 0.021-0.029 0.028s-0.024 0.012-0.038 0.014-0.027 0.001-0.040-0.002l-0.012-0.003z"></path>
<path fill="#fa9330" d="M24.482 6.208l1.775 0.377-1.72-0.572c-0.025-0.008-0.053-0.006-0.077 0.006s-0.042 0.033-0.050 0.058c-0.008 0.025-0.006 0.053 0.006 0.077s0.033 0.042 0.058 0.051l0.009 0.003z"></path>
<path fill="#fa9330" d="M28.274 9.115l-0.831-1.617 1.004 1.517c0.013 0.022 0.017 0.049 0.011 0.074s-0.021 0.047-0.043 0.062-0.048 0.020-0.073 0.015c-0.025-0.004-0.048-0.019-0.063-0.039l-0.005-0.011z"></path>
<path fill="#fa9330" d="M25.622 4.582l1.004 1.516-0.831-1.617c-0.013-0.023-0.034-0.040-0.059-0.048s-0.052-0.005-0.075 0.007c-0.023 0.012-0.041 0.033-0.049 0.058s-0.007 0.052 0.005 0.076c0.002 0.003 0.004 0.005 0.006 0.008z"></path>
<path fill="#5b3d80" d="M21.861 19.7l3.538 0.004-0.003 2.133-0.006 5.197v0.622c0.004 0.082-0.012 0.164-0.047 0.238s-0.087 0.139-0.153 0.188c-0.149 0.105-0.328 0.157-0.509 0.149l-2.122-0.003c-0.181 0.008-0.36-0.045-0.508-0.151-0.065-0.049-0.118-0.114-0.152-0.189s-0.050-0.156-0.046-0.238v-0.622l0.006-5.197 0.003-2.133h-5.311v-0.007h-0.257v4.267h0.257l-0.006 5.29c0 0.296 0.118 0.398 0.413 0.398l13.375 0.015c0.295 0 0.36-0.1 0.361-0.396l0.006-5.288h0.222v-4.267l-4.020-0.003c0.062 0 0.124-0.003 0.184-0.006l-5.224-0.002z"></path>
<path fill="#b57bff" d="M25.399 19.895h-3.547v9.75h3.547v-9.75z"></path>
<path fill="#231f20" opacity="0.1" d="M30.699 23.958h-14.149v0.344h14.149v-0.344z"></path>
<path fill="#231f20" opacity="0.1" d="M25.845 19.693c-0.060 0.017-0.122 0.025-0.184 0.024h-1.316l0.018-0.023h-1.411l0.017 0.021h-1.322c-0.054 0-0.108-0.007-0.161-0.020h-1.225c0.076 0.166 0.18 0.316 0.309 0.444 0.139 0.144 0.306 0.258 0.491 0.335s0.383 0.115 0.583 0.112h4.128c0.364-0.021 0.708-0.178 0.962-0.441 0.131-0.13 0.238-0.283 0.314-0.452l-1.204-0.002z"></path>
<path fill="#b57bff" d="M22.567 20.265h3.206c0.392-0.029 0.758-0.209 1.021-0.503s0.401-0.679 0.387-1.074c-0.014-0.395-0.18-0.769-0.463-1.043s-0.661-0.428-1.054-0.428c-0.218-0.010-0.435 0.032-0.633 0.123s-0.372 0.228-0.507 0.4l-0.87 1.123-0.867-1.125c-0.135-0.172-0.308-0.31-0.506-0.401s-0.415-0.134-0.633-0.125c-0.403-0-0.789 0.16-1.075 0.446s-0.446 0.674-0.446 1.079 0.159 0.793 0.444 1.080c0.284 0.286 0.671 0.448 1.073 0.448l0.922 0.001zM25.194 18.299c0.057-0.069 0.128-0.123 0.209-0.16s0.169-0.054 0.258-0.050c0.173 0 0.338 0.069 0.46 0.192s0.191 0.289 0.191 0.462c0 0.173-0.069 0.34-0.191 0.462s-0.288 0.192-0.46 0.192h-1.316l0.848-1.098zM21.186 19.2c-0.092-0.091-0.154-0.208-0.179-0.335s-0.012-0.259 0.037-0.379 0.134-0.222 0.241-0.294c0.108-0.072 0.234-0.109 0.363-0.109 0.089-0.003 0.178 0.015 0.259 0.052s0.153 0.092 0.209 0.162l0.853 1.098h-1.321c-0.086 0.001-0.172-0.015-0.251-0.049s-0.151-0.083-0.211-0.145v-0z"></path>
<path fill="#7f471c" d="M36.59 29.663h-4.444v-8.812c0-1.098 1.19-2.848 1.19-2.848h1.905c0 0 1.349 1.58 1.349 2.848v8.812z"></path>
<path fill="#fec79c" d="M34.308 21.569c0.444 0 0.805-0.362 0.805-0.808s-0.36-0.808-0.805-0.808c-0.444 0-0.805 0.362-0.805 0.808s0.36 0.808 0.805 0.808z"></path>
<path fill="#ffe3cd" d="M35.241 17.967h-1.905l0.404-5.676h1.059l0.443 5.676z"></path>
<path fill="#fec79c" d="M35.009 11.253h-1.443v1.038h1.443v-1.038z"></path>
<path fill="#ffe3cd" d="M36.514 23.441h-4.292v4.822h4.292v-4.822z"></path>
<path fill="#231f20" opacity="0.1" d="M36.59 20.852c-0.047-0.62-0.246-1.218-0.58-1.741 0.019 0.086 0.034 0.171 0.048 0.258 0.36 2.263 0.587 4.488-0.076 6.694-0.212 0.594-0.492 1.162-0.833 1.693-0.397 0.751-1.020 1.357-1.78 1.73-0.117 0.058-0.235 0.117-0.352 0.177h3.573l0-8.811z"></path>
<path fill="#fff" d="M32.585 18.981v-3.484h-4.803v3.484c0 0-0 2.427 2.231 2.545v7.201h0.020c-0.37 0.459-1.615 0.934-1.615 0.934h3.529c0 0-1.267-0.556-1.574-0.934-0.007-0-0.015-0.001-0.022-0.002v-7.199c2.232-0.117 2.234-2.545 2.234-2.545z"></path>
<path fill="#ffe3cd" d="M30.316 17.085c-0.542 0.468-1.394 0.442-2.152 0.584v1.238c0 0 0 2.145 2.019 2.145s2.019-2.145 2.019-2.145v-2.433c-0.683-0.042-1.356 0.176-1.886 0.611v0z"></path>
<path fill="#0a1f44" opacity="0.5" d="M36.571 31.531c0 0.259-4.513 0.469-10.081 0.469s-10.081-0.21-10.081-0.469c0-0.259 4.513-0.469 10.081-0.469s10.081 0.21 10.081 0.469z"></path>
<path fill="#0a1f44" opacity="0.5" d="M10.784 29.656c0 0.259-2.414 0.469-5.392 0.469s-5.392-0.21-5.392-0.469c0-0.259 2.414-0.469 5.392-0.469s5.392 0.21 5.392 0.469z"></path>
<path fill="#0a1f44" opacity="0.3" d="M57.436 27.78c0 0.259-2.414 0.469-5.392 0.469s-5.392-0.21-5.392-0.469c0-0.259 2.414-0.469 5.392-0.469s5.392 0.21 5.392 0.469z"></path>
<path fill="#0a1f44" opacity="0.3" d="M58.96 28.249c0 0.259-2.414 0.469-5.392 0.469s-5.392-0.21-5.392-0.469c0-0.259 2.414-0.469 5.392-0.469s5.392 0.21 5.392 0.469z"></path>
<path fill="#0a1f44" opacity="0.3" d="M61.187 27.78c0 0.259-2.414 0.469-5.392 0.469s-5.392-0.21-5.392-0.469c0-0.259 2.414-0.469 5.392-0.469s5.392 0.21 5.392 0.469z"></path>
</svg>
