<!-- Generated by IcoMoon.io -->
<svg version="1.1" xmlns="http://www.w3.org/2000/svg" width="94" height="32" viewBox="0 0 94 32">
<title>clouds</title>
<path opacity="0.2" fill="#000" d="M0 17.451c-0 0.177 0.035 0.353 0.103 0.517s0.168 0.313 0.294 0.438c0.126 0.125 0.275 0.225 0.439 0.293s0.34 0.103 0.518 0.103h30.198c0.359 0 0.703-0.142 0.957-0.396s0.397-0.597 0.397-0.955c0-0.358-0.143-0.702-0.397-0.955s-0.598-0.396-0.957-0.396h-30.198c-0.178-0-0.354 0.035-0.518 0.103s-0.314 0.167-0.439 0.293c-0.126 0.125-0.226 0.274-0.294 0.438s-0.103 0.34-0.103 0.517z"></path>
<path opacity="0.2" fill="#000" d="M58.82 21.152c0 0.177 0.035 0.353 0.103 0.517s0.168 0.313 0.294 0.438c0.126 0.125 0.275 0.225 0.439 0.293s0.341 0.103 0.518 0.103h30.198c0.359 0 0.704-0.142 0.958-0.396s0.397-0.597 0.397-0.955c0-0.358-0.143-0.702-0.397-0.956s-0.598-0.396-0.958-0.396h-30.198c-0.359 0-0.704 0.142-0.958 0.396s-0.397 0.597-0.397 0.955v0z"></path>
<path opacity="0.2" fill="#000" d="M18.363 13.649c-0 0.178 0.035 0.353 0.103 0.517s0.168 0.313 0.294 0.439c0.126 0.126 0.275 0.225 0.439 0.293s0.341 0.103 0.518 0.103h30.198c0.178 0 0.354-0.035 0.518-0.103s0.314-0.167 0.439-0.293 0.226-0.274 0.293-0.438c0.068-0.164 0.103-0.34 0.103-0.517 0-0.358-0.143-0.702-0.397-0.955s-0.598-0.396-0.957-0.396h-30.198c-0.359 0-0.703 0.142-0.957 0.396s-0.397 0.597-0.397 0.955z"></path>
<path opacity="0.2" fill="#000" d="M7.564 13.649c-0 0.178 0.035 0.354 0.103 0.518s0.168 0.313 0.294 0.439c0.126 0.126 0.275 0.225 0.44 0.293s0.341 0.103 0.519 0.103h3.664c0.359-0 0.704-0.143 0.958-0.396s0.397-0.597 0.397-0.955c-0-0.358-0.143-0.702-0.397-0.955s-0.598-0.396-0.957-0.396h-3.664c-0.359 0-0.704 0.142-0.957 0.396s-0.397 0.597-0.397 0.955l-0.002-0.001z"></path>
<path opacity="0.2" fill="#000" d="M10.177 28.811c0 0.177 0.035 0.353 0.103 0.517s0.168 0.313 0.294 0.438 0.275 0.225 0.439 0.293c0.164 0.068 0.34 0.103 0.518 0.103h3.664c0.178 0 0.354-0.035 0.518-0.103s0.314-0.167 0.439-0.293c0.126-0.125 0.226-0.274 0.294-0.438s0.103-0.34 0.103-0.517c-0-0.358-0.143-0.702-0.397-0.955s-0.598-0.396-0.958-0.396h-3.664c-0.359 0-0.704 0.142-0.957 0.396s-0.397 0.597-0.397 0.955z"></path>
<path opacity="0.2" fill="#000" d="M84.568 24.771c0 0.177-0.035 0.353-0.103 0.517s-0.168 0.313-0.293 0.438c-0.126 0.125-0.275 0.225-0.439 0.293s-0.34 0.103-0.518 0.103h-30.198c-0.178 0-0.354-0.035-0.518-0.103s-0.314-0.167-0.439-0.293c-0.126-0.125-0.225-0.274-0.293-0.438s-0.103-0.34-0.103-0.517c0-0.177 0.035-0.353 0.103-0.517s0.168-0.313 0.293-0.438c0.126-0.125 0.275-0.225 0.439-0.293s0.34-0.103 0.518-0.103h30.198c0.178-0 0.354 0.035 0.518 0.103s0.314 0.167 0.439 0.293c0.126 0.125 0.226 0.274 0.293 0.438s0.103 0.34 0.103 0.517z"></path>
<path opacity="0.2" fill="#000" d="M93.677 24.98c0 0.177-0.035 0.353-0.103 0.517s-0.168 0.313-0.294 0.439c-0.126 0.125-0.275 0.225-0.439 0.293s-0.34 0.103-0.518 0.103h-3.664c-0.178 0-0.354-0.035-0.518-0.103s-0.314-0.167-0.439-0.293c-0.126-0.126-0.225-0.275-0.293-0.439s-0.103-0.34-0.103-0.517c0-0.177 0.035-0.353 0.103-0.517s0.168-0.313 0.294-0.438 0.275-0.225 0.439-0.293c0.164-0.068 0.34-0.103 0.518-0.103h3.664c0.359-0 0.703 0.142 0.958 0.395s0.397 0.597 0.397 0.955v0.001z"></path>
<path opacity="0.2" fill="#000" d="M13.461 18.378c0 0.45-0.134 0.891-0.385 1.265s-0.607 0.667-1.024 0.839c-0.417 0.172-0.876 0.218-1.319 0.13s-0.85-0.305-1.169-0.623c-0.319-0.319-0.537-0.724-0.625-1.166s-0.043-0.9 0.13-1.316c0.173-0.416 0.465-0.772 0.841-1.022s0.817-0.384 1.268-0.384c0.605 0 1.186 0.24 1.614 0.667s0.669 1.006 0.669 1.61z"></path>
<path opacity="0.2" fill="#000" d="M15.388 12.102c0 0.606-0.18 1.198-0.517 1.702s-0.817 0.896-1.378 1.128c-0.561 0.232-1.178 0.293-1.774 0.174s-1.143-0.41-1.572-0.838c-0.429-0.428-0.722-0.974-0.84-1.569s-0.058-1.21 0.175-1.77c0.232-0.56 0.626-1.038 1.131-1.375s1.099-0.516 1.706-0.516c0.814 0 1.595 0.323 2.171 0.897s0.899 1.353 0.899 2.166z"></path>
<path opacity="0.2" fill="#000" d="M61.616 6.474c0 0.358-0.143 0.702-0.397 0.955s-0.598 0.396-0.957 0.396h-3.664c-0.178 0-0.354-0.035-0.518-0.103s-0.314-0.167-0.439-0.293c-0.126-0.125-0.226-0.274-0.293-0.438s-0.103-0.34-0.103-0.517c0-0.358 0.143-0.702 0.397-0.955s0.598-0.396 0.957-0.396h3.664c0.359 0 0.704 0.143 0.958 0.396s0.397 0.597 0.396 0.956z"></path>
<path opacity="0.2" fill="#000" d="M53.792 4.927c0 0.606 0.18 1.198 0.517 1.702s0.817 0.896 1.378 1.128c0.561 0.232 1.178 0.293 1.774 0.175s1.143-0.41 1.572-0.838c0.429-0.428 0.722-0.974 0.841-1.568s0.058-1.21-0.174-1.77-0.626-1.038-1.13-1.375c-0.505-0.337-1.098-0.517-1.706-0.517-0.403-0-0.803 0.079-1.175 0.233s-0.711 0.38-0.996 0.664c-0.285 0.284-0.512 0.622-0.666 0.994s-0.234 0.77-0.234 1.173z"></path>
<path opacity="0.2" fill="#000" d="M88.994 20.225c0 0.45-0.134 0.891-0.385 1.265s-0.607 0.666-1.025 0.839c-0.417 0.172-0.876 0.217-1.319 0.13s-0.85-0.305-1.169-0.623c-0.319-0.319-0.537-0.724-0.625-1.166s-0.043-0.9 0.13-1.316c0.173-0.416 0.465-0.772 0.841-1.022s0.817-0.384 1.268-0.384c0.605 0 1.186 0.24 1.614 0.667s0.668 1.006 0.668 1.61z"></path>
<path opacity="0.2" fill="#000" d="M85.575 18.713c0 0.748-0.222 1.48-0.639 2.102s-1.009 1.107-1.702 1.394c-0.693 0.286-1.456 0.361-2.191 0.215s-1.412-0.506-1.942-1.036c-0.531-0.529-0.892-1.203-1.038-1.938s-0.071-1.495 0.216-2.186c0.287-0.691 0.773-1.283 1.397-1.698s1.357-0.638 2.107-0.638c1.006 0 1.971 0.399 2.682 1.108s1.111 1.672 1.111 2.676z"></path>
<path opacity="0.2" fill="#000" d="M73.606 22.194c3.231-0.052 5.807-2.707 5.756-5.93s-2.713-5.794-5.943-5.742c-3.23 0.052-5.807 2.707-5.756 5.93s2.713 5.794 5.943 5.742z"></path>
<path opacity="0.2" fill="#000" d="M67.477 20.969c2.712-2.705 2.712-7.092 0-9.797s-7.108-2.705-9.82 0c-2.712 2.705-2.712 7.092 0 9.797s7.108 2.705 9.82 0z"></path>
<path opacity="0.2" fill="#000" d="M80.357 27.204c0 0.748-0.222 1.48-0.639 2.102s-1.009 1.107-1.702 1.394-1.456 0.361-2.191 0.215c-0.736-0.146-1.412-0.506-1.942-1.036s-0.892-1.203-1.038-1.937-0.071-1.495 0.216-2.186c0.287-0.691 0.773-1.282 1.397-1.698s1.357-0.638 2.107-0.638c1.006 0 1.971 0.399 2.682 1.108s1.111 1.672 1.111 2.676z"></path>
<path opacity="0.2" fill="#000" d="M19.627 20.655c0 0.748-0.222 1.48-0.639 2.102s-1.009 1.107-1.702 1.394c-0.693 0.286-1.456 0.361-2.191 0.215s-1.412-0.506-1.942-1.036c-0.53-0.529-0.892-1.204-1.038-1.938s-0.071-1.495 0.216-2.186c0.287-0.691 0.773-1.282 1.397-1.698s1.357-0.638 2.107-0.638c1.006 0 1.971 0.399 2.682 1.108s1.111 1.672 1.111 2.676z"></path>
<path opacity="0.2" fill="#000" d="M31.675 25.111c0.29-3.805-2.567-7.124-6.381-7.412s-7.14 2.562-7.43 6.367c-0.289 3.805 2.568 7.124 6.382 7.412s7.14-2.562 7.43-6.367z"></path>
<path opacity="0.2" fill="#000" d="M32.162 9.039c0 1.037-0.308 2.051-0.886 2.914s-1.399 1.535-2.359 1.932-2.018 0.501-3.038 0.298c-1.020-0.202-1.957-0.702-2.692-1.435s-1.236-1.668-1.439-2.686c-0.203-1.017-0.099-2.072 0.299-3.030s1.072-1.778 1.936-2.354c0.865-0.576 1.881-0.884 2.921-0.884 1.394 0 2.732 0.553 3.717 1.536s1.54 2.318 1.54 3.709z"></path>
<path opacity="0.2" fill="#000" d="M42.521 7.973c0.311-3.783-2.51-7.101-6.302-7.411s-7.118 2.505-7.429 6.287 2.51 7.101 6.302 7.411c3.791 0.31 7.117-2.505 7.428-6.287z"></path>
<path opacity="0.2" fill="#000" d="M24.369 11.833c0 0.485-0.144 0.959-0.414 1.362s-0.654 0.717-1.102 0.903c-0.449 0.186-0.943 0.234-1.42 0.14s-0.914-0.328-1.258-0.671c-0.344-0.343-0.578-0.78-0.673-1.255s-0.046-0.968 0.14-1.416c0.186-0.448 0.501-0.831 0.905-1.1s0.879-0.413 1.365-0.413c0.651 0 1.276 0.258 1.737 0.718s0.72 1.083 0.72 1.733z"></path>
</svg>
