<!-- Generated by IcoMoon.io -->
<svg version="1.1" xmlns="http://www.w3.org/2000/svg" width="170" height="32" viewBox="0 0 170 32">
<title>Decor-1</title>
<path fill="#666" d="M169.398 0c-26.546 10.386-55.338 15.758-84.464 15.758s-57.919-5.371-84.464-15.758c-0.156 0.299-0.313 0.6-0.47 0.902 26.693 10.444 55.646 15.846 84.935 15.846s58.241-5.402 84.935-15.846c-0.155-0.301-0.312-0.601-0.47-0.902z"></path>
<path fill="#ff7e30" d="M50.597 29.901c4.671-4.54 9.054-9.198 13.15-13.972-6.991-0.624-13.94-1.557-20.821-2.796 2.248 5.62 4.805 11.21 7.671 16.768z"></path>
<path fill="#007fc5" d="M26.754 25.54c5.232-4.069 10.188-8.284 14.87-12.644-6.909-1.284-13.737-2.875-20.458-4.765 1.554 5.805 3.417 11.608 5.588 17.409z"></path>
<path fill="#3c98fb" d="M74.953 32c4.061-4.955 7.826-9.999 11.294-15.131-7.010 0.039-14.017-0.232-20.995-0.811 2.929 5.373 6.163 10.687 9.701 15.941z"></path>
<path fill="#b57bff" d="M99.445 31.785c3.416-5.309 6.526-10.679 9.331-16.108-6.965 0.701-13.966 1.095-20.976 1.179 3.583 5.064 7.465 10.040 11.645 14.93z"></path>
<path fill="#000" opacity="0.25" d="M99.445 31.785c3.416-5.309 6.526-10.679 9.331-16.108-6.965 0.701-13.966 1.095-20.976 1.179 3.583 5.064 7.465 10.040 11.645 14.93z"></path>
<path fill="#fcee21" d="M123.726 29.263c2.739-5.601 5.169-11.235 7.29-16.9-6.856 1.359-13.787 2.415-20.768 3.161 4.205 4.695 8.697 9.275 13.478 13.739z"></path>
<path fill="#885cbf" d="M147.332 24.519c2.048-5.831 3.784-11.666 5.209-17.505-6.686 2.007-13.486 3.715-20.374 5.117 4.779 4.273 9.834 8.403 15.165 12.387z"></path>
</svg>
