<svg width="522" height="464" viewBox="0 0 522 464" fill="none" xmlns="http://www.w3.org/2000/svg">
<path opacity="0.3" d="M427.592 11.7047L430.482 19.3907C430.523 19.4903 430.544 19.5982 430.544 19.7074C430.544 19.8165 430.523 19.9244 430.482 20.024C430.446 20.1264 430.392 20.2197 430.322 20.2981C430.253 20.3765 430.169 20.4384 430.078 20.4801L426.939 21.9348C426.848 21.9778 426.75 22 426.651 22C426.552 22 426.453 21.9778 426.362 21.9348C426.27 21.8963 426.186 21.8371 426.115 21.7609C426.044 21.6847 425.988 21.5932 425.951 21.492L423.06 13.8096C423.02 13.7092 423 13.6007 423 13.4911C423 13.3815 423.02 13.273 423.06 13.1727C423.096 13.0702 423.151 12.9769 423.22 12.8985C423.29 12.8201 423.373 12.7582 423.465 12.7165L426.603 11.2618C426.694 11.218 426.793 11.1954 426.892 11.1954C426.991 11.1954 427.089 11.218 427.18 11.2618C427.273 11.3002 427.357 11.3594 427.428 11.4356C427.499 11.5118 427.554 11.6034 427.592 11.7047V11.7047ZM428.157 18.6638C428.121 18.5623 428.066 18.4704 427.996 18.3941C427.925 18.3178 427.841 18.2588 427.749 18.2209C427.657 18.1744 427.558 18.1488 427.457 18.1457C427.356 18.1426 427.255 18.162 427.161 18.2029C427.067 18.2438 426.981 18.3052 426.909 18.3835C426.837 18.4619 426.779 18.5555 426.74 18.6589C426.701 18.7623 426.682 18.8733 426.682 18.9853C426.683 19.0973 426.704 19.2081 426.743 19.311C426.783 19.4139 426.842 19.5069 426.915 19.5844C426.988 19.6618 427.074 19.7222 427.168 19.762C427.355 19.8441 427.562 19.8421 427.747 19.7562C427.932 19.6704 428.079 19.5077 428.157 19.3029C428.197 19.2011 428.217 19.0912 428.216 18.9803C428.214 18.8694 428.192 18.7601 428.15 18.6593L428.157 18.6638ZM440.52 5.72717C440.778 6.38136 440.803 7.11945 440.591 7.79373C440.8 8.03973 440.972 8.32161 441.1 8.62845C441.349 9.20895 441.403 9.8694 441.25 10.4898C441.544 10.8875 441.727 11.3711 441.778 11.8818C441.841 12.3536 441.785 12.8357 441.615 13.2738C441.805 13.6354 441.928 14.0357 441.977 14.451C442.025 14.8663 441.998 15.2881 441.897 15.6916C441.743 16.1402 441.502 16.5459 441.192 16.8801C440.881 17.2144 440.508 17.469 440.099 17.6261L439.707 17.8069L438.876 18.1899L438.691 18.277C438.161 18.5159 437.611 18.6976 437.049 18.8195C436.421 18.959 435.947 19.0453 435.593 19.0837C435.239 19.1221 434.736 19.1671 434.096 19.2195C433.448 19.2306 432.803 19.3204 432.172 19.4874C431.986 19.5726 431.777 19.5726 431.592 19.4874C431.5 19.4505 431.416 19.3927 431.346 19.3178C431.276 19.243 431.22 19.1527 431.183 19.0527L428.287 11.3563C428.25 11.2595 428.23 11.1553 428.23 11.05C428.23 10.9447 428.25 10.8405 428.287 10.7437C428.355 10.5412 428.49 10.3747 428.664 10.2773C428.833 10.1798 429.021 9.81822 429.225 9.18497C429.43 8.55172 429.621 7.90074 429.784 7.22247C429.939 6.56132 430.126 5.90971 430.343 5.27032C430.426 5.03794 430.468 4.78974 430.465 4.53966C430.473 4.31531 430.463 4.09065 430.437 3.86803C430.415 3.70418 430.371 3.43995 430.311 3.07461C430.252 2.70928 430.198 2.47237 430.174 2.27753C430.144 2.03762 430.136 1.79517 430.148 1.55349C430.155 1.28943 430.205 1.02894 430.295 0.78444C430.331 0.68174 430.385 0.58827 430.455 0.50981C430.525 0.431351 430.608 0.369589 430.7 0.328338C431 0.181813 431.317 0.0824276 431.641 0.033099C431.897 -0.011033 432.158 -0.011033 432.414 0.033099C432.639 0.076999 432.852 0.17309 433.041 0.315049C433.209 0.436677 433.365 0.576607 433.507 0.732771C433.644 0.898844 433.764 1.08073 433.865 1.27525C433.96 1.44172 434.045 1.61422 434.122 1.79187C434.172 1.90996 434.232 2.06644 434.304 2.25464C434.419 2.56385 434.499 2.8876 434.542 3.21854C434.584 3.48668 434.606 3.75822 434.609 4.0304C434.609 4.23903 434.593 4.50965 434.561 4.84226C434.563 4.93134 434.553 5.02024 434.533 5.10649C434.519 5.21253 434.512 5.31958 434.511 5.4268C434.509 5.53632 434.516 5.64586 434.533 5.75375L437.559 4.36179C437.833 4.23185 438.127 4.16482 438.424 4.16482C438.722 4.16482 439.016 4.23185 439.29 4.36179C439.568 4.48101 439.82 4.66288 440.031 4.89587C440.243 5.12887 440.408 5.40791 440.517 5.71537L440.52 5.72717Z" fill="white"/>
<path d="M38.9355 34.5561L38.5123 42.2189L38.0892 34.5561C38.0848 34.4445 38.1242 34.3357 38.199 34.2531C38.2737 34.1704 38.3777 34.1205 38.4887 34.1142C38.5996 34.1078 38.7086 34.1455 38.7922 34.2191C38.8757 34.2927 38.9272 34.3963 38.9355 34.5076C38.9366 34.5238 38.9366 34.54 38.9355 34.5561Z" fill="#FA9330"/>
<path d="M38.9356 56.7184L38.5124 49.0548L38.087 56.7184C38.0826 56.775 38.0894 56.8319 38.1072 56.8857C38.125 56.9396 38.1534 56.9893 38.1906 57.032C38.2278 57.0747 38.2731 57.1095 38.3238 57.1344C38.3746 57.1593 38.4299 57.1737 38.4863 57.1768C38.5427 57.18 38.5991 57.1717 38.6523 57.1526C38.7055 57.1335 38.7543 57.104 38.7959 57.0656C38.8376 57.0273 38.8712 56.981 38.8948 56.9295C38.9184 56.8779 38.9315 56.8221 38.9333 56.7654C38.9353 56.7498 38.9361 56.7341 38.9356 56.7184Z" fill="#FA9330"/>
<path d="M46.6117 38.1028L40.9194 43.2207L46.0136 37.5011C46.0897 37.4218 46.1935 37.3753 46.3031 37.3713C46.4126 37.3673 46.5195 37.4061 46.6012 37.4795C46.6829 37.553 46.7331 37.6554 46.7413 37.7653C46.7494 37.8751 46.7149 37.9839 46.645 38.0687L46.6117 38.1028Z" fill="#FA9330"/>
<path d="M31.0118 53.7749L36.1066 48.0553L30.4144 53.1732C30.3705 53.2097 30.3343 53.2548 30.3082 53.3057C30.282 53.3566 30.2664 53.4123 30.2622 53.4695C30.2579 53.5266 30.2652 53.584 30.2836 53.6382C30.302 53.6925 30.331 53.7424 30.3691 53.7851C30.4071 53.8278 30.4533 53.8624 30.5049 53.8867C30.5565 53.911 30.6125 53.9246 30.6694 53.9267C30.7264 53.9288 30.7833 53.9193 30.8366 53.8989C30.8898 53.8784 30.9384 53.8473 30.9794 53.8075L31.0118 53.7749Z" fill="#FA9330"/>
<path d="M49.543 46.0637L41.915 45.6385L49.543 45.2133C49.5993 45.2089 49.6559 45.2158 49.7095 45.2337C49.7631 45.2516 49.8127 45.2801 49.8552 45.3174C49.8977 45.3548 49.9323 45.4003 49.957 45.4513C49.9818 45.5023 49.9962 45.5578 49.9993 45.6145C50.0024 45.6711 49.9942 45.7278 49.9752 45.7813C49.9562 45.8347 49.9267 45.8838 49.8886 45.9256C49.8505 45.9675 49.8044 46.0012 49.7531 46.0249C49.7017 46.0486 49.6462 46.0618 49.5898 46.0637H49.543Z" fill="#FA9330"/>
<path d="M27.4816 46.0637L35.1095 45.6385L27.4816 45.2133C27.4253 45.2089 27.3687 45.2158 27.3151 45.2337C27.2615 45.2516 27.2119 45.2801 27.1694 45.3174C27.1269 45.3548 27.0923 45.4003 27.0676 45.4513C27.0428 45.5023 27.0284 45.5578 27.0253 45.6145C27.0222 45.6711 27.0304 45.7278 27.0494 45.7813C27.0684 45.8347 27.0978 45.8838 27.136 45.9256C27.1741 45.9675 27.2202 46.0012 27.2715 46.0249C27.3228 46.0486 27.3783 46.0618 27.4348 46.0637H27.4816Z" fill="#FA9330"/>
<path d="M46.0952 53.6977L40.9385 48.0311L46.6813 53.0937C46.7657 53.1681 46.8172 53.2732 46.8245 53.3859C46.8318 53.4985 46.7943 53.6094 46.7202 53.6943C46.6461 53.7791 46.5414 53.8308 46.4293 53.8382C46.3172 53.8455 46.2068 53.8078 46.1224 53.7333C46.1128 53.7222 46.1038 53.7103 46.0952 53.6977Z" fill="#FA9330"/>
<path d="M30.3411 38.1894L36.0839 43.252L30.9273 37.5854C30.8898 37.5441 30.8445 37.5106 30.7941 37.4869C30.7437 37.4632 30.6892 37.4496 30.6336 37.447C30.578 37.4445 30.5225 37.4529 30.4702 37.4719C30.4178 37.4909 30.3697 37.5201 30.3286 37.5578C30.2875 37.5954 30.2542 37.6409 30.2306 37.6915C30.2069 37.7421 30.1934 37.7969 30.1909 37.8527C30.1883 37.9086 30.1967 37.9644 30.2156 38.0169C30.2346 38.0695 30.2636 38.1178 30.3011 38.1591C30.3139 38.17 30.3272 38.1801 30.3411 38.1894Z" fill="#FA9330"/>
<path d="M40.7287 38.5046L39.1113 43.4141L40.1779 38.3515C40.1965 38.2803 40.2417 38.2189 40.3041 38.1801C40.3664 38.1414 40.4412 38.1282 40.513 38.1433C40.5848 38.1583 40.648 38.2006 40.6897 38.2612C40.7314 38.3218 40.7483 38.3962 40.737 38.469C40.7349 38.481 40.7321 38.4929 40.7287 38.5046V38.5046Z" fill="#FA9330"/>
<path d="M36.8483 52.9201L37.9149 47.8575L36.2977 52.767C36.2841 52.8032 36.2779 52.8418 36.2796 52.8805C36.2812 52.9192 36.2906 52.9571 36.3072 52.992C36.3238 53.027 36.3472 53.0582 36.3761 53.0838C36.405 53.1094 36.4387 53.1288 36.4753 53.141C36.5119 53.1532 36.5506 53.1578 36.589 53.1545C36.6273 53.1513 36.6647 53.1403 36.6988 53.1223C36.7329 53.1042 36.7629 53.0793 36.7872 53.0493C36.8115 53.0192 36.8295 52.9846 36.8401 52.9473C36.8434 52.9384 36.8462 52.9293 36.8483 52.9201V52.9201Z" fill="#FA9330"/>
<path d="M45.1022 42.1674L40.5007 44.4918L44.8156 41.6718C44.8469 41.6485 44.8827 41.6319 44.9206 41.623C44.9586 41.6141 44.9979 41.6131 45.0363 41.62C45.0746 41.6269 45.1112 41.6417 45.1436 41.6633C45.1761 41.685 45.2039 41.7131 45.2251 41.7459C45.2464 41.7787 45.2608 41.8156 45.2674 41.8542C45.274 41.8928 45.2726 41.9323 45.2634 41.9704C45.2543 42.0084 45.2374 42.0442 45.214 42.0755C45.1905 42.1068 45.161 42.1329 45.1272 42.1523C45.1193 42.1581 45.1109 42.1631 45.1022 42.1674V42.1674Z" fill="#FA9330"/>
<path d="M32.209 49.6112L36.5238 46.7851L31.9223 49.108C31.8572 49.1436 31.8084 49.2033 31.7862 49.2745C31.7641 49.3456 31.7703 49.4226 31.8036 49.4892C31.8369 49.5558 31.8947 49.6068 31.9647 49.6314C32.0347 49.656 32.1115 49.6523 32.1789 49.6211L32.209 49.6112Z" fill="#FA9330"/>
<path d="M45.6137 47.8635L40.7263 46.2402L45.7653 47.3103C45.8034 47.3166 45.8399 47.3306 45.8725 47.3514C45.905 47.3722 45.9331 47.3995 45.9549 47.4315C45.9767 47.4635 45.9918 47.4996 45.9993 47.5377C46.0069 47.5757 46.0067 47.6149 45.9987 47.6529C45.9907 47.6909 45.9753 47.7268 45.9531 47.7586C45.931 47.7904 45.9026 47.8173 45.8698 47.8378C45.837 47.8582 45.8003 47.8718 45.7621 47.8777C45.724 47.8835 45.685 47.8816 45.6476 47.8719L45.6137 47.8635Z" fill="#FA9330"/>
<path d="M31.2639 43.9652L36.3029 45.0368L31.4185 43.4134C31.3467 43.3895 31.2684 43.3952 31.2008 43.4293C31.1331 43.4634 31.0818 43.5231 31.0579 43.5953C31.0341 43.6675 31.0398 43.7462 31.0738 43.8141C31.1077 43.882 31.1673 43.9336 31.2391 43.9576L31.2639 43.9652Z" fill="#FA9330"/>
<path d="M42.0337 52.2198L39.6748 47.6278L42.5248 51.9348C42.5618 51.9982 42.5732 52.0734 42.5567 52.145C42.5402 52.2166 42.4971 52.2791 42.4361 52.3197C42.3751 52.3603 42.301 52.3759 42.2289 52.3632C42.1568 52.3505 42.0924 52.3106 42.0488 52.2516L42.0337 52.2198Z" fill="#FA9330"/>
<path d="M34.5007 39.3458L37.3507 43.6513L34.9918 39.0594C34.9557 38.9941 34.8957 38.9456 34.8246 38.924C34.7534 38.9024 34.6767 38.9096 34.6107 38.9439C34.5446 38.9782 34.4945 39.0369 34.4709 39.1077C34.4473 39.1785 34.452 39.2558 34.4841 39.3231C34.4891 39.3311 34.4947 39.3387 34.5007 39.3458V39.3458Z" fill="#FA9330"/>
<path d="M113 442C113 430.954 121.954 422 133 422H343C354.046 422 363 430.954 363 442V444C363 455.046 354.046 464 343 464H133C121.954 464 113 455.046 113 444V442Z" fill="#435875"/>
<path fill-rule="evenodd" clip-rule="evenodd" d="M133.5 436.333C130.701 436.328 128.197 438.072 127.231 440.7C126.265 443.327 127.043 446.278 129.179 448.087C131.315 449.896 134.354 450.178 136.787 448.793H136.833H136.867C139.507 447.291 140.797 444.193 140.004 441.261C139.212 438.328 136.538 436.302 133.5 436.333ZM134.167 437.713C136.58 438.019 138.481 439.92 138.787 442.333H134.167V437.713ZM133.5 448.333C130.698 448.314 128.389 446.131 128.214 443.334C128.038 440.538 130.056 438.083 132.833 437.713V443C132.836 443.08 132.852 443.159 132.88 443.233V443.287V443.333L135.547 447.913C134.9 448.19 134.204 448.333 133.5 448.333ZM136.72 447.24L134.653 443.667H138.787C138.605 445.087 137.861 446.375 136.72 447.24Z" fill="white"/>
<path d="M150.539 447.211C152.49 447.211 153.92 446.045 154.119 444.316H152.631C152.426 445.266 151.611 445.863 150.539 445.863C149.098 445.863 148.201 444.68 148.201 442.77C148.201 440.865 149.098 439.682 150.533 439.682C151.6 439.682 152.414 440.338 152.625 441.352H154.113C153.938 439.588 152.455 438.334 150.533 438.334C148.137 438.334 146.654 440.027 146.654 442.775C146.654 445.512 148.143 447.211 150.539 447.211ZM155.707 447H157.16V443.279C157.16 442.359 157.693 441.738 158.648 441.738C159.492 441.738 159.938 442.236 159.938 443.209V447H161.391V442.863C161.391 441.34 160.559 440.473 159.188 440.473C158.232 440.473 157.547 440.906 157.242 441.627H157.137V438.111H155.707V447ZM165.305 445.963C164.66 445.963 164.197 445.641 164.197 445.102C164.197 444.58 164.578 444.287 165.393 444.234L166.84 444.141V444.65C166.84 445.395 166.184 445.963 165.305 445.963ZM164.877 447.105C165.715 447.105 166.418 446.742 166.775 446.121H166.875V447H168.275V442.623C168.275 441.264 167.35 440.461 165.703 440.461C164.18 440.461 163.119 441.182 163.002 442.312H164.373C164.508 441.879 164.965 441.645 165.633 441.645C166.418 441.645 166.84 441.996 166.84 442.623V443.162L165.188 443.262C163.629 443.355 162.756 444.023 162.756 445.184C162.756 446.355 163.641 447.105 164.877 447.105ZM170.027 447H171.48V443.268C171.48 442.324 172.025 441.727 172.893 441.727C173.777 441.727 174.188 442.219 174.188 443.197V447H175.641V442.852C175.641 441.322 174.861 440.461 173.432 440.461C172.477 440.461 171.832 440.9 171.527 441.615H171.428V440.59H170.027V447ZM180.117 445.723C179.104 445.723 178.529 444.949 178.529 443.725C178.529 442.5 179.104 441.721 180.117 441.721C181.125 441.721 181.74 442.5 181.74 443.725C181.74 444.949 181.131 445.723 180.117 445.723ZM180.117 449.438C181.986 449.438 183.17 448.506 183.17 447.023V440.59H181.77V441.615H181.67C181.318 440.918 180.557 440.484 179.684 440.484C178.049 440.484 177.035 441.762 177.035 443.725C177.035 445.652 178.043 446.906 179.66 446.906C180.551 446.906 181.248 446.531 181.617 445.846H181.717V447.059C181.717 447.861 181.137 448.33 180.141 448.33C179.344 448.33 178.828 448.049 178.734 447.609H177.275C177.393 448.711 178.471 449.438 180.117 449.438ZM184.975 447H186.422V440.59H184.975V447ZM185.695 439.547C186.229 439.547 186.592 439.207 186.592 438.744C186.592 438.281 186.229 437.941 185.695 437.941C185.168 437.941 184.799 438.281 184.799 438.744C184.799 439.207 185.168 439.547 185.695 439.547ZM188.227 447H189.68V443.268C189.68 442.324 190.225 441.727 191.092 441.727C191.977 441.727 192.387 442.219 192.387 443.197V447H193.84V442.852C193.84 441.322 193.061 440.461 191.631 440.461C190.676 440.461 190.031 440.9 189.727 441.615H189.627V440.59H188.227V447ZM198.316 445.723C197.303 445.723 196.729 444.949 196.729 443.725C196.729 442.5 197.303 441.721 198.316 441.721C199.324 441.721 199.939 442.5 199.939 443.725C199.939 444.949 199.33 445.723 198.316 445.723ZM198.316 449.438C200.186 449.438 201.369 448.506 201.369 447.023V440.59H199.969V441.615H199.869C199.518 440.918 198.756 440.484 197.883 440.484C196.248 440.484 195.234 441.762 195.234 443.725C195.234 445.652 196.242 446.906 197.859 446.906C198.75 446.906 199.447 446.531 199.816 445.846H199.916V447.059C199.916 447.861 199.336 448.33 198.34 448.33C197.543 448.33 197.027 448.049 196.934 447.609H195.475C195.592 448.711 196.67 449.438 198.316 449.438ZM206.414 447H207.867V438.111H206.414V447ZM209.725 447H211.172V440.59H209.725V447ZM210.445 439.547C210.979 439.547 211.342 439.207 211.342 438.744C211.342 438.281 210.979 437.941 210.445 437.941C209.918 437.941 209.549 438.281 209.549 438.744C209.549 439.207 209.918 439.547 210.445 439.547ZM218.566 440.59H217.031L215.561 445.547H215.461L213.979 440.59H212.42L214.699 447H216.299L218.566 440.59ZM222.229 441.615C223.102 441.615 223.676 442.225 223.705 443.174H220.688C220.752 442.236 221.361 441.615 222.229 441.615ZM223.717 445.236C223.506 445.711 223.008 445.975 222.287 445.975C221.332 445.975 220.717 445.307 220.682 444.24V444.164H225.158V443.695C225.158 441.674 224.062 440.461 222.234 440.461C220.377 440.461 219.223 441.756 219.223 443.818C219.223 445.881 220.359 447.129 222.246 447.129C223.758 447.129 224.818 446.402 225.094 445.236H223.717ZM226.471 442.424C226.471 443.391 227.051 443.959 228.281 444.24L229.418 444.504C230.027 444.639 230.303 444.867 230.303 445.23C230.303 445.705 229.793 446.027 229.061 446.027C228.334 446.027 227.883 445.746 227.742 445.271H226.307C226.418 446.438 227.426 447.129 229.025 447.129C230.625 447.129 231.756 446.309 231.756 445.078C231.756 444.135 231.188 443.607 229.963 443.332L228.832 443.074C228.188 442.928 227.883 442.705 227.883 442.342C227.883 441.879 228.381 441.562 229.043 441.562C229.723 441.562 230.15 441.85 230.256 442.301H231.621C231.516 441.135 230.561 440.461 229.037 440.461C227.525 440.461 226.471 441.264 226.471 442.424ZM239.191 447.129C241.107 447.129 242.273 445.875 242.273 443.795C242.273 441.721 241.102 440.461 239.191 440.461C237.287 440.461 236.109 441.727 236.109 443.795C236.109 445.875 237.27 447.129 239.191 447.129ZM239.191 445.91C238.178 445.91 237.598 445.137 237.598 443.795C237.598 442.459 238.178 441.68 239.191 441.68C240.199 441.68 240.779 442.459 240.779 443.795C240.779 445.137 240.205 445.91 239.191 445.91ZM244.207 447H245.654V441.791H247.031V440.631H245.637V440.051C245.637 439.447 245.906 439.148 246.592 439.148C246.797 439.148 246.973 439.16 247.09 439.178V438.111C246.855 438.07 246.592 438.047 246.281 438.047C244.857 438.047 244.207 438.686 244.207 439.957V440.631H243.158V441.791H244.207V447ZM254.402 447.129C256.318 447.129 257.484 445.875 257.484 443.795C257.484 441.721 256.312 440.461 254.402 440.461C252.498 440.461 251.32 441.727 251.32 443.795C251.32 445.875 252.48 447.129 254.402 447.129ZM254.402 445.91C253.389 445.91 252.809 445.137 252.809 443.795C252.809 442.459 253.389 441.68 254.402 441.68C255.41 441.68 255.99 442.459 255.99 443.795C255.99 445.137 255.416 445.91 254.402 445.91ZM264.281 440.59H262.746L261.275 445.547H261.176L259.693 440.59H258.135L260.414 447H262.014L264.281 440.59ZM267.943 441.615C268.816 441.615 269.391 442.225 269.42 443.174H266.402C266.467 442.236 267.076 441.615 267.943 441.615ZM269.432 445.236C269.221 445.711 268.723 445.975 268.002 445.975C267.047 445.975 266.432 445.307 266.396 444.24V444.164H270.873V443.695C270.873 441.674 269.777 440.461 267.949 440.461C266.092 440.461 264.938 441.756 264.938 443.818C264.938 445.881 266.074 447.129 267.961 447.129C269.473 447.129 270.533 446.402 270.809 445.236H269.432ZM272.332 447H273.785V443.297C273.785 442.4 274.441 441.814 275.385 441.814C275.631 441.814 276.018 441.855 276.129 441.896V440.549C275.994 440.508 275.736 440.484 275.525 440.484C274.699 440.484 274.008 440.953 273.832 441.586H273.732V440.59H272.332V447ZM283.564 447.211C285.439 447.211 286.699 446.004 286.699 444.24C286.699 442.582 285.562 441.404 283.957 441.404C283.143 441.404 282.545 441.691 282.17 442.195H282.07L282.275 439.822H286.195V438.545H281.104L280.664 443.408H282.035C282.346 442.887 282.891 442.576 283.588 442.576C284.561 442.576 285.24 443.262 285.24 444.275C285.24 445.283 284.566 445.951 283.576 445.951C282.703 445.951 282.041 445.436 281.947 444.656H280.529C280.6 446.145 281.812 447.211 283.564 447.211ZM291.393 447.211C293.414 447.211 294.615 445.57 294.615 442.775C294.615 439.969 293.396 438.334 291.393 438.334C289.383 438.334 288.164 439.969 288.164 442.764C288.164 445.57 289.365 447.211 291.393 447.211ZM291.393 445.957C290.32 445.957 289.693 444.844 289.693 442.764C289.693 440.701 290.332 439.594 291.393 439.594C292.453 439.594 293.086 440.695 293.086 442.764C293.086 444.844 292.465 445.957 291.393 445.957ZM299.373 447.211C301.395 447.211 302.596 445.57 302.596 442.775C302.596 439.969 301.377 438.334 299.373 438.334C297.363 438.334 296.145 439.969 296.145 442.764C296.145 445.57 297.346 447.211 299.373 447.211ZM299.373 445.957C298.301 445.957 297.674 444.844 297.674 442.764C297.674 440.701 298.312 439.594 299.373 439.594C300.434 439.594 301.066 440.695 301.066 442.764C301.066 444.844 300.445 445.957 299.373 445.957ZM305.865 443.203H305.766V438.111H304.312V447H305.766V444.768L306.281 444.252L308.338 447H310.096L307.365 443.338L309.92 440.59H308.232L305.865 443.203ZM319.992 440.59H318.539V444.322C318.539 445.271 318.023 445.852 317.08 445.852C316.213 445.852 315.809 445.371 315.809 444.393V440.59H314.355V444.756C314.355 446.256 315.176 447.129 316.576 447.129C317.555 447.129 318.182 446.713 318.492 445.98H318.592V447H319.992V440.59ZM321.627 442.424C321.627 443.391 322.207 443.959 323.438 444.24L324.574 444.504C325.184 444.639 325.459 444.867 325.459 445.23C325.459 445.705 324.949 446.027 324.217 446.027C323.49 446.027 323.039 445.746 322.898 445.271H321.463C321.574 446.438 322.582 447.129 324.182 447.129C325.781 447.129 326.912 446.309 326.912 445.078C326.912 444.135 326.344 443.607 325.119 443.332L323.988 443.074C323.344 442.928 323.039 442.705 323.039 442.342C323.039 441.879 323.537 441.562 324.199 441.562C324.879 441.562 325.307 441.85 325.412 442.301H326.777C326.672 441.135 325.717 440.461 324.193 440.461C322.682 440.461 321.627 441.264 321.627 442.424ZM331.072 441.615C331.945 441.615 332.52 442.225 332.549 443.174H329.531C329.596 442.236 330.205 441.615 331.072 441.615ZM332.561 445.236C332.35 445.711 331.852 445.975 331.131 445.975C330.176 445.975 329.561 445.307 329.525 444.24V444.164H334.002V443.695C334.002 441.674 332.906 440.461 331.078 440.461C329.221 440.461 328.066 441.756 328.066 443.818C328.066 445.881 329.203 447.129 331.09 447.129C332.602 447.129 333.662 446.402 333.938 445.236H332.561ZM335.461 447H336.914V443.297C336.914 442.4 337.57 441.814 338.514 441.814C338.76 441.814 339.146 441.855 339.258 441.896V440.549C339.123 440.508 338.865 440.484 338.654 440.484C337.828 440.484 337.137 440.953 336.961 441.586H336.861V440.59H335.461V447ZM340.166 442.424C340.166 443.391 340.746 443.959 341.977 444.24L343.113 444.504C343.723 444.639 343.998 444.867 343.998 445.23C343.998 445.705 343.488 446.027 342.756 446.027C342.029 446.027 341.578 445.746 341.438 445.271H340.002C340.113 446.438 341.121 447.129 342.721 447.129C344.32 447.129 345.451 446.309 345.451 445.078C345.451 444.135 344.883 443.607 343.658 443.332L342.527 443.074C341.883 442.928 341.578 442.705 341.578 442.342C341.578 441.879 342.076 441.562 342.738 441.562C343.418 441.562 343.846 441.85 343.951 442.301H345.316C345.211 441.135 344.256 440.461 342.732 440.461C341.221 440.461 340.166 441.264 340.166 442.424Z" fill="white"/>
<g opacity="0.2" clip-path="url(#clip0_3051_42795)">
<path d="M57 248.624C56.9998 249.312 57.1353 249.992 57.399 250.628C57.6626 251.263 58.0491 251.84 58.5364 252.326C59.0238 252.813 59.6023 253.198 60.2391 253.461C60.8759 253.724 61.5583 253.859 62.2475 253.859H179.266C180.657 253.859 181.992 253.308 182.976 252.326C183.96 251.344 184.513 250.012 184.513 248.624C184.513 247.235 183.96 245.904 182.976 244.922C181.992 243.94 180.657 243.389 179.266 243.389H62.2475C61.5583 243.388 60.8759 243.524 60.2391 243.787C59.6023 244.05 59.0238 244.435 58.5364 244.922C58.0491 245.408 57.6626 245.985 57.399 246.62C57.1353 247.255 56.9998 247.936 57 248.624Z" fill="#0A1F44"/>
<path d="M284.926 262.962C284.926 263.65 285.062 264.331 285.325 264.966C285.589 265.601 285.975 266.179 286.463 266.665C286.95 267.151 287.529 267.537 288.165 267.8C288.802 268.063 289.485 268.198 290.174 268.198H407.192C408.584 268.198 409.919 267.646 410.903 266.664C411.887 265.682 412.44 264.351 412.44 262.962C412.44 261.574 411.887 260.242 410.903 259.26C409.919 258.278 408.584 257.726 407.192 257.726H290.174C288.782 257.726 287.447 258.277 286.463 259.259C285.479 260.241 284.926 261.572 284.926 262.961V262.962Z" fill="#0A1F44"/>
<path d="M128.156 233.89C128.155 234.578 128.291 235.259 128.554 235.894C128.818 236.53 129.204 237.107 129.692 237.594C130.179 238.08 130.757 238.466 131.394 238.73C132.031 238.993 132.714 239.129 133.403 239.129H250.422C251.111 239.129 251.794 238.993 252.43 238.73C253.067 238.467 253.646 238.081 254.133 237.595C254.62 237.108 255.007 236.531 255.27 235.896C255.534 235.26 255.669 234.58 255.669 233.892V233.892C255.669 232.503 255.116 231.172 254.132 230.19C253.148 229.208 251.814 228.657 250.422 228.657H133.403C132.012 228.657 130.678 229.208 129.693 230.189C128.709 231.171 128.156 232.502 128.156 233.89V233.89Z" fill="#0A1F44"/>
<path d="M86.3098 233.89C86.3095 234.578 86.4452 235.26 86.7092 235.896C86.9731 236.531 87.3601 237.109 87.8481 237.596C88.336 238.082 88.9153 238.468 89.5528 238.731C90.1903 238.994 90.8735 239.129 91.5634 239.129H105.763C107.155 239.128 108.489 238.576 109.473 237.594C110.457 236.612 111.01 235.281 111.01 233.892V233.892C111.01 232.504 110.457 231.172 109.473 230.19C108.489 229.209 107.154 228.657 105.763 228.657H91.5634C90.1718 228.657 88.8373 229.209 87.8532 230.19C86.8692 231.172 86.3162 232.504 86.3159 233.892L86.3098 233.89Z" fill="#0A1F44"/>
<path d="M96.4365 292.643C96.4365 293.33 96.5723 294.011 96.836 294.646C97.0997 295.282 97.4862 295.859 97.9735 296.345C98.4608 296.831 99.0393 297.217 99.6759 297.48C100.313 297.743 100.995 297.878 101.684 297.878H115.882C116.571 297.878 117.253 297.743 117.89 297.48C118.527 297.217 119.106 296.831 119.593 296.345C120.08 295.859 120.467 295.282 120.731 294.647C120.995 294.011 121.13 293.331 121.13 292.643V292.643C121.13 291.254 120.577 289.923 119.593 288.941C118.608 287.959 117.273 287.408 115.882 287.408H101.684C100.292 287.408 98.9579 287.96 97.9739 288.941C96.9899 289.923 96.4369 291.255 96.4365 292.643V292.643Z" fill="#0A1F44"/>
<path d="M384.701 276.988C384.701 277.676 384.566 278.357 384.302 278.992C384.038 279.627 383.652 280.205 383.165 280.691C382.677 281.177 382.099 281.563 381.462 281.826C380.825 282.089 380.143 282.224 379.454 282.224H262.435C261.746 282.224 261.064 282.089 260.427 281.826C259.79 281.563 259.212 281.177 258.724 280.691C258.237 280.205 257.851 279.627 257.587 278.992C257.323 278.357 257.188 277.676 257.188 276.988C257.188 276.301 257.323 275.62 257.587 274.985C257.851 274.349 258.237 273.772 258.724 273.286C259.212 272.8 259.79 272.414 260.427 272.151C261.064 271.888 261.746 271.753 262.435 271.753H379.454C380.143 271.753 380.826 271.888 381.462 272.151C382.099 272.414 382.677 272.8 383.165 273.286C383.652 273.772 384.039 274.349 384.302 274.985C384.566 275.62 384.701 276.301 384.701 276.988Z" fill="#0A1F44"/>
<path d="M420 277.797C420 278.485 419.864 279.166 419.601 279.801C419.337 280.436 418.95 281.013 418.463 281.5C417.975 281.986 417.397 282.372 416.76 282.635C416.123 282.898 415.441 283.034 414.751 283.034H400.553C399.864 283.034 399.182 282.898 398.545 282.635C397.908 282.372 397.33 281.986 396.842 281.5C396.355 281.013 395.969 280.436 395.705 279.801C395.441 279.165 395.306 278.484 395.306 277.797V277.797C395.306 277.109 395.441 276.428 395.704 275.793C395.968 275.157 396.355 274.58 396.842 274.094C397.329 273.607 397.908 273.222 398.545 272.958C399.182 272.695 399.864 272.56 400.553 272.56H414.751C416.143 272.56 417.477 273.111 418.462 274.093C419.446 275.074 419.999 276.405 420 277.794L420 277.797Z" fill="#0A1F44"/>
<path d="M109.162 252.213C109.162 253.958 108.643 255.665 107.672 257.117C106.7 258.568 105.318 259.699 103.702 260.368C102.085 261.036 100.307 261.211 98.5905 260.87C96.8744 260.53 95.298 259.689 94.0608 258.455C92.8235 257.221 91.9809 255.648 91.6395 253.936C91.2981 252.224 91.4733 250.45 92.1429 248.837C92.8124 247.224 93.9463 245.846 95.4012 244.876C96.856 243.906 98.5664 243.389 100.316 243.389C102.662 243.389 104.912 244.319 106.57 245.973C108.229 247.628 109.161 249.873 109.162 252.213V252.213Z" fill="#0A1F44"/>
<path d="M116.63 227.897C116.63 230.245 115.933 232.54 114.625 234.492C113.318 236.445 111.46 237.966 109.286 238.865C107.112 239.764 104.719 239.999 102.411 239.541C100.103 239.083 97.9829 237.952 96.3187 236.292C94.6546 234.632 93.5213 232.517 93.0622 230.214C92.603 227.911 92.8386 225.525 93.7392 223.355C94.6398 221.186 96.1649 219.332 98.1216 218.028C100.078 216.724 102.379 216.027 104.732 216.028C107.888 216.028 110.914 217.278 113.145 219.504C115.376 221.73 116.63 224.749 116.63 227.897V227.897Z" fill="#0A1F44"/>
<path d="M295.763 206.088C295.763 207.477 295.21 208.808 294.226 209.789C293.242 210.771 291.907 211.322 290.516 211.323H276.318C275.629 211.323 274.947 211.187 274.31 210.924C273.673 210.661 273.094 210.275 272.607 209.789C272.12 209.303 271.733 208.725 271.47 208.09C271.206 207.455 271.071 206.774 271.071 206.086C271.071 204.698 271.624 203.366 272.608 202.384C273.592 201.402 274.927 200.851 276.318 200.851H290.516C291.908 200.851 293.243 201.403 294.227 202.385C295.211 203.368 295.764 204.7 295.763 206.088V206.088Z" fill="#0A1F44"/>
<path d="M265.444 200.094C265.444 202.441 266.142 204.736 267.449 206.688C268.756 208.64 270.614 210.162 272.788 211.06C274.962 211.959 277.354 212.194 279.662 211.737C281.97 211.279 284.09 210.149 285.754 208.489C287.418 206.83 288.552 204.715 289.011 202.413C289.471 200.11 289.236 197.724 288.336 195.554C287.436 193.385 285.912 191.531 283.956 190.226C282 188.921 279.7 188.224 277.347 188.223C275.784 188.223 274.237 188.529 272.792 189.125C271.348 189.722 270.036 190.596 268.931 191.698C267.825 192.801 266.948 194.109 266.35 195.55C265.752 196.991 265.444 198.535 265.444 200.094V200.094Z" fill="#0A1F44"/>
<path d="M401.853 259.373C401.853 261.118 401.335 262.825 400.363 264.276C399.39 265.727 398.009 266.859 396.392 267.527C394.776 268.195 392.997 268.369 391.281 268.029C389.565 267.688 387.989 266.848 386.752 265.613C385.515 264.379 384.672 262.806 384.331 261.094C383.99 259.382 384.165 257.608 384.835 255.995C385.504 254.382 386.638 253.004 388.093 252.034C389.548 251.065 391.258 250.547 393.008 250.547C395.354 250.547 397.604 251.477 399.263 253.132C400.921 254.787 401.853 257.032 401.853 259.373V259.373Z" fill="#0A1F44"/>
<path d="M388.604 253.515C388.605 256.415 387.743 259.25 386.128 261.662C384.513 264.074 382.218 265.953 379.532 267.063C376.846 268.173 373.891 268.464 371.04 267.898C368.188 267.333 365.569 265.936 363.514 263.885C361.458 261.835 360.058 259.222 359.491 256.377C358.924 253.533 359.215 250.584 360.327 247.905C361.44 245.225 363.324 242.935 365.741 241.324C368.158 239.712 371 238.852 373.907 238.852C377.805 238.853 381.543 240.397 384.299 243.147C387.055 245.897 388.604 249.626 388.604 253.515V253.515Z" fill="#0A1F44"/>
<path d="M342.223 267.002C354.742 266.802 364.727 256.515 364.526 244.025C364.325 231.536 354.014 221.573 341.495 221.774C328.977 221.975 318.991 232.262 319.192 244.751C319.393 257.241 329.705 267.203 342.223 267.002Z" fill="#0A1F44"/>
<path d="M318.475 262.256C328.983 251.773 328.983 234.776 318.475 224.293C307.968 213.81 290.931 213.81 280.424 224.293C269.916 234.776 269.916 251.773 280.424 262.256C290.931 272.74 307.968 272.74 318.475 262.256Z" fill="#0A1F44"/>
<path d="M368.383 286.416C368.383 289.315 367.521 292.15 365.907 294.562C364.292 296.973 361.996 298.852 359.311 299.962C356.626 301.072 353.67 301.362 350.82 300.796C347.969 300.23 345.35 298.834 343.295 296.783C341.239 294.733 339.84 292.12 339.273 289.276C338.706 286.432 338.997 283.484 340.109 280.804C341.221 278.125 343.105 275.835 345.522 274.224C347.939 272.613 350.78 271.753 353.687 271.753C357.585 271.753 361.323 273.298 364.079 276.048C366.835 278.797 368.383 282.527 368.383 286.416V286.416Z" fill="#0A1F44"/>
<path d="M133.055 261.038C133.055 263.939 132.193 266.774 130.578 269.185C128.963 271.597 126.667 273.476 123.981 274.586C121.296 275.696 118.34 275.986 115.489 275.42C112.638 274.854 110.019 273.458 107.964 271.407C105.908 269.356 104.508 266.743 103.941 263.899C103.374 261.054 103.665 258.106 104.778 255.426C105.89 252.747 107.774 250.457 110.191 248.846C112.609 247.234 115.45 246.374 118.357 246.375C122.255 246.375 125.994 247.92 128.75 250.67C131.506 253.42 133.055 257.149 133.055 261.038V261.038Z" fill="#0A1F44"/>
<path d="M179.741 278.304C180.863 263.559 169.792 250.699 155.013 249.58C140.234 248.461 127.345 259.507 126.223 274.251C125.101 288.996 136.173 301.855 150.951 302.974C165.73 304.093 178.62 293.048 179.741 278.304Z" fill="#0A1F44"/>
<path d="M181.629 216.024C181.629 220.044 180.434 223.974 178.196 227.316C175.957 230.659 172.776 233.264 169.053 234.802C165.33 236.341 161.234 236.743 157.282 235.959C153.331 235.175 149.701 233.239 146.851 230.396C144.002 227.554 142.062 223.932 141.276 219.99C140.49 216.047 140.893 211.96 142.435 208.246C143.977 204.533 146.588 201.358 149.939 199.125C153.289 196.892 157.228 195.7 161.257 195.7C166.66 195.7 171.842 197.841 175.662 201.653C179.483 205.464 181.629 210.634 181.629 216.024V216.024Z" fill="#0A1F44"/>
<path d="M221.767 211.897C222.972 197.238 212.039 184.381 197.347 183.178C182.654 181.976 169.766 192.884 168.561 207.542C167.356 222.2 178.289 235.058 192.982 236.26C207.674 237.463 220.562 226.555 221.767 211.897Z" fill="#0A1F44"/>
<path d="M151.43 226.852C151.431 228.731 150.873 230.567 149.827 232.13C148.781 233.692 147.295 234.91 145.555 235.629C143.816 236.348 141.901 236.537 140.054 236.171C138.207 235.805 136.511 234.9 135.179 233.572C133.847 232.244 132.94 230.551 132.573 228.709C132.205 226.866 132.394 224.956 133.114 223.22C133.835 221.485 135.055 220.001 136.621 218.957C138.186 217.914 140.027 217.356 141.91 217.356C144.435 217.356 146.856 218.357 148.641 220.137C150.426 221.918 151.43 224.333 151.43 226.852V226.852Z" fill="#0A1F44"/>
</g>
<g clip-path="url(#clip1_3051_42795)">
<path d="M96.9909 124.511L142 102L92.2952 121.201L96.314 122.356L96.9909 124.511Z" fill="white"/>
<path opacity="0.2" d="M96.3137 122.355L142 102L96.9907 124.511L96.3137 122.355Z" fill="#231F20"/>
<path d="M96.9907 124.511L141.999 102L101.397 133.169L96.9907 124.511Z" fill="white"/>
<path opacity="0.2" d="M96.9907 124.511L141.999 102L103.681 131.416L96.9907 124.511Z" fill="#231F20"/>
<path d="M96.9907 124.511L141.999 102L112.147 133.227L96.9907 124.511Z" fill="white"/>
<path d="M55.5144 161.076C60.2724 162.844 64.7599 165.369 69.745 166.563C72.7599 167.289 75.5243 167.046 78.4964 166.309C83.9535 164.952 90.6034 162.187 93.8948 157.411C96.7685 153.238 94.5209 147.199 89.411 146.041C85.4143 145.138 82.8591 149.358 82.6985 152.741C82.3687 159.763 90.9081 160.95 96.0981 159.4C104.407 156.914 104.82 145.61 103.784 138.714C103.605 137.521 101.702 137.626 101.885 138.816C102.855 145.236 102.764 155.452 95.0806 157.749C90.3848 159.153 83.3425 157.433 84.832 151.35C85.1981 149.811 86.3621 148.127 88.0458 147.873C90.487 147.51 92.6578 150.152 93.2942 152.188C94.1177 154.823 91.863 157.298 89.9999 158.829C87.4965 160.887 84.4693 162.317 81.4425 163.438C78.7102 164.45 75.6194 165.399 72.6582 165.143C66.8751 164.646 61.7365 161.384 56.4057 159.41C55.2675 158.989 54.3889 160.665 55.5346 161.091L55.5144 161.076Z" fill="white"/>
</g>
<path d="M294.529 64.6939L292.881 94.5344L291.234 64.6939C291.231 64.2678 291.391 63.8569 291.682 63.5463C291.972 63.2357 292.37 63.0492 292.794 63.0255C293.217 63.0018 293.634 63.1427 293.957 63.4189C294.28 63.6952 294.484 64.0857 294.529 64.5095C294.533 64.5709 294.533 64.6325 294.529 64.6939V64.6939Z" fill="#FA4A0C"/>
<path d="M294.528 151L292.881 121.16L291.233 151C291.21 151.224 291.232 151.45 291.298 151.665C291.365 151.88 291.473 152.079 291.618 152.25C291.764 152.421 291.942 152.561 292.142 152.661C292.343 152.76 292.561 152.818 292.785 152.831C293.008 152.843 293.232 152.81 293.442 152.733C293.652 152.656 293.844 152.537 294.008 152.383C294.171 152.229 294.301 152.044 294.39 151.838C294.48 151.632 294.527 151.41 294.528 151.185C294.532 151.123 294.532 151.062 294.528 151V151Z" fill="#FA4A0C"/>
<path d="M324.4 78.5031L302.22 98.437L322.057 76.151C322.2 75.9826 322.376 75.8446 322.573 75.7452C322.77 75.6457 322.984 75.5868 323.204 75.5719C323.424 75.5571 323.645 75.5865 323.853 75.6585C324.062 75.7305 324.254 75.8437 324.418 75.9913C324.582 76.139 324.716 76.3181 324.81 76.5183C324.905 76.7184 324.958 76.9355 324.968 77.1568C324.978 77.378 324.943 77.599 324.867 77.8068C324.791 78.0145 324.674 78.2048 324.523 78.3664L324.4 78.5031Z" fill="#FA4A0C"/>
<path d="M263.658 139.534L283.497 117.248L261.315 137.178C261.153 137.323 261.021 137.499 260.927 137.695C260.832 137.891 260.777 138.105 260.765 138.322C260.753 138.54 260.783 138.758 260.855 138.964C260.926 139.17 261.038 139.359 261.182 139.522C261.327 139.684 261.501 139.817 261.697 139.912C261.892 140.006 262.105 140.061 262.321 140.074C262.538 140.086 262.755 140.056 262.96 139.984C263.165 139.912 263.353 139.8 263.515 139.655C263.565 139.618 263.613 139.578 263.658 139.534V139.534Z" fill="#FA4A0C"/>
<path d="M335.818 109.5L306.116 107.847L335.818 106.192C336.255 106.168 336.683 106.318 337.009 106.611C337.335 106.904 337.532 107.315 337.556 107.754C337.58 108.193 337.431 108.623 337.139 108.951C336.847 109.278 336.438 109.476 336.002 109.5C335.941 109.504 335.879 109.504 335.818 109.5Z" fill="#FA4A0C"/>
<path d="M249.911 109.5L279.612 107.847L249.911 106.192C249.474 106.168 249.046 106.318 248.72 106.611C248.394 106.904 248.197 107.315 248.172 107.754C248.148 108.193 248.298 108.623 248.59 108.951C248.881 109.278 249.291 109.476 249.727 109.5C249.788 109.504 249.849 109.504 249.911 109.5V109.5Z" fill="#FA4A0C"/>
<path d="M322.388 139.231L302.32 117.162L324.688 136.879C324.984 137.177 325.155 137.577 325.168 137.998C325.18 138.418 325.033 138.827 324.756 139.143C324.479 139.458 324.093 139.656 323.677 139.695C323.26 139.735 322.844 139.614 322.513 139.357C322.463 139.324 322.421 139.281 322.388 139.231V139.231Z" fill="#FA4A0C"/>
<path d="M261.033 78.8284L283.401 98.5324L263.331 76.4628C263.03 76.1643 262.626 75.9934 262.203 75.9853C261.78 75.9772 261.37 76.1326 261.057 76.4193C260.745 76.7061 260.554 77.1024 260.523 77.5265C260.493 77.9506 260.626 78.3702 260.895 78.6986C260.938 78.7448 260.985 78.7881 261.033 78.8284V78.8284Z" fill="#FA4A0C"/>
<path d="M301.493 80.0606L295.197 99.1611L299.349 79.4572C299.422 79.1805 299.598 78.9424 299.84 78.792C300.082 78.6415 300.373 78.5903 300.652 78.6486C300.93 78.707 301.177 78.8706 301.339 79.1058C301.501 79.3409 301.568 79.6297 301.525 79.9126L301.493 80.0606Z" fill="#FA4A0C"/>
<path d="M286.384 136.203L290.536 116.504L284.24 135.629C284.19 135.774 284.171 135.928 284.183 136.08C284.195 136.233 284.238 136.382 284.31 136.517C284.381 136.652 284.48 136.771 284.599 136.867C284.718 136.962 284.856 137.032 285.003 137.072C285.15 137.112 285.304 137.121 285.455 137.098C285.605 137.076 285.75 137.023 285.88 136.942C286.009 136.861 286.121 136.755 286.207 136.629C286.294 136.503 286.354 136.36 286.384 136.21V136.203Z" fill="#FA4A0C"/>
<path d="M318.517 94.3341L300.614 103.382L317.411 92.4169C317.533 92.3302 317.672 92.2691 317.818 92.2373C317.964 92.2055 318.116 92.2037 318.263 92.2319C318.409 92.2601 318.549 92.3178 318.674 92.4016C318.798 92.4853 318.904 92.5934 318.986 92.7193C319.067 92.8452 319.123 92.9864 319.149 93.1344C319.175 93.2824 319.171 93.4342 319.138 93.5807C319.104 93.7272 319.042 93.8654 318.954 93.987C318.866 94.1086 318.754 94.2111 318.626 94.2885L318.517 94.3341Z" fill="#FA4A0C"/>
<path d="M268.322 123.293L285.124 112.328L267.22 121.376C266.975 121.519 266.793 121.751 266.712 122.024C266.63 122.297 266.656 122.591 266.783 122.846C266.911 123.101 267.13 123.297 267.397 123.394C267.663 123.492 267.957 123.484 268.218 123.371C268.255 123.348 268.29 123.323 268.322 123.293V123.293Z" fill="#FA4A0C"/>
<path d="M320.511 116.517L301.5 110.192L321.112 114.366C321.387 114.439 321.625 114.616 321.774 114.859C321.924 115.102 321.975 115.394 321.917 115.675C321.859 115.955 321.696 116.202 321.462 116.365C321.228 116.528 320.941 116.595 320.659 116.552L320.511 116.517Z" fill="#FA4A0C"/>
<path d="M264.639 101.333L284.247 105.507L265.233 99.1792C265.094 99.1327 264.948 99.1141 264.802 99.1244C264.656 99.1348 264.514 99.1739 264.383 99.2396C264.252 99.3052 264.135 99.3961 264.04 99.5071C263.944 99.618 263.871 99.7468 263.824 99.8861C263.778 100.025 263.76 100.173 263.77 100.319C263.78 100.466 263.819 100.609 263.884 100.74C263.95 100.871 264.04 100.989 264.151 101.085C264.261 101.181 264.389 101.255 264.528 101.301C264.564 101.315 264.601 101.326 264.639 101.333V101.333Z" fill="#FA4A0C"/>
<path d="M306.576 133.478L297.391 115.593L308.496 132.36C308.64 132.606 308.684 132.899 308.619 133.177C308.555 133.455 308.387 133.698 308.151 133.856C307.914 134.014 307.626 134.075 307.346 134.026C307.066 133.977 306.815 133.823 306.645 133.594C306.622 133.556 306.603 133.518 306.586 133.478H306.576Z" fill="#FA4A0C"/>
<path d="M277.242 83.3529L288.347 100.12L279.161 82.2236C279.088 82.0945 278.991 81.9814 278.874 81.8907C278.757 81.8 278.623 81.7336 278.48 81.6955C278.337 81.6573 278.188 81.6482 278.042 81.6685C277.895 81.6888 277.755 81.7382 277.627 81.8138C277.5 81.8894 277.389 81.9897 277.301 82.1088C277.213 82.228 277.149 82.3635 277.114 82.5077C277.078 82.6518 277.072 82.8016 277.095 82.9483C277.117 83.095 277.169 83.2356 277.247 83.362L277.242 83.3529Z" fill="#FA4A0C"/>
<path d="M231.908 87.697L230.636 110.718L229.365 87.697C229.352 87.3619 229.471 87.0349 229.695 86.7866C229.919 86.5383 230.232 86.3884 230.565 86.3693C230.899 86.3502 231.226 86.4634 231.477 86.6844C231.728 86.9055 231.883 87.2168 231.908 87.5513C231.911 87.5998 231.911 87.6485 231.908 87.697Z" fill="#FA9330"/>
<path d="M231.908 154.279L230.636 131.255L229.358 154.279C229.345 154.449 229.366 154.62 229.419 154.782C229.472 154.943 229.558 155.093 229.669 155.221C229.781 155.35 229.917 155.454 230.07 155.529C230.222 155.603 230.388 155.647 230.558 155.656C230.727 155.666 230.897 155.641 231.056 155.583C231.216 155.526 231.363 155.437 231.488 155.322C231.613 155.207 231.714 155.068 231.785 154.913C231.856 154.758 231.895 154.591 231.901 154.42C231.907 154.373 231.909 154.326 231.908 154.279Z" fill="#FA9330"/>
<path d="M254.969 98.3526L237.868 113.728L253.172 96.5448C253.401 96.3067 253.712 96.1669 254.042 96.1548C254.371 96.1427 254.692 96.2592 254.937 96.48C255.183 96.7007 255.334 97.0084 255.358 97.3384C255.383 97.6685 255.279 97.9953 255.069 98.2502L254.969 98.3526Z" fill="#FA9330"/>
<path d="M208.103 145.436L223.409 128.252L206.308 143.628C206.176 143.738 206.068 143.873 205.989 144.026C205.91 144.179 205.863 144.346 205.851 144.518C205.838 144.69 205.86 144.862 205.915 145.025C205.97 145.188 206.058 145.338 206.172 145.466C206.286 145.595 206.425 145.698 206.58 145.772C206.735 145.845 206.903 145.886 207.074 145.892C207.245 145.898 207.416 145.87 207.576 145.808C207.736 145.747 207.882 145.653 208.005 145.534L208.103 145.436Z" fill="#FA9330"/>
<path d="M263.776 122.269L240.859 120.992L263.776 119.714C263.945 119.701 264.115 119.722 264.276 119.776C264.437 119.829 264.586 119.915 264.714 120.027C264.842 120.139 264.945 120.276 265.02 120.429C265.094 120.583 265.137 120.749 265.147 120.919C265.156 121.09 265.131 121.26 265.074 121.421C265.017 121.581 264.929 121.729 264.814 121.854C264.7 121.98 264.561 122.081 264.407 122.153C264.253 122.224 264.086 122.263 263.917 122.269H263.776Z" fill="#FA9330"/>
<path d="M197.497 122.269L220.413 120.992L197.497 119.714C197.328 119.701 197.158 119.722 196.997 119.776C196.836 119.829 196.687 119.915 196.559 120.027C196.431 120.139 196.327 120.276 196.253 120.429C196.179 120.583 196.135 120.749 196.126 120.919C196.117 121.09 196.141 121.26 196.198 121.421C196.256 121.581 196.344 121.729 196.458 121.854C196.573 121.98 196.712 122.081 196.866 122.153C197.02 122.224 197.187 122.263 197.356 122.269H197.497Z" fill="#FA9330"/>
<path d="M253.417 145.204L237.925 128.18L255.178 143.389C255.431 143.613 255.586 143.929 255.608 144.267C255.63 144.605 255.517 144.939 255.294 145.194C255.072 145.448 254.757 145.604 254.421 145.626C254.084 145.648 253.752 145.535 253.498 145.311C253.47 145.277 253.443 145.242 253.417 145.204Z" fill="#FA9330"/>
<path d="M206.088 98.6124L223.341 113.822L207.849 96.7977C207.736 96.6736 207.6 96.573 207.449 96.5017C207.298 96.4304 207.134 96.3897 206.967 96.382C206.8 96.3743 206.633 96.3997 206.476 96.4568C206.318 96.5138 206.174 96.6014 206.05 96.7146C205.927 96.8278 205.827 96.9643 205.756 97.1164C205.685 97.2684 205.644 97.433 205.637 97.6007C205.629 97.7685 205.654 97.9362 205.711 98.0942C205.768 98.2521 205.855 98.3973 205.968 98.5213C206.006 98.5539 206.046 98.5842 206.088 98.6124Z" fill="#FA9330"/>
<path d="M237.295 99.5593L232.436 114.309L235.64 99.0994C235.696 98.8853 235.832 98.7009 236.019 98.5845C236.207 98.468 236.431 98.4284 236.647 98.4737C236.863 98.5191 237.053 98.6458 237.178 98.828C237.303 99.0101 237.354 99.2336 237.32 99.4523C237.314 99.4884 237.305 99.5241 237.295 99.5593V99.5593Z" fill="#FA9330"/>
<path d="M225.637 142.868L228.841 127.658L223.983 142.408C223.942 142.517 223.923 142.633 223.928 142.749C223.933 142.865 223.961 142.979 224.011 143.084C224.061 143.189 224.132 143.283 224.218 143.359C224.305 143.436 224.407 143.495 224.516 143.531C224.626 143.568 224.742 143.582 224.858 143.572C224.973 143.563 225.085 143.53 225.188 143.475C225.29 143.421 225.38 143.346 225.453 143.256C225.526 143.166 225.58 143.061 225.612 142.95C225.622 142.923 225.63 142.896 225.637 142.868V142.868Z" fill="#FA9330"/>
<path d="M250.435 110.564L236.61 117.547L249.573 109.075C249.667 109.005 249.775 108.955 249.889 108.928C250.003 108.901 250.121 108.898 250.236 108.919C250.352 108.94 250.461 108.984 250.559 109.049C250.657 109.114 250.74 109.199 250.804 109.297C250.868 109.396 250.911 109.507 250.931 109.623C250.951 109.739 250.946 109.857 250.919 109.972C250.891 110.086 250.841 110.194 250.77 110.288C250.7 110.382 250.611 110.46 250.509 110.518C250.486 110.536 250.461 110.551 250.435 110.564V110.564Z" fill="#FA9330"/>
<path d="M211.699 132.927L224.662 124.437L210.838 131.415C210.642 131.522 210.496 131.701 210.429 131.915C210.362 132.129 210.381 132.36 210.481 132.56C210.581 132.76 210.755 132.914 210.965 132.987C211.176 133.061 211.406 133.05 211.609 132.957L211.699 132.927Z" fill="#FA9330"/>
<path d="M251.971 127.676L237.288 122.799L252.426 126.014C252.541 126.033 252.65 126.075 252.748 126.138C252.846 126.2 252.93 126.282 252.996 126.378C253.061 126.475 253.107 126.583 253.13 126.697C253.152 126.812 253.152 126.929 253.128 127.044C253.104 127.158 253.057 127.266 252.991 127.361C252.924 127.457 252.839 127.537 252.74 127.599C252.642 127.66 252.532 127.701 252.417 127.719C252.302 127.736 252.185 127.73 252.073 127.701L251.971 127.676Z" fill="#FA9330"/>
<path d="M208.86 115.964L223.999 119.184L209.325 114.307C209.109 114.235 208.874 114.252 208.67 114.354C208.467 114.457 208.313 114.636 208.241 114.853C208.17 115.07 208.187 115.306 208.289 115.51C208.391 115.715 208.57 115.87 208.785 115.941L208.86 115.964Z" fill="#FA9330"/>
<path d="M241.215 140.764L234.128 126.968L242.691 139.908C242.802 140.098 242.836 140.324 242.787 140.539C242.737 140.754 242.607 140.942 242.424 141.064C242.241 141.186 242.018 141.233 241.802 141.195C241.585 141.157 241.392 141.037 241.261 140.859L241.215 140.764Z" fill="#FA9330"/>
<path d="M218.584 102.087L227.146 115.022L220.06 101.226C219.951 101.03 219.771 100.884 219.557 100.82C219.344 100.755 219.113 100.776 218.915 100.879C218.716 100.982 218.566 101.159 218.495 101.372C218.424 101.584 218.438 101.816 218.535 102.019C218.55 102.043 218.566 102.065 218.584 102.087V102.087Z" fill="#FA9330"/>
<path d="M186.505 231.068L216.685 231.105L216.66 249.299L216.608 293.634V298.94C216.643 299.64 216.506 300.339 216.21 300.974C215.914 301.609 215.467 302.161 214.908 302.582C213.64 303.476 212.114 303.923 210.566 303.855L192.461 303.832C190.913 303.897 189.388 303.444 188.123 302.546C187.566 302.125 187.12 301.572 186.825 300.937C186.53 300.301 186.395 299.603 186.433 298.903V293.598L186.485 249.263L186.508 231.068H141.196V231.009H139V267.41H141.196L141.146 312.537C141.146 315.064 142.155 315.932 144.672 315.934L258.779 316.062C261.294 316.062 261.854 315.212 261.856 312.685L261.906 267.569H263.801V231.169L244.449 231.144H229.503C230.036 231.144 230.557 231.121 231.074 231.089L186.505 231.068Z" fill="#5B3D80"/>
<path d="M216.685 232.73H186.423V315.913H216.685V232.73Z" fill="#B57BFF"/>
<path opacity="0.1" d="M261.904 267.394H141.196V270.328H261.904V267.394Z" fill="#231F20"/>
<path opacity="0.1" d="M220.488 231.007C219.978 231.151 219.451 231.222 218.922 231.216H207.697L207.851 231.021H195.817L195.958 231.201H184.676C184.214 231.201 183.752 231.145 183.303 231.034H172.855C173.501 232.446 174.395 233.728 175.493 234.821C176.68 236.052 178.105 237.026 179.681 237.683C181.257 238.339 182.95 238.664 184.656 238.637H219.871C222.98 238.461 225.91 237.118 228.08 234.875C229.199 233.766 230.108 232.46 230.761 231.023L220.488 231.007Z" fill="#231F20"/>
<path d="M192.529 235.887H219.876C223.222 235.643 226.344 234.104 228.584 231.595C230.825 229.085 232.009 225.801 231.888 222.432C231.767 219.064 230.35 215.873 227.936 213.533C225.521 211.192 222.297 209.884 218.942 209.883C217.085 209.799 215.235 210.159 213.544 210.935C211.853 211.711 210.37 212.88 209.218 214.345L201.798 223.926L194.405 214.327C193.257 212.858 191.778 211.684 190.089 210.903C188.4 210.122 186.55 209.757 184.692 209.837C181.255 209.833 177.958 211.2 175.525 213.639C173.091 216.078 171.722 219.387 171.718 222.84C171.714 226.293 173.075 229.606 175.502 232.051C177.929 234.495 181.224 235.871 184.66 235.875L192.529 235.887ZM214.94 219.115C215.424 218.529 216.035 218.062 216.727 217.751C217.419 217.44 218.173 217.293 218.931 217.321C220.403 217.321 221.816 217.909 222.857 218.955C223.898 220.001 224.483 221.42 224.483 222.899C224.483 224.379 223.898 225.798 222.857 226.844C221.816 227.89 220.403 228.478 218.931 228.478H207.706L214.94 219.115ZM180.74 226.804C179.958 226.024 179.425 225.028 179.209 223.943C178.993 222.857 179.103 221.731 179.526 220.709C179.949 219.687 180.666 218.815 181.584 218.203C182.502 217.592 183.581 217.269 184.683 217.276C185.443 217.252 186.198 217.403 186.89 217.719C187.582 218.035 188.192 218.506 188.674 219.097L195.953 228.462H184.681C183.946 228.472 183.217 228.33 182.539 228.045C181.861 227.76 181.249 227.339 180.74 226.806V226.804Z" fill="#B57BFF"/>
<path d="M312.156 316.061H274.244V240.888C274.244 231.519 284.394 216.59 284.394 216.59H300.648C300.648 216.59 312.156 230.073 312.156 240.888V316.061Z" fill="#7F471C"/>
<path d="M292.686 247.007C296.477 247.007 299.551 243.919 299.551 240.11C299.551 236.301 296.477 233.213 292.686 233.213C288.895 233.213 285.822 236.301 285.822 240.11C285.822 243.919 288.895 247.007 292.686 247.007Z" fill="#FEC79C"/>
<path d="M300.648 216.278H284.394L287.837 167.858H296.872L300.648 216.278Z" fill="#FFE3CD"/>
<path d="M298.674 158.999H286.366V167.858H298.674V158.999Z" fill="#FEC79C"/>
<path d="M311.508 262.979H274.894V304.119H311.508V262.979Z" fill="#FFE3CD"/>
<path opacity="0.1" d="M312.155 240.893C311.755 235.607 310.054 230.503 307.204 226.042C307.365 226.772 307.498 227.501 307.614 228.241C310.682 247.546 312.62 266.529 306.968 285.349C305.158 290.42 302.774 295.265 299.863 299.789C296.48 306.197 291.165 311.364 284.679 314.552C283.678 315.047 282.675 315.549 281.672 316.059H312.153L312.155 240.893Z" fill="#231F20"/>
<path d="M277.99 224.935V195.213H237.016V224.937C237.016 224.937 237.015 245.639 256.052 246.649V308.084H256.22C253.065 312.004 242.439 316.053 242.439 316.053H272.55C272.55 316.053 261.738 311.31 259.121 308.084C259.058 308.082 258.995 308.077 258.932 308.068V246.649C277.971 245.648 277.99 224.935 277.99 224.935Z" fill="white"/>
<path d="M258.631 208.758C254.006 212.749 246.736 212.526 240.274 213.744V224.306C240.274 224.306 240.274 242.608 257.498 242.608C274.722 242.608 274.721 224.306 274.721 224.306V203.548C268.897 203.189 263.151 205.049 258.631 208.758V208.758Z" fill="#FFE3CD"/>
<ellipse opacity="0.5" cx="226" cy="332" rx="86" ry="4" fill="#0A1F44"/>
<ellipse opacity="0.5" cx="46" cy="316" rx="46" ry="4" fill="#0A1F44"/>
<ellipse opacity="0.3" cx="444" cy="300" rx="46" ry="4" fill="#0A1F44"/>
<ellipse opacity="0.3" cx="457" cy="304" rx="46" ry="4" fill="#0A1F44"/>
<ellipse opacity="0.3" cx="476" cy="300" rx="46" ry="4" fill="#0A1F44"/>
<path opacity="0.3" d="M169.455 34.7527C168.655 34.5427 167.865 34.3927 167.125 34.2727C161.285 33.2727 155.385 35.1927 149.985 37.2727C143.985 39.5427 138.985 42.3727 134.665 47.0827C132.137 49.6739 129.974 52.5974 128.235 55.7727C125.895 60.1827 124.475 67.6527 128.745 71.5627C131.215 73.9427 134.935 73.9727 137.925 72.7827C141.345 71.4127 142.515 68.9028 144.295 65.9328C145.298 64.1052 146.393 62.3296 147.575 60.6128C150.505 56.6728 154.785 55.0728 159.465 54.1728C163.875 53.3128 168.695 53.0327 172.465 50.2827C175.345 48.1827 177.975 44.2828 177.005 40.5528C176.115 37.2028 172.695 35.5727 169.455 34.7527Z" fill="#0A1F44"/>
<path opacity="0.3" d="M39.3358 258.199C39.339 258.373 39.3062 258.547 39.2396 258.708C39.1731 258.869 39.0741 259.015 38.9487 259.137L28.9847 269.104L27.1097 270.975C26.8605 271.221 26.5245 271.358 26.1743 271.358C25.8242 271.358 25.488 271.221 25.2388 270.975L23.3678 269.104L18.3838 264.12C18.1379 263.87 18 263.534 18 263.184C18 262.834 18.1379 262.498 18.3838 262.249L20.2548 260.374C20.5047 260.127 20.8414 259.99 21.1923 259.99C21.5431 259.99 21.8798 260.127 22.1298 260.374L26.1758 264.435L35.2238 255.387C35.4721 255.139 35.8086 255 36.1593 255C36.51 255 36.8464 255.139 37.0947 255.387L38.9658 257.258C39.0884 257.381 39.1845 257.528 39.2482 257.69C39.3118 257.852 39.3416 258.025 39.3358 258.199V258.199Z" fill="white"/>
<defs>
<clipPath id="clip0_3051_42795">
<rect width="363" height="124" fill="white" transform="translate(57 181)"/>
</clipPath>
<clipPath id="clip1_3051_42795">
<rect width="87" height="65" fill="white" transform="translate(55 102)"/>
</clipPath>
</defs>
</svg>
