<?xml version="1.0" standalone="no"?>
<!DOCTYPE svg PUBLIC "-//W3C//DTD SVG 1.1//EN" "http://www.w3.org/Graphics/SVG/1.1/DTD/svg11.dtd" >
<svg xmlns="http://www.w3.org/2000/svg">
<metadata>Generated by IcoMoon</metadata>
<defs>
<font id="icomoon" horiz-adv-x="1024">
<font-face units-per-em="1024" ascent="960" descent="-64" />
<missing-glyph horiz-adv-x="1024" />
<glyph unicode="&#x20;" horiz-adv-x="512" d="" />
<glyph unicode="&#xe900;" glyph-name="angle-left" horiz-adv-x="683" d="M401.911 447.995l-302.080-302.079c-33.084-33.283-33.084-87.036 0-120.316 16.026-16.162 37.837-25.242 60.587-25.242 22.758 0 44.57 9.079 60.587 25.242l361.816 361.808c16.155 16.026 25.242 37.837 25.242 60.587s-9.086 44.561-25.242 60.587l-361.816 366.080c-16.102 15.974-37.905 24.875-60.587 24.747-22.682 0.128-44.476-8.772-60.587-24.747-33.084-33.28-33.084-87.040 0-120.32l302.080-306.347z" />
<glyph unicode="&#xe901;" glyph-name="arrow-circle-left" d="M327.324 483.342c-4.531-4.733-8.084-10.314-10.453-16.427-4.978-12.12-4.978-25.711 0-37.831 2.369-6.113 5.922-11.694 10.453-16.427l149.333-149.333c19.519-19.519 51.166-19.519 70.684 0s19.519 51.166 0 70.684l-64.711 64.213h178.702c27.492 0 49.778 22.286 49.778 49.778s-22.286 49.778-49.778 49.778h-178.702l64.711 64.213c9.424 9.347 14.723 22.070 14.723 35.342s-5.299 25.995-14.723 35.342c-9.35 9.424-22.073 14.723-35.342 14.723-13.272 0-25.995-5.299-35.342-14.723l-149.333-149.333zM14.222 448c0-274.913 222.863-497.778 497.778-497.778 274.913 0 497.778 222.865 497.778 497.778 0 274.915-222.865 497.778-497.778 497.778-274.915 0-497.778-222.863-497.778-497.778zM910.222 448c0-219.932-178.29-398.222-398.222-398.222s-398.222 178.29-398.222 398.222c0 219.932 178.29 398.222 398.222 398.222 105.614 0 206.908-41.955 281.589-116.637 74.675-74.681 116.634-175.971 116.634-281.585z" />
<glyph unicode="&#xe902;" glyph-name="bag" horiz-adv-x="1152" d="M949.331 768h-160v53.333c0 58.911-47.75 106.667-106.662 106.667h-213.336c-58.91 0-106.666-47.756-106.666-106.667v-53.333h-160c-88.365 0-160-71.635-160-160v-480c0-88.365 71.635-160 160-160h746.665c88.371 0 160 71.635 160 160v480c0 88.365-71.629 160-160 160zM469.332 821.333h213.336v-53.333h-213.336v53.333zM1002.669 128c0-29.459-23.878-53.331-53.338-53.331h-746.665c-29.455 0-53.334 23.872-53.334 53.331v299.2l249.6-85.867c5.663-0.768 11.404-0.768 17.067 0h320.001c5.779 0.107 11.526 1.003 17.069 2.667l249.6 83.2v-299.2zM1002.669 539.733l-275.2-91.733h-302.936l-275.2 91.733v68.267c0 29.455 23.878 53.333 53.334 53.333h746.665c29.459 0 53.338-23.878 53.338-53.333v-68.267z" />
<glyph unicode="&#xe903;" glyph-name="flower1" horiz-adv-x="1075" d="M930.816 710.147c-52.168 27.42-113.009 33.302-169.472 16.384-5.709 119.274-104.074 213.044-223.488 213.044-119.406 0-217.774-93.77-223.485-213.044-56.305 16.957-116.972 11.641-169.471-14.848-79.016-41.532-125.786-126.058-118.999-215.064s65.831-165.468 150.231-194.534c-26.359-37.509-40.648-82.161-40.96-128 0.227-12.872 1.425-25.713 3.584-38.4 17.808-107.392 110.791-186.071 219.647-185.856 10.911-0.748 21.86-0.748 32.768 0 58.524 9.216 111.096 41.021 146.429 88.576 35.707-46.787 88.228-77.824 146.432-86.528 10.911-0.748 21.862-0.748 32.768 0 83.302 0.092 159.621 46.561 197.944 120.525 38.328 73.958 32.287 163.103-15.672 231.219 84.833 28.575 144.389 105.057 151.306 194.304 6.917 89.244-40.146 173.99-119.562 215.294v-3.072zM452.611 809.477c47.524 45.512 122.465 45.512 169.984 0 35.722-35.772 46.244-89.602 26.624-136.192l-13.312-30.208-33.792-29.696c-20.772 7.13-42.547 10.931-64.512 11.264-28.385-0.028-56.453-5.955-82.432-17.408l-28.669 66.048c-20.342 46.424-9.958 100.583 26.109 136.192zM140.293 459.269c-23.547 51.809-7.92 113.027 37.581 147.213s108.646 32.159 151.859-4.879l25.088-22.016 17.92-40.957c-25.649-34.319-39.644-75.945-39.936-118.784-0.607-7.67-0.607-15.375 0-23.040h-28.16l-43.008-4.096c-50.376-5.32-98.754 21.217-121.344 66.56zM478.208 147.973c-12.703-56.34-63.214-96.026-120.96-95.032-57.746 0.988-106.865 42.383-117.629 99.128-0.491 7.158-0.491 14.341 0 21.504 0.377 42.342 23.175 81.316 59.903 102.4l26.112 18.432 46.592 5.12c29.366-40.852 72.742-69.468 121.853-80.384l-15.872-71.168zM537.6 317.445c-56.55 0-102.397 45.844-102.397 102.4 0 56.55 45.847 102.4 102.397 102.4 56.556 0 102.4-45.85 102.4-102.4 0-56.556-45.844-102.4-102.4-102.4zM835.584 152.579c-10.988-64.996-72.038-109.187-137.216-99.328-50.545 7.122-91.361 44.877-102.4 94.72l-7.168 30.72 10.752 47.104c47.237 15.38 87.265 47.406 112.64 90.112l25.6-15.36h4.608l33.792-19.968c45.005-25.697 68.828-77.046 59.392-128zM934.912 459.784c-20.536-41.508-62.746-67.866-109.056-68.096h-12.288l-32.768 5.12-38.4 20.992c-0.072 49.777-18.268 97.828-51.2 135.165l22.016 18.944 32.256 29.696c43.387 38.569 108.012 41.009 154.184 5.821 46.167-35.19 60.948-98.148 35.256-150.203v2.56z" />
<glyph unicode="&#xe904;" glyph-name="image-upload" d="M799.442 376.148c-24.802 0-44.91-20.108-44.91-44.916v-17.063l-66.474 66.468c-48.85 48.469-127.65 48.469-176.503 0l-31.439-31.437-111.382 111.38c-49.428 47.050-127.077 47.050-176.505 0l-66.471-66.469v251.508c0 24.805 20.108 44.912 44.913 44.912h314.386c24.805 0 44.912 20.108 44.912 44.913s-20.107 44.912-44.912 44.912h-314.386c-74.413 0-134.737-60.323-134.737-134.737v-538.945c0-74.412 60.324-134.737 134.737-134.737h538.945c74.418 0 134.737 60.324 134.737 134.737v224.558c0 24.808-20.103 44.916-44.91 44.916zM170.671 61.758c-24.805 0-44.913 20.108-44.913 44.916v160.337l130.246 130.242c13.705 13.064 35.249 13.064 48.955 0l335.494-335.495h-469.782zM754.532 106.674c-0.065-8.596-2.905-16.95-8.084-23.805l-202.558 203.453 31.442 31.437c6.5 6.64 15.409 10.38 24.7 10.38s18.2-3.74 24.7-10.38l129.8-130.695v-80.389zM966.069 767.331l-134.737 134.737c-4.274 4.089-9.308 7.294-14.821 9.432-10.935 4.492-23.196 4.492-34.137 0-5.513-2.137-10.547-5.343-14.821-9.432l-134.737-134.737c-11.393-11.392-15.84-27.997-11.668-43.559s16.325-27.718 31.884-31.888c15.565-4.17 32.17 0.279 43.563 11.671l57.937 58.386v-251.059c0-24.805 20.108-44.912 44.91-44.912 24.808 0 44.91 20.107 44.91 44.912v251.059l57.937-58.386c8.435-8.502 19.914-13.285 31.89-13.285s23.455 4.782 31.89 13.285c8.499 8.433 13.285 19.913 13.285 31.888s-4.786 23.455-13.285 31.887z" />
<glyph unicode="&#xe905;" glyph-name="plus-circle" d="M512.005 922.069c-261.824 0-474.074-212.25-474.074-474.074 0-261.821 212.25-474.073 474.074-474.073 261.821 0 474.073 212.252 474.073 474.073 0 125.732-49.948 246.315-138.849 335.221-88.912 88.906-209.493 138.853-335.225 138.853zM512.005 68.739c-209.459 0-379.259 169.796-379.259 379.257 0 209.459 169.8 379.259 379.259 379.259 209.46 0 379.257-169.8 379.257-379.259 0-100.586-39.959-197.053-111.076-268.181-71.128-71.117-167.595-111.076-268.181-111.076zM701.633 495.403h-142.222v142.222c0 26.183-21.224 47.408-47.407 47.408s-47.407-21.225-47.407-47.408v-142.222h-142.222c-26.183 0-47.408-21.224-47.408-47.407s21.225-47.407 47.408-47.407h142.222v-142.222c0-26.186 21.224-47.406 47.407-47.406s47.407 21.22 47.407 47.406v142.222h142.222c26.186 0 47.406 21.224 47.406 47.407s-21.22 47.407-47.406 47.407z" />
<glyph unicode="&#xe906;" glyph-name="question-circle" d="M475.648 279.552c-2.202-2.432-4.255-4.997-6.144-7.68-1.935-2.852-3.487-5.955-4.608-9.216-1.475-2.903-2.514-6.011-3.072-9.216-0.251-3.41-0.251-6.83 0-10.24-0.174-6.717 1.229-13.379 4.096-19.456 4.654-12.861 14.787-22.994 27.648-27.648 12.39-5.478 26.522-5.478 38.912 0 12.861 4.654 22.994 14.787 27.648 27.648 2.273 6.226 3.318 12.831 3.072 19.456 0.077 13.609-5.263 26.691-14.848 36.352-9.615 9.692-22.702 15.145-36.352 15.145s-26.737-5.453-36.352-15.145zM512 960c-282.77 0-512-229.23-512-512 0-282.767 229.23-512 512-512 282.767 0 512 229.233 512 512 0 135.791-53.944 266.020-149.96 362.039-96.020 96.018-226.248 149.961-362.040 149.961zM512 38.4c-226.216 0-409.6 183.383-409.6 409.6s183.384 409.6 409.6 409.6c226.217 0 409.6-183.384 409.6-409.6 0-108.631-43.156-212.818-119.967-289.633-76.815-76.81-181.002-119.967-289.633-119.967zM512 704c-54.912 0.035-105.665-29.245-133.12-76.8-10.089-15.871-10.665-35.997-1.5-52.419s26.596-26.501 45.404-26.245c18.801 0.256 35.953 10.799 44.672 27.464 9.18 15.904 26.179 25.673 44.544 25.6 28.278 0 51.2-22.923 51.2-51.2 0-28.278-22.922-51.2-51.2-51.2s-51.2-22.922-51.2-51.2v-51.2c0-28.278 22.922-51.2 51.2-51.2s51.2 22.922 51.2 51.2v9.216c69.888 25.359 111.58 97.126 98.99 170.399-12.59 73.271-75.848 127.008-150.19 127.585z" />
<glyph unicode="&#xe907;" glyph-name="search" d="M1009.864 19.388l-180.907 179.444c145.813 181.799 124.089 445.865-49.464 601.397-173.558 155.532-438.413 148.285-603.204-16.506s-172.038-429.648-16.505-603.201c155.532-173.558 419.596-195.277 601.395-49.469l179.444-179.444c9.157-9.231 21.621-14.424 34.621-14.424 13.005 0 25.468 5.193 34.621 14.424 18.271 18.9 18.271 48.879 0 67.779zM487.624 131.052c-188.51 0-341.33 152.82-341.33 341.333s152.82 341.332 341.33 341.332c188.514 0 341.333-152.82 341.333-341.332 0-90.526-35.962-177.347-99.972-241.362-64.015-64.010-150.83-99.972-241.362-99.972z" />
<glyph unicode="&#xe908;" glyph-name="arrow-down-spear" d="M901.804 496.469c-12.813 12.923-30.262 20.193-48.469 20.193-18.201 0-35.65-7.27-48.47-20.193l-224.597-225.28v518.144c0 37.702-30.563 68.267-68.267 68.267-37.697 0-68.266-30.564-68.266-68.267v-518.144l-224.595 225.28c-26.768 26.767-70.17 26.767-96.939 0-26.768-26.767-26.768-70.171 0-96.938l341.331-341.334c6.492-6.212 14.152-11.086 22.528-14.336 16.527-7.304 35.362-7.304 51.883 0 8.382 3.25 16.036 8.124 22.528 14.336l341.333 341.334c12.93 12.82 20.193 30.269 20.193 48.469s-7.263 35.649-20.193 48.469z" />
<glyph unicode="&#xe909;" glyph-name="trash-alt1" horiz-adv-x="910" d="M360.296 163.55c26.183 0 47.408 21.225 47.408 47.411v284.442c0 26.183-21.225 47.408-47.408 47.408s-47.407-21.225-47.407-47.408v-284.442c0-26.186 21.225-47.411 47.407-47.411zM834.372 732.44h-189.633v47.407c0 78.547-63.67 142.222-142.221 142.222h-94.814c-78.547 0-142.222-63.675-142.222-142.222v-47.407h-189.63c-26.182 0-47.407-21.225-47.407-47.407s21.225-47.408 47.407-47.408h47.408v-521.481c0-78.552 63.675-142.222 142.222-142.222h379.257c78.552 0 142.222 63.67 142.222 142.222v521.481h47.411c26.18 0 47.406 21.225 47.406 47.408s-21.225 47.407-47.406 47.407zM360.296 779.847c0 26.183 21.225 47.408 47.408 47.408h94.814c26.183 0 47.408-21.225 47.408-47.408v-47.407h-189.63v47.407zM692.15 116.144c0-26.186-21.225-47.406-47.411-47.406h-379.257c-26.183 0-47.408 21.22-47.408 47.406v521.481h474.076v-521.481zM549.926 163.55c26.182 0 47.407 21.225 47.407 47.411v284.442c0 26.183-21.225 47.408-47.407 47.408s-47.408-21.225-47.408-47.408v-284.442c0-26.186 21.225-47.411 47.408-47.411z" />
<glyph unicode="&#xe90a;" glyph-name="Vector" horiz-adv-x="1489" d="M1200.873 569.643c-42.203 214.109-230.246 374.846-456.145 374.846-179.354 0-335.127-101.779-412.703-250.725-186.802-19.859-332.024-178.114-332.024-369.882 0-205.419 166.943-372.364 372.364-372.364h806.786c171.287 0 310.305 139.017 310.305 310.305 0 163.84-127.223 296.649-288.582 307.82zM868.85 385.941v-248.241h-248.246v248.241h-186.18l310.303 310.306 310.305-310.306h-186.182z" />
<glyph unicode="&#xe90b;" glyph-name="calender" horiz-adv-x="910" d="M786.961 817.776h-47.406v94.815h-94.817v-94.815h-379.257v94.815h-94.815v-94.815h-47.407c-52.622 0-94.341-42.667-94.341-94.815l-0.474-663.705c0-52.144 42.193-94.811 94.815-94.811h663.702c52.15 0 94.817 42.667 94.817 94.811v663.705c0 52.148-42.667 94.815-94.817 94.815zM786.961 59.255h-663.702v521.483h663.702v-521.483zM218.074 485.924h237.037v-237.035h-237.037v237.035z" />
<glyph unicode="&#xe90c;" glyph-name="check-circle1" d="M644.624 604.523l-209.189-209.676-80.457 80.457c-11.916 13.917-30.628 19.978-48.441 15.691s-31.721-18.193-36.005-36.005c-4.285-17.812 1.777-36.523 15.692-48.44l114.591-115.078c9.202-9.128 21.66-14.215 34.621-14.141 12.79 0.054 25.049 5.135 34.134 14.141l243.809 243.809c9.231 9.157 14.424 21.619 14.424 34.621s-5.193 25.465-14.424 34.621c-19.017 18.906-49.737 18.906-68.754 0zM511.994 935.616c-269.305 0-487.619-218.314-487.619-487.619 0-269.302 218.314-487.619 487.619-487.619 269.303 0 487.62 218.317 487.62 487.619 0 129.325-51.376 253.352-142.819 344.799-91.451 91.446-215.475 142.82-344.801 142.82zM511.994 57.9c-215.444 0-390.095 174.653-390.095 390.097s174.651 390.095 390.095 390.095c215.444 0 390.099-174.651 390.099-390.095 0-103.458-41.106-202.684-114.256-275.841-73.159-73.15-172.385-114.256-275.842-114.256z" />
<glyph unicode="&#xe90d;" glyph-name="exclamation-triangle" horiz-adv-x="1170" d="M585.14 252.953c-26.931 0-48.762-21.831-48.762-48.76 0-26.931 21.831-48.764 48.762-48.764s48.762 21.833 48.762 48.764c0 26.929-21.831 48.76-48.762 48.76zM1105.43 181.27l-392.534 682.668c-25.839 46.319-74.723 75.026-127.756 75.026-53.038 0-101.922-28.707-127.758-75.026l-390.095-682.668c-26.719-45.056-27.302-100.966-1.527-146.578s73.971-73.955 126.358-74.313h786.044c52.816-0.519 101.822 27.48 128.19 73.245 26.375 45.773 26.017 102.21-0.922 147.646zM1021.067 83.749c-8.704-15.484-25.147-25.015-42.906-24.869h-786.045c-17.766-0.146-34.205 9.384-42.91 24.869-8.711 15.089-8.711 33.675 0 48.764l390.096 682.664c8.343 16.285 25.098 26.528 43.398 26.528 18.296 0 35.055-10.244 43.399-26.528l392.532-682.664c9.852-14.885 10.789-33.968 2.436-49.737v0.973zM585.14 643.046c-26.931 0-48.762-21.831-48.762-48.762v-195.046c0-26.931 21.831-48.762 48.762-48.762s48.762 21.831 48.762 48.762v195.046c0 26.931-21.831 48.762-48.762 48.762z" />
<glyph unicode="&#xe90e;" glyph-name="check-circle" d="M644.624 604.523l-209.189-209.676-80.457 80.457c-11.916 13.917-30.628 19.978-48.441 15.691s-31.721-18.193-36.005-36.005c-4.285-17.812 1.777-36.523 15.692-48.44l114.591-115.078c9.202-9.128 21.66-14.215 34.621-14.141 12.79 0.054 25.049 5.135 34.134 14.141l243.809 243.809c9.231 9.157 14.424 21.619 14.424 34.621s-5.193 25.465-14.424 34.621c-19.017 18.906-49.737 18.906-68.754 0zM511.994 935.616c-269.305 0-487.619-218.314-487.619-487.619 0-269.302 218.314-487.619 487.619-487.619 269.303 0 487.62 218.317 487.62 487.619 0 129.325-51.376 253.352-142.819 344.799-91.451 91.446-215.475 142.82-344.801 142.82zM511.994 57.9c-215.444 0-390.095 174.653-390.095 390.097s174.651 390.095 390.095 390.095c215.444 0 390.099-174.651 390.099-390.095 0-103.458-41.106-202.684-114.256-275.841-73.159-73.15-172.385-114.256-275.842-114.256z" />
<glyph unicode="&#xe90f;" glyph-name="close" d="M1009.775 845.511l-100.267 100.266-397.512-397.512-397.511 397.512-100.267-100.266 397.511-397.512-397.511-397.507 100.267-100.267 397.511 397.507 397.512-397.507 100.267 100.267-397.512 397.507 397.512 397.512z" />
<glyph unicode="&#xe910;" glyph-name="copy" d="M714.662 917.333h-512c-46.934 0-85.334-38.4-85.334-85.334v-597.331h85.334v597.331h512v85.334zM842.662 746.666h-469.334c-46.933 0-85.333-38.4-85.333-85.333v-597.333c0-46.931 38.4-85.331 85.333-85.331h469.334c46.931 0 85.331 38.4 85.331 85.331v597.333c0 46.933-38.4 85.333-85.331 85.333zM842.662 64h-469.334v597.333h469.334v-597.333z" />
<glyph unicode="&#xe911;" glyph-name="eye-view" d="M995.723 467.506c-98.501 228.693-283.798 370.59-483.722 370.59-199.922 0-385.217-141.897-483.716-370.59-5.428-12.439-5.428-26.571 0-39.010 98.499-228.693 283.794-370.589 483.716-370.589 199.924 0 385.22 141.896 483.722 370.589 5.427 12.439 5.427 26.571 0 39.010zM512.001 155.429c-154.573 0-300.859 111.665-385.217 292.571 84.358 180.906 230.644 292.571 385.217 292.571 154.575 0 300.857-111.665 385.22-292.571-84.363-180.906-230.645-292.571-385.22-292.571zM512.001 643.049c-107.72 0-195.046-87.326-195.046-195.048 0-107.72 87.326-195.048 195.046-195.048 107.725 0 195.047 87.328 195.047 195.048 0 51.732-20.548 101.341-57.125 137.92-36.581 36.578-86.192 57.128-137.923 57.128zM512.001 350.477c-53.858 0-97.522 43.661-97.522 97.524s43.664 97.524 97.522 97.524c53.862 0 97.524-43.661 97.524-97.524s-43.661-97.524-97.524-97.524z" />
<glyph unicode="&#xe912;" glyph-name="filter" d="M853.328 935.619h-682.668c-80.791 0-146.286-65.495-146.286-146.285v-57.051c-0.007-20.136 4.143-40.057 12.191-58.514v-2.926c6.889-15.651 16.647-29.874 28.769-41.936l300.373-298.423v-321.341c-0.034-16.845 8.632-32.519 22.918-41.45 7.76-4.805 16.714-7.344 25.844-7.314 7.632 0.044 15.151 1.887 21.943 5.369l195.048 97.521c16.399 8.265 26.765 25.037 26.819 43.396v223.819l298.421 298.423c12.127 12.061 21.884 26.285 28.774 41.936v2.926c8.719 18.314 13.531 38.24 14.139 58.514v57.051c0 80.791-65.492 146.285-146.286 146.285zM574.897 385.097c-9.128-9.201-14.214-21.66-14.141-34.621v-213.575l-97.524-48.764v262.339c0.073 12.961-5.012 25.419-14.141 34.621l-258.438 257.951h642.685l-258.442-257.951zM902.093 740.571h-780.194v48.762c0 26.93 21.832 48.761 48.761 48.761h682.668c26.931 0 48.764-21.832 48.764-48.761v-48.762z" />
<glyph unicode="&#xe913;" glyph-name="gear" d="M953.845 564.148l-89.6 29.867 42.189 84.386c8.767 18.101 5.154 39.764-9.006 54.044l-100.978 100.978c-14.364 14.378-36.295 18.001-54.522 9.007l-84.383-42.193-29.867 89.6c-6.463 19.145-24.354 32.087-44.561 32.237h-142.223c-20.38 0.053-38.514-12.928-45.037-32.237l-29.867-89.6-84.386 42.193c-18.101 8.765-39.764 5.155-54.044-9.007l-100.978-100.978c-14.378-14.364-18.001-36.294-9.007-54.519l42.193-84.385-89.6-29.867c-19.145-6.466-32.087-24.358-32.237-44.563v-142.223c-0.053-20.378 12.927-38.514 32.237-45.039l89.6-29.867-42.193-84.383c-8.765-18.102-5.155-39.765 9.007-54.044l100.978-100.978c14.364-14.376 36.294-18 54.519-9.006l84.385 42.189 29.867-89.6c6.522-19.308 24.657-32.284 45.037-32.233h142.221c20.383-0.051 38.514 12.925 45.039 32.233l29.867 89.6 84.383-42.189c17.977-8.539 39.378-4.944 53.572 9.006l100.978 100.978c14.376 14.364 18 36.295 9.006 54.517l-42.189 84.389 89.6 29.867c19.137 6.463 32.080 24.354 32.233 44.561v142.223c0.051 20.38-12.925 38.514-32.233 45.037zM891.261 411.023l-56.883-18.963c-26.482-8.589-47.844-28.38-58.431-54.122-10.593-25.742-9.335-54.835 3.436-79.565l27.022-54.044-52.15-52.15-52.622 28.444c-24.599 12.254-53.305 13.238-78.683 2.685-25.372-10.553-44.919-31.596-53.584-57.68l-18.962-56.889h-75.378l-18.963 56.889c-8.59 26.482-28.378 47.844-54.12 58.431-25.742 10.593-54.836 9.335-79.569-3.436l-54.044-27.022-52.148 52.15 28.444 52.622c12.771 24.73 14.028 53.823 3.439 79.565s-31.954 45.534-58.431 54.122l-56.889 18.963v73.956l56.889 18.963c26.477 8.59 47.842 28.378 58.431 54.12s9.332 54.836-3.439 79.569l-27.022 52.622 52.148 52.148 52.622-27.022c24.733-12.771 53.828-14.028 79.569-3.439s45.529 31.954 54.12 58.431l18.963 56.889h73.956l18.963-56.889c8.589-26.477 28.381-47.842 54.123-58.431s54.835-9.332 79.565 3.439l54.044 27.022 52.15-52.148-28.444-52.622c-12.254-24.599-13.238-53.305-2.685-78.681 10.553-25.378 31.596-44.929 57.68-53.585l56.883-18.963v-75.378zM512.005 637.63c-104.729 0-189.629-84.9-189.629-189.629 0-104.727 84.9-189.628 189.629-189.628 104.728 0 189.629 84.901 189.629 189.628 0 50.294-19.974 98.526-55.541 134.088-35.561 35.563-83.793 55.542-134.088 55.542zM512.005 353.183c-52.366 0-94.814 42.451-94.814 94.817s42.448 94.814 94.814 94.814c52.366 0 94.818-42.448 94.818-94.814s-42.452-94.817-94.818-94.817z" />
<glyph unicode="&#xe914;" glyph-name="info-circle" d="M512 905.143c-252.473 0-457.143-204.67-457.143-457.143 0-252.475 204.67-457.143 457.143-457.143 252.475 0 457.143 204.668 457.143 457.143-0.278 252.357-204.785 456.862-457.143 457.143zM512.001 82.293c-201.979 0-365.714 163.732-365.714 365.711s163.735 365.714 365.714 365.714c201.979 0 365.714-163.735 365.714-365.714-0.234-201.883-163.83-365.485-365.714-365.711zM512.001 470.862c-25.248 0-45.714-20.466-45.714-45.714v-137.143c0-25.248 20.466-45.714 45.714-45.714s45.714 20.466 45.714 45.714v137.143c0 25.248-20.466 45.714-45.714 45.714zM511.999 653.714c-31.561 0-57.143-25.583-57.143-57.143s25.582-57.143 57.143-57.143c31.561 0 57.143 25.584 57.143 57.143s-25.582 57.143-57.143 57.143z" />
<glyph unicode="&#xe915;" glyph-name="pencile" d="M32 168.002v-200.002h200l589.869 589.867-200.003 200-589.866-589.866zM976.53 712.534c20.802 20.8 20.802 54.4 0 75.2l-124.796 124.8c-20.802 20.8-54.404 20.8-75.198 0l-97.603-97.6 200.003-200 97.595 97.6z" />
<glyph unicode="&#xe916;" glyph-name="puzzle-piece" d="M749.039-26.072h-568.886c-78.547 0-142.222 63.67-142.222 142.222v474.072c0 78.547 63.675 142.222 142.222 142.222h47.407c1.636 82.424 56.338 154.348 135.331 177.938s164.18-6.56 210.742-74.589c21.259-30.301 32.831-66.335 33.183-103.348h142.222c26.186 0 47.411-21.225 47.411-47.407v-142.222c82.421-1.636 154.345-56.339 177.937-135.33s-6.559-164.184-74.593-210.747c-30.293-21.259-66.332-32.825-103.344-33.183v-142.222c0-26.18-21.225-47.406-47.411-47.406zM180.153 637.63c-26.183 0-47.408-21.225-47.408-47.408v-474.072c0-26.186 21.225-47.411 47.408-47.411h521.481v150.756c-0.080 15.428 7.344 29.929 19.911 38.878 12.533 8.932 28.609 11.23 43.139 6.161 27.489-11.218 58.857-7.066 82.489 10.906 23.393 14.262 39.47 37.945 44.089 64.944 3.698 27.238-4.602 54.739-22.756 75.38-24.9 30.251-66.566 40.809-102.872 26.074-14.529-5.068-30.612-2.773-43.139 6.163-12.567 8.946-19.991 23.448-19.911 38.874v150.756h-151.705c-15.824-0.897-31.047 6.173-40.576 18.842-9.524 12.667-12.089 29.258-6.831 44.21 11.212 27.489 7.068 58.858-10.904 82.489-14.18 24.088-38.542 40.421-66.209 44.386-27.669 3.966-55.639-4.866-76.013-24.001-18.885-18.731-29.034-44.533-27.97-71.111 0.11-10.874 2.198-21.637 6.163-31.763 5.086-14.548 2.784-30.66-6.174-43.2s-23.452-19.945-38.863-19.851h-103.348z" />
<glyph unicode="&#xe917;" glyph-name="shout-link-2" d="M127.998 448.005c0 81.067 65.896 146.963 146.963 146.963h189.63v90.074h-189.63c-130.844 0-237.037-106.193-237.037-237.037s106.192-237.037 237.037-237.037h189.63v90.074h-189.63c-81.067 0-146.963 65.896-146.963 146.963zM322.368 400.597h379.259v94.814h-379.259v-94.814zM749.033 685.042h-189.628v-90.074h189.628c81.067 0 146.967-65.897 146.967-146.963s-65.9-146.963-146.967-146.963h-189.628v-90.074h189.628c130.844 0 237.039 106.193 237.039 237.037s-106.194 237.037-237.039 237.037z" />
<glyph unicode="&#xe918;" glyph-name="trash-alt" horiz-adv-x="910" d="M360.296 163.55c26.183 0 47.408 21.225 47.408 47.411v284.442c0 26.183-21.225 47.408-47.408 47.408s-47.407-21.225-47.407-47.408v-284.442c0-26.186 21.225-47.411 47.407-47.411zM834.372 732.44h-189.633v47.407c0 78.547-63.67 142.222-142.221 142.222h-94.814c-78.547 0-142.222-63.675-142.222-142.222v-47.407h-189.63c-26.182 0-47.407-21.225-47.407-47.407s21.225-47.408 47.407-47.408h47.408v-521.481c0-78.552 63.675-142.222 142.222-142.222h379.257c78.552 0 142.222 63.67 142.222 142.222v521.481h47.411c26.18 0 47.406 21.225 47.406 47.408s-21.225 47.407-47.406 47.407zM360.296 779.847c0 26.183 21.225 47.408 47.408 47.408h94.814c26.183 0 47.408-21.225 47.408-47.408v-47.407h-189.63v47.407zM692.15 116.144c0-26.186-21.225-47.406-47.411-47.406h-379.257c-26.183 0-47.408 21.22-47.408 47.406v521.481h474.076v-521.481zM549.926 163.55c26.182 0 47.407 21.225 47.407 47.411v284.442c0 26.183-21.225 47.408-47.407 47.408s-47.408-21.225-47.408-47.408v-284.442c0-26.186 21.225-47.411 47.408-47.411z" />
<glyph unicode="&#xe919;" glyph-name="double-user" horiz-adv-x="1280" d="M655.994 436.268c57.581 49.84 90.669 122.243 90.669 198.4 0 147.276-119.393 266.666-266.668 266.666s-266.667-119.391-266.667-266.666c-0.001-76.157 33.085-148.56 90.667-198.4-152.483-69.046-250.506-220.882-250.667-388.268 0-29.453 23.878-53.331 53.334-53.331s53.333 23.878 53.333 53.331c0 176.73 143.268 320.001 320 320.001 176.728 0 319.999-143.271 319.999-320.001 0-29.453 23.878-53.331 53.338-53.331 29.453 0 53.331 23.878 53.331 53.331-0.16 167.386-98.182 319.222-250.669 388.268zM479.995 474.668c-88.365 0-160 71.632-160 160 0 88.365 71.635 160 160 160 88.368 0 160-71.635 160-160 0-42.435-16.859-83.131-46.864-113.136s-70.701-46.864-113.136-46.864zM999.462 457.601c69.722 78.512 86.88 190.63 43.827 286.4-43.046 95.77-138.291 157.362-243.296 157.333-29.453 0-53.331-23.879-53.331-53.333s23.878-53.333 53.331-53.333c88.371 0 160-71.635 160-160-0.154-57.009-30.63-109.627-80-138.134-16.077-9.274-26.182-26.245-26.662-44.8-0.454-18.405 8.614-35.744 24-45.866l20.8-13.867 6.931-3.733c131.258-62.256 214.477-195 213.331-340.268 0-29.453 23.878-53.331 53.338-53.331 29.453 0 53.331 23.878 53.331 53.331 0.883 166.413-84.48 321.404-225.6 409.601z" />
<glyph unicode="&#xe91a;" glyph-name="home-alt" horiz-adv-x="910" d="M834.361 637.629l-284.442 249.363c-53.992 48.288-135.642 48.288-189.632 0l-284.444-249.363c-30.462-27.244-47.732-66.275-47.408-107.141v-414.339c0-78.552 63.675-142.222 142.223-142.222h568.892c78.541 0 142.222 63.67 142.222 142.222v414.813c0.182 40.701-17.072 79.533-47.411 106.667zM549.918 68.739h-189.632v237.039c0 26.186 21.227 47.406 47.41 47.406h94.814c26.179 0 47.408-21.22 47.408-47.406v-237.039zM786.955 116.15c0-26.186-21.231-47.411-47.406-47.411h-94.817v237.039c0 78.546-63.676 142.222-142.223 142.222h-94.814c-78.549 0-142.224-63.676-142.224-142.222v-237.039h-94.815c-26.182 0-47.407 21.225-47.407 47.411v414.813c0.017 13.616 5.889 26.568 16.118 35.556l284.447 248.889c17.896 15.722 44.677 15.722 62.578 0l284.447-248.889c10.223-8.987 16.1-21.939 16.117-35.556v-414.813z" />
<glyph unicode="&#xe91b;" horiz-adv-x="1958" d="M213.802 263.74c-0.001-2.581 0.507-5.131 1.497-7.517 0.989-2.382 2.438-4.546 4.266-6.369 1.828-1.827 3.998-3.271 6.387-4.257s4.948-1.493 7.533-1.493h438.927c5.218 0 10.225 2.067 13.916 5.75s5.765 8.68 5.765 13.886c0 5.21-2.074 10.202-5.765 13.886s-8.698 5.75-13.916 5.75h-438.927c-2.585 0.004-5.145-0.506-7.533-1.493s-4.558-2.431-6.387-4.257c-1.828-1.823-3.278-3.987-4.266-6.369s-1.497-4.936-1.497-7.517z" />
<glyph unicode="&#xe91c;" horiz-adv-x="1958" d="M1068.733 209.959c0-2.581 0.51-5.135 1.497-7.517 0.99-2.382 2.438-4.55 4.269-6.373 1.827-1.823 3.998-3.271 6.384-4.257 2.389-0.986 4.951-1.493 7.536-1.493h438.925c5.221 0 10.229 2.071 13.92 5.754s5.765 8.676 5.765 13.886c0 5.206-2.074 10.202-5.765 13.886s-8.698 5.754-13.92 5.754h-438.925c-5.221 0-10.229-2.067-13.92-5.75s-5.765-8.676-5.765-13.886v-0.004z" />
<glyph unicode="&#xe91d;" horiz-adv-x="1958" d="M480.702 319.006c-0.004-2.581 0.506-5.135 1.493-7.517 0.99-2.386 2.438-4.55 4.269-6.377 1.827-1.823 3.995-3.271 6.384-4.261 2.389-0.986 4.951-1.497 7.536-1.497h438.928c2.584 0 5.146 0.51 7.532 1.497 2.389 0.986 4.561 2.434 6.388 4.257 1.827 1.827 3.278 3.991 4.265 6.373 0.99 2.386 1.497 4.936 1.497 7.517v0c0 5.21-2.074 10.202-5.765 13.886s-8.695 5.75-13.916 5.75h-438.928c-5.218 0-10.221-2.067-13.916-5.746-3.691-3.683-5.765-8.676-5.765-13.882v0z" />
<glyph unicode="&#xe91e;" horiz-adv-x="1958" d="M323.741 319.006c-0.001-2.581 0.508-5.139 1.498-7.524 0.99-2.382 2.441-4.55 4.272-6.377 1.83-1.823 4.003-3.271 6.394-4.257s4.954-1.493 7.542-1.493h53.262c5.221 0.004 10.225 2.074 13.916 5.758s5.765 8.676 5.765 13.886v0c0 5.206-2.074 10.202-5.765 13.886-3.691 3.68-8.698 5.75-13.916 5.75h-53.262c-5.22 0-10.225-2.071-13.917-5.75-3.691-3.683-5.765-8.68-5.766-13.886l-0.023 0.008z" />
<glyph unicode="&#xe91f;" horiz-adv-x="1958" d="M361.725 98.628c0-2.577 0.509-5.131 1.498-7.513 0.989-2.386 2.439-4.55 4.267-6.373s3.998-3.271 6.386-4.257c2.39-0.986 4.948-1.493 7.532-1.493h53.256c2.584 0 5.143 0.506 7.532 1.493s4.561 2.434 6.388 4.257c1.827 1.823 3.278 3.987 4.269 6.369 0.99 2.386 1.497 4.936 1.497 7.517v0c0 5.21-2.074 10.202-5.765 13.886-3.695 3.683-8.702 5.75-13.92 5.75h-53.256c-5.221 0-10.225-2.071-13.916-5.75-3.691-3.683-5.765-8.68-5.767-13.886v0z" />
<glyph unicode="&#xe920;" horiz-adv-x="1958" d="M1442.981 157.349c0-2.581-0.506-5.135-1.497-7.517s-2.438-4.55-4.265-6.373c-1.83-1.823-3.998-3.271-6.388-4.257s-4.947-1.493-7.532-1.493h-438.928c-2.584 0-5.143 0.506-7.532 1.493s-4.557 2.434-6.388 4.257c-1.827 1.823-3.275 3.991-4.265 6.373s-1.497 4.936-1.497 7.517c0 2.577 0.506 5.131 1.497 7.513 0.99 2.386 2.438 4.55 4.265 6.373 1.83 1.823 3.998 3.271 6.388 4.257s4.947 1.493 7.532 1.493h438.928c2.584 0 5.146-0.506 7.532-1.493 2.389-0.986 4.557-2.434 6.388-4.257 1.827-1.823 3.278-3.987 4.265-6.373 0.99-2.382 1.497-4.936 1.497-7.513z" />
<glyph unicode="&#xe921;" horiz-adv-x="1958" d="M1575.385 154.315c0-2.581-0.51-5.135-1.497-7.517-0.99-2.382-2.442-4.546-4.269-6.373-1.83-1.823-3.998-3.271-6.388-4.257s-4.947-1.497-7.536-1.497h-53.256c-2.584 0-5.143 0.51-7.532 1.497s-4.557 2.434-6.388 4.257c-1.827 1.827-3.275 3.991-4.265 6.373-0.99 2.386-1.497 4.94-1.497 7.517v0c0 2.581 0.506 5.135 1.493 7.517 0.99 2.386 2.442 4.55 4.269 6.373 1.827 1.827 3.998 3.271 6.388 4.261 2.389 0.986 4.947 1.493 7.532 1.493h53.256c5.221 0 10.225-2.067 13.92-5.75 3.691-3.68 5.765-8.672 5.769-13.882v-0.011z" />
<glyph unicode="&#xe922;" horiz-adv-x="1958" d="M409.457 250.278c0-6.545-1.947-12.948-5.589-18.394-3.646-5.443-8.83-9.685-14.891-12.194-6.065-2.506-12.734-3.162-19.173-1.883-6.437 1.275-12.35 4.43-16.991 9.058s-7.802 10.529-9.082 16.95c-1.281 6.422-0.623 13.076 1.888 19.126s6.764 11.219 12.222 14.857c5.457 3.638 11.872 5.578 18.435 5.578 8.8 0 17.239-3.488 23.458-9.692 6.223-6.208 9.719-14.629 9.722-23.406v0z" />
<glyph unicode="&#xe923;" horiz-adv-x="1958" d="M437.469 341.485c0-8.807-2.614-17.416-7.521-24.737-4.902-7.326-11.872-13.031-20.026-16.403s-17.13-4.254-25.788-2.536c-8.657 1.718-16.609 5.96-22.852 12.187s-10.493 14.16-12.215 22.798c-1.722 8.638-0.839 17.588 2.539 25.728 3.378 8.136 9.099 15.090 16.438 19.981s15.969 7.506 24.795 7.502c11.838 0 23.188-4.689 31.556-13.038s13.072-19.674 13.072-31.481v0z" />
<glyph unicode="&#xe924;" horiz-adv-x="1958" d="M1109.382 423.289c0-5.21-2.074-10.202-5.765-13.882-3.691-3.683-8.698-5.75-13.916-5.754h-53.256c-2.584 0-5.143 0.51-7.532 1.497s-4.561 2.434-6.388 4.257c-1.827 1.823-3.278 3.991-4.265 6.373-0.99 2.382-1.497 4.936-1.497 7.517 0 5.206 2.074 10.202 5.765 13.886s8.698 5.75 13.916 5.75h53.256c5.221 0 10.229-2.071 13.92-5.754 3.691-3.687 5.765-8.683 5.761-13.89v0z" />
<glyph unicode="&#xe925;" horiz-adv-x="1958" d="M995.658 445.772c0-8.803 2.618-17.412 7.521-24.734s11.872-13.031 20.026-16.399c8.154-3.372 17.127-4.254 25.784-2.539 8.657 1.718 16.609 5.956 22.851 12.183 6.242 6.223 10.495 14.156 12.217 22.791 1.725 8.638 0.844 17.588-2.532 25.728-3.376 8.136-9.092 15.090-16.429 19.985s-15.964 7.509-24.79 7.513c-5.863 0-11.665-1.148-17.085-3.383-5.416-2.239-10.338-5.518-14.482-9.651-4.149-4.137-7.438-9.043-9.681-14.449s-3.398-11.196-3.398-17.044v0z" />
<glyph unicode="&#xe926;" horiz-adv-x="1958" d="M1507.317 223.421c0-6.545-1.943-12.948-5.589-18.391-3.65-5.443-8.83-9.689-14.895-12.194-6.061-2.506-12.734-3.158-19.171-1.883-6.437 1.279-12.348 4.43-16.988 9.062-4.64 4.629-7.802 10.529-9.081 16.95s-0.623 13.076 1.89 19.126c2.509 6.050 6.763 11.219 12.22 14.857 5.458 3.635 11.872 5.578 18.436 5.578 8.8 0 17.239-3.488 23.462-9.696 6.219-6.208 9.715-14.629 9.715-23.409v0z" />
<glyph unicode="&#xe927;" horiz-adv-x="1958" d="M1457.621 245.394c0.004-10.878-3.23-21.512-9.287-30.559s-14.666-16.095-24.741-20.259c-10.075-4.164-21.159-5.255-31.853-3.132-10.698 2.119-20.521 7.359-28.229 15.052-7.712 7.689-12.963 17.491-15.090 28.162-2.127 10.668-1.035 21.729 3.136 31.778 4.175 10.052 11.241 18.642 20.307 24.685 9.066 6.046 19.726 9.272 30.63 9.272 14.621-0.004 28.642-5.795 38.98-16.11s16.148-24.302 16.148-38.889v0z" />
<glyph unicode="&#xe928;" horiz-adv-x="1958" d="M1283.65 194.806c46.958 0.75 84.411 39.336 83.657 86.185-0.754 46.845-39.43 84.216-86.387 83.462-46.954-0.754-84.411-39.34-83.657-86.185 0.754-46.849 39.433-84.216 86.387-83.462z" />
<glyph unicode="&#xe929;" horiz-adv-x="1958" d="M1194.573 212.608c39.415 39.321 39.415 103.075 0 142.396-39.411 39.321-103.315 39.321-142.726 0-39.415-39.321-39.415-103.075 0-142.396 39.411-39.325 103.315-39.325 142.726 0z" />
<glyph unicode="&#xe92a;" horiz-adv-x="1958" d="M1381.774 121.985c0-10.874-3.233-21.508-9.287-30.555-6.058-9.043-14.67-16.091-24.741-20.255s-21.159-5.251-31.849-3.128c-10.694 2.123-20.518 7.359-28.226 15.052-7.712 7.689-12.959 17.491-15.086 28.158s-1.035 21.725 3.136 31.778c4.171 10.049 11.238 18.638 20.304 24.681s19.722 9.269 30.626 9.269c14.621 0 28.642-5.795 38.98-16.11 10.338-10.311 16.144-24.302 16.144-38.889v0z" />
<glyph unicode="&#xe92b;" horiz-adv-x="1958" d="M499.078 217.176c0-10.881-3.233-21.515-9.291-30.559-6.058-9.047-14.67-16.095-24.745-20.259-10.071-4.164-21.159-5.251-31.853-3.128s-20.518 7.359-28.226 15.052c-7.712 7.693-12.963 17.494-15.090 28.162-2.127 10.671-1.035 21.729 3.14 31.782 4.171 10.049 11.238 18.638 20.304 24.681 9.070 6.046 19.726 9.272 30.63 9.269 14.621 0 28.646-5.795 38.983-16.11s16.148-24.302 16.148-38.889v0z" />
<glyph unicode="&#xe92c;" horiz-adv-x="1958" d="M674.193 152.413c4.209 55.307-37.318 103.544-92.753 107.741s-103.78-37.235-107.989-92.539c-4.209-55.307 37.322-103.54 92.753-107.738 55.435-4.197 103.784 37.232 107.989 92.535z" />
<glyph unicode="&#xe92d;" horiz-adv-x="1958" d="M681.275 386.020c0-15.079-4.482-29.82-12.877-42.355-8.398-12.539-20.33-22.31-34.295-28.079-13.965-5.773-29.328-7.281-44.152-4.34-14.82 2.941-28.436 10.202-39.126 20.866-10.686 10.66-17.963 24.246-20.911 39.032-2.948 14.79-1.437 30.12 4.347 44.051 5.784 13.927 15.578 25.836 28.147 34.212 12.566 8.376 27.34 12.847 42.453 12.847 20.266 0 39.703-8.031 54.032-22.329 14.332-14.295 22.382-33.687 22.382-53.904v0z" />
<glyph unicode="&#xe92e;" horiz-adv-x="1958" d="M831.829 401.5c4.52 54.985-36.489 103.21-91.597 107.723-55.112 4.509-103.454-36.406-107.974-91.387s36.489-103.21 91.601-107.719c55.108-4.512 103.45 36.403 107.97 91.384z" />
<glyph unicode="&#xe92f;" horiz-adv-x="1958" d="M568.001 345.405c0.004-7.048-2.089-13.935-6.013-19.797-3.923-5.859-9.497-10.428-16.024-13.124-6.523-2.697-13.706-3.406-20.634-2.033s-13.289 4.767-18.286 9.749c-4.996 4.981-8.398 11.332-9.775 18.241-1.38 6.913-0.671 14.077 2.029 20.589 2.704 6.508 7.281 12.074 13.154 15.99 5.87 3.912 12.776 6.005 19.839 6.005 9.471 0 18.552-3.755 25.247-10.431 6.695-6.68 10.461-15.739 10.461-25.187v0z" />
<glyph unicode="&#xe930;" horiz-adv-x="1958" d="M363.805 729.279l168.825 84.436-186.439-72.023 15.074-4.329 2.539-8.084z" />
<glyph unicode="&#xe931;" horiz-adv-x="1958" d="M361.265 737.364l171.365 76.35-168.826-84.436-2.539 8.085z" />
<glyph unicode="&#xe932;" horiz-adv-x="1958" d="M363.804 729.279l168.822 84.436-152.295-116.913-16.528 32.478z" />
<glyph unicode="&#xe933;" horiz-adv-x="1958" d="M363.804 729.279l168.822 84.436-143.728-110.338-25.095 25.903z" />
<glyph unicode="&#xe934;" horiz-adv-x="1958" d="M363.804 729.279l168.822 84.436-111.972-117.131-56.85 32.695z" />
<glyph unicode="&#xe935;" horiz-adv-x="1958" d="M208.23 592.124c17.847-6.629 34.679-16.102 53.378-20.581 11.309-2.723 21.678-1.812 32.826 0.953 20.469 5.090 45.412 15.462 57.758 33.376 10.779 15.654 2.348 38.305-16.818 42.646-14.991 3.39-24.576-12.439-25.178-25.128-1.237-26.339 30.794-30.791 50.261-24.978 31.166 9.324 32.715 51.725 28.829 77.589-0.671 4.478-7.809 4.084-7.123-0.382 3.638-24.079 3.297-62.398-25.523-71.014-17.614-5.268-44.029 1.184-38.442 24.002 1.373 5.771 5.739 12.088 12.055 13.040 9.157 1.361 17.299-8.548 19.686-16.185 3.089-9.883-5.368-19.166-12.357-24.909-9.39-7.717-20.745-13.082-32.098-17.288-10.249-3.796-21.842-7.356-32.949-6.395-21.692 1.864-40.966 14.1-60.962 21.506-4.269 1.577-7.565-4.709-3.267-6.307l-0.076 0.056z" />
<glyph unicode="&#xe936;" horiz-adv-x="1958" d="M1104.753 953.646l-6.182-111.929-6.178 111.929c-0.011 1.598 0.589 3.14 1.68 4.305 1.088 1.165 2.581 1.864 4.171 1.953 1.587 0.089 3.151-0.439 4.362-1.476s1.977-2.501 2.146-4.091c0.015-0.23 0.015-0.461 0-0.692z" />
<glyph unicode="&#xe937;" horiz-adv-x="1958" d="M1104.75 629.918l-6.178 111.929-6.182-111.929c-0.086-0.839-0.004-1.686 0.244-2.492 0.251-0.805 0.656-1.552 1.2-2.194 0.548-0.642 1.215-1.166 1.965-1.541 0.754-0.375 1.572-0.592 2.412-0.639 0.836-0.047 1.677 0.078 2.464 0.366s1.508 0.735 2.123 1.312c0.611 0.578 1.099 1.273 1.433 2.046 0.338 0.773 0.514 1.607 0.518 2.45 0.015 0.23 0.015 0.461 0 0.692z" />
<glyph unicode="&#xe938;" horiz-adv-x="1958" d="M1216.797 901.849l-83.195-74.77 74.407 83.593c0.536 0.632 1.197 1.149 1.935 1.522s1.542 0.594 2.367 0.65c0.825 0.056 1.654-0.055 2.434-0.325 0.784-0.27 1.504-0.695 2.119-1.248s1.118-1.226 1.47-1.977c0.356-0.751 0.555-1.565 0.593-2.395s-0.094-1.659-0.379-2.438c-0.285-0.779-0.724-1.493-1.29-2.099l-0.461-0.513z" />
<glyph unicode="&#xe939;" horiz-adv-x="1958" d="M988.959 672.926l74.414 83.593-83.203-74.754c-0.608-0.545-1.103-1.204-1.455-1.94-0.356-0.737-0.563-1.536-0.608-2.352s0.068-1.634 0.338-2.406c0.266-0.772 0.686-1.483 1.227-2.093 0.544-0.61 1.197-1.107 1.932-1.462 0.731-0.355 1.53-0.562 2.341-0.608 0.814-0.046 1.628 0.069 2.397 0.338s1.474 0.688 2.082 1.233c0.188 0.139 0.368 0.29 0.536 0.453z" />
<glyph unicode="&#xe93a;" horiz-adv-x="1958" d="M1259.625 785.581l-111.41 6.2 111.41 6.209c1.639 0.092 3.245-0.474 4.467-1.573s1.962-2.641 2.052-4.286c0.090-1.646-0.469-3.26-1.564-4.488s-2.629-1.97-4.265-2.062c-0.229-0.013-0.461-0.013-0.69 0z" />
<glyph unicode="&#xe93b;" horiz-adv-x="1958" d="M937.395 785.581l111.406 6.2-111.406 6.209c-1.639 0.092-3.245-0.474-4.467-1.573s-1.962-2.641-2.056-4.286c-0.090-1.646 0.473-3.26 1.568-4.488 1.092-1.228 2.629-1.97 4.265-2.062 0.229-0.013 0.458-0.013 0.69 0z" />
<glyph unicode="&#xe93c;" horiz-adv-x="1958" d="M1209.25 674.062l-75.273 82.781 83.9-73.959c1.11-1.117 1.752-2.617 1.8-4.194 0.045-1.577-0.506-3.113-1.545-4.296s-2.487-1.924-4.047-2.073c-1.564-0.149-3.125 0.305-4.366 1.271-0.188 0.123-0.345 0.283-0.469 0.47z" />
<glyph unicode="&#xe93d;" horiz-adv-x="1958" d="M979.113 900.629l83.9-73.908-75.281 82.781c-1.129 1.12-2.644 1.761-4.231 1.791s-3.125-0.553-4.299-1.628c-1.17-1.076-1.887-2.562-2.003-4.153-0.113-1.591 0.386-3.165 1.395-4.396 0.161-0.173 0.338-0.336 0.518-0.487z" />
<glyph unicode="&#xe93e;" horiz-adv-x="1958" d="M1130.875 896.007l-23.616-71.644 15.574 73.908c0.274 1.038 0.934 1.931 1.842 2.495s1.999 0.757 3.046 0.538c1.043-0.219 1.969-0.833 2.577-1.715s0.859-1.965 0.698-3.026l-0.12-0.555z" />
<glyph unicode="&#xe93f;" horiz-adv-x="1958" d="M1074.202 685.421l15.574 73.891-23.616-71.739c-0.188-0.544-0.259-1.119-0.214-1.692s0.206-1.13 0.476-1.637c0.266-0.507 0.638-0.954 1.084-1.312s0.964-0.62 1.515-0.77c0.551-0.149 1.129-0.183 1.695-0.1 0.563 0.084 1.107 0.284 1.594 0.587 0.484 0.303 0.904 0.703 1.227 1.176 0.326 0.473 0.551 1.007 0.664 1.571v0.026z" />
<glyph unicode="&#xe940;" horiz-adv-x="1958" d="M1194.73 842.468l-67.153-33.939 63.004 41.13c0.458 0.325 0.979 0.554 1.527 0.674s1.118 0.126 1.669 0.020c0.548-0.106 1.073-0.322 1.542-0.637 0.465-0.314 0.863-0.719 1.17-1.192 0.304-0.472 0.514-1.002 0.611-1.557s0.083-1.125-0.041-1.674c-0.128-0.55-0.36-1.068-0.69-1.524s-0.75-0.841-1.23-1.131l-0.409-0.171z" />
<glyph unicode="&#xe941;" horiz-adv-x="1958" d="M1006.453 733.845l63.023 41.13-67.156-33.939c-0.919-0.535-1.602-1.404-1.905-2.429-0.308-1.024-0.21-2.128 0.266-3.083 0.48-0.956 1.302-1.692 2.303-2.058 0.998-0.366 2.101-0.335 3.080 0.089 0.139 0.084 0.27 0.181 0.39 0.29z" />
<glyph unicode="&#xe942;" horiz-adv-x="1958" d="M1202.21 759.261l-71.309 23.725 73.563-15.654c1.032-0.275 1.924-0.937 2.483-1.85 0.563-0.913 0.754-2.008 0.536-3.059s-0.829-1.978-1.707-2.59c-0.878-0.612-1.954-0.862-3.012-0.7l-0.555 0.128z" />
<glyph unicode="&#xe943;" horiz-adv-x="1958" d="M992.639 816.216l73.548-15.654-71.32 23.734c-0.521 0.174-1.069 0.244-1.617 0.206s-1.080-0.186-1.572-0.432c-0.491-0.246-0.93-0.587-1.287-1.003-0.36-0.416-0.634-0.899-0.81-1.422-0.173-0.523-0.24-1.075-0.203-1.624s0.184-1.086 0.428-1.579c0.248-0.493 0.585-0.932 1.001-1.293 0.413-0.361 0.893-0.637 1.414-0.811 0.135-0.052 0.274-0.092 0.416-0.12z" />
<glyph unicode="&#xe944;" horiz-adv-x="1958" d="M1149.941 695.644l-34.452 67.084 41.654-62.891c0.54-0.925 0.705-2.021 0.461-3.064-0.24-1.043-0.87-1.955-1.755-2.547-0.889-0.592-1.969-0.82-3.019-0.637s-1.992 0.762-2.629 1.62c-0.086 0.14-0.158 0.286-0.221 0.435h-0.038z" />
<glyph unicode="&#xe945;" horiz-adv-x="1958" d="M1039.911 883.658l41.654-62.891-34.456 67.127c-0.274 0.484-0.638 0.908-1.077 1.249s-0.941 0.589-1.478 0.732c-0.536 0.143-1.095 0.177-1.643 0.101-0.551-0.076-1.077-0.261-1.557-0.545-0.476-0.284-0.893-0.66-1.223-1.107s-0.57-0.955-0.701-1.496c-0.135-0.541-0.158-1.102-0.071-1.653 0.083-0.55 0.278-1.078 0.57-1.552l-0.019 0.034z" />
<glyph unicode="&#xe946;" horiz-adv-x="1958" d="M869.867 867.364l-4.771-86.351-4.767 86.351c-0.049 1.257 0.398 2.483 1.238 3.415s2.014 1.494 3.263 1.565c1.253 0.072 2.479-0.353 3.421-1.182s1.523-1.997 1.617-3.252c0.011-0.182 0.011-0.365 0-0.547z" />
<glyph unicode="&#xe947;" horiz-adv-x="1958" d="M869.867 617.62l-4.771 86.36-4.794-86.36c-0.049-0.638 0.030-1.279 0.229-1.886s0.521-1.167 0.938-1.649c0.42-0.481 0.93-0.873 1.504-1.153 0.57-0.28 1.193-0.443 1.83-0.478 0.634-0.035 1.272 0.057 1.868 0.273 0.6 0.215 1.152 0.548 1.62 0.98s0.848 0.954 1.114 1.535c0.266 0.581 0.413 1.209 0.435 1.848 0.023 0.176 0.030 0.353 0.026 0.53z" />
<glyph unicode="&#xe948;" horiz-adv-x="1958" d="M956.367 827.395l-64.144-57.673 57.404 64.454c0.859 0.893 2.025 1.417 3.263 1.463 1.234 0.045 2.438-0.392 3.357-1.22 0.923-0.828 1.489-1.982 1.579-3.22 0.094-1.238-0.296-2.464-1.084-3.42l-0.375-0.384z" />
<glyph unicode="&#xe949;" horiz-adv-x="1958" d="M780.577 650.79l57.412 64.454-64.144-57.673c-0.495-0.412-0.9-0.92-1.197-1.494s-0.473-1.201-0.518-1.845c-0.049-0.644 0.034-1.291 0.24-1.902s0.536-1.174 0.964-1.655c0.428-0.481 0.949-0.871 1.53-1.145s1.212-0.428 1.853-0.451c0.641-0.024 1.283 0.083 1.883 0.314s1.148 0.581 1.609 1.029l0.368 0.367z" />
<glyph unicode="&#xe94a;" horiz-adv-x="1958" d="M989.402 737.687l-85.96 4.791 85.96 4.791c0.634 0.050 1.272-0.028 1.875-0.23s1.163-0.522 1.643-0.943c0.48-0.421 0.866-0.934 1.148-1.509 0.278-0.575 0.439-1.2 0.476-1.838 0.034-0.638-0.060-1.278-0.274-1.88s-0.544-1.155-0.975-1.627c-0.428-0.471-0.949-0.852-1.527-1.119s-1.204-0.416-1.838-0.436h-0.529z" />
<glyph unicode="&#xe94b;" horiz-adv-x="1958" d="M740.795 737.687l85.956 4.791-85.956 4.791c-0.634 0.050-1.272-0.028-1.875-0.23s-1.163-0.522-1.643-0.943c-0.48-0.421-0.87-0.934-1.148-1.509s-0.443-1.2-0.476-1.838c-0.034-0.638 0.056-1.278 0.27-1.88 0.218-0.602 0.548-1.155 0.975-1.627 0.431-0.471 0.953-0.852 1.53-1.119s1.204-0.416 1.838-0.436h0.529z" />
<glyph unicode="&#xe94c;" horiz-adv-x="1958" d="M950.546 651.66l-58.109 63.856 64.715-57.049c0.949-0.839 1.53-2.024 1.613-3.293s-0.341-2.519-1.178-3.475c-0.833-0.956-2.014-1.539-3.275-1.622-1.264-0.083-2.509 0.342-3.462 1.182-0.105 0.125-0.206 0.259-0.304 0.401z" />
<glyph unicode="&#xe94d;" horiz-adv-x="1958" d="M773.019 826.421l64.715-57.049-58.109 63.856c-0.424 0.465-0.934 0.843-1.5 1.11s-1.182 0.42-1.808 0.449c-0.626 0.029-1.253-0.066-1.842-0.281-0.593-0.214-1.133-0.542-1.598-0.967-0.461-0.425-0.836-0.937-1.103-1.507s-0.42-1.188-0.446-1.817c-0.030-0.629 0.064-1.258 0.278-1.851s0.54-1.137 0.964-1.602c0.143-0.122 0.293-0.236 0.45-0.342z" />
<glyph unicode="&#xe94e;" horiz-adv-x="1958" d="M890.074 822.869l-18.226-55.324 12.018 57.049c0.21 0.803 0.72 1.495 1.422 1.931 0.705 0.437 1.545 0.586 2.356 0.416s1.523-0.646 1.992-1.329c0.469-0.683 0.66-1.521 0.533-2.342-0.023-0.135-0.056-0.269-0.094-0.401z" />
<glyph unicode="&#xe94f;" horiz-adv-x="1958" d="M846.345 660.423l12.018 57.049-18.222-55.324c-0.154-0.408-0.225-0.843-0.206-1.279s0.124-0.863 0.311-1.257c0.188-0.394 0.454-0.745 0.776-1.034 0.326-0.288 0.709-0.508 1.118-0.645 0.413-0.137 0.848-0.189 1.283-0.153 0.431 0.036 0.851 0.16 1.238 0.364 0.383 0.204 0.72 0.483 0.994 0.822s0.476 0.73 0.596 1.149c0.038 0.101 0.068 0.203 0.094 0.308z" />
<glyph unicode="&#xe950;" horiz-adv-x="1958" d="M939.361 781.592l-51.856-26.193 48.623 31.779c0.353 0.263 0.758 0.45 1.185 0.55s0.87 0.112 1.302 0.033c0.435-0.078 0.844-0.244 1.212-0.488s0.679-0.56 0.919-0.93c0.24-0.37 0.401-0.785 0.476-1.22s0.056-0.881-0.045-1.309c-0.105-0.429-0.293-0.832-0.559-1.185-0.263-0.353-0.596-0.647-0.979-0.865-0.086-0.065-0.18-0.123-0.278-0.171z" />
<glyph unicode="&#xe951;" horiz-adv-x="1958" d="M794.065 697.71l48.623 31.847-51.853-26.176c-0.735-0.402-1.283-1.074-1.534-1.876s-0.18-1.669 0.195-2.419c0.375-0.751 1.028-1.325 1.815-1.603 0.791-0.277 1.654-0.236 2.416 0.116l0.338 0.111z" />
<glyph unicode="&#xe952;" horiz-adv-x="1958" d="M945.122 717.405l-55.075 18.293 56.781-12.059c0.431-0.071 0.84-0.228 1.208-0.463s0.683-0.542 0.93-0.903c0.244-0.36 0.416-0.767 0.503-1.197 0.083-0.429 0.083-0.871-0.008-1.298s-0.266-0.833-0.514-1.191c-0.251-0.358-0.57-0.661-0.941-0.892-0.368-0.231-0.78-0.384-1.212-0.45s-0.87-0.044-1.29 0.065l-0.383 0.094z" />
<glyph unicode="&#xe953;" horiz-adv-x="1958" d="M783.416 761.336l56.785-12.076-55.041 18.293c-0.81 0.27-1.692 0.205-2.457-0.179-0.761-0.384-1.339-1.057-1.609-1.87-0.266-0.813-0.203-1.7 0.18-2.465s1.054-1.347 1.86-1.617l0.281-0.086z" />
<glyph unicode="&#xe954;" horiz-adv-x="1958" d="M904.777 668.315l-26.583 51.746 32.119-48.535c0.416-0.714 0.544-1.562 0.36-2.369-0.188-0.807-0.675-1.512-1.362-1.969s-1.523-0.632-2.333-0.49c-0.814 0.143-1.538 0.593-2.029 1.258l-0.173 0.359z" />
<glyph unicode="&#xe955;" horiz-adv-x="1958" d="M819.89 813.388l32.115-48.518-26.579 51.746c-0.409 0.735-1.084 1.282-1.887 1.525-0.799 0.243-1.665 0.162-2.408-0.224-0.746-0.386-1.309-1.049-1.575-1.847s-0.214-1.668 0.15-2.427c0.056-0.090 0.116-0.175 0.184-0.256z" />
<glyph unicode="&#xe956;" horiz-adv-x="1958" d="M699.565 329.591l113.203-0.139-0.094-68.244-0.195-166.297v-19.902c0.131-2.626-0.383-5.248-1.493-7.629s-2.787-4.452-4.884-6.031c-4.756-3.353-10.48-5.030-16.286-4.775l-67.91 0.086c-5.806-0.244-11.527 1.455-16.271 4.824-2.089 1.579-3.762 3.653-4.869 6.035-1.107 2.386-1.613 5.004-1.47 7.629v19.899l0.195 166.297 0.086 68.248h-169.961v0.221h-8.237v-136.537h8.237l-0.188-169.268c0-9.479 3.785-12.734 13.226-12.742l428.006-0.48c9.434 0 11.534 3.188 11.542 12.667l0.188 169.226h7.108v136.533l-128.649 0.094c1.999 0 3.953 0.086 5.893 0.206l-167.175 0.079z" />
<glyph unicode="&#xe957;" horiz-adv-x="1958" d="M812.767 323.357h-113.51v-312.012h113.51v312.012z" />
<glyph unicode="&#xe958;" horiz-adv-x="1958" d="M982.38 193.335h-452.766v-11.005h452.766v11.005z" />
<glyph unicode="&#xe959;" horiz-adv-x="1958" d="M827.032 329.82c-1.913-0.54-3.89-0.806-5.874-0.784h-42.104l0.578 0.731h-45.139l0.529-0.675h-42.318c-1.733 0-3.466 0.21-5.15 0.626h-39.19c2.423-5.296 5.776-10.105 9.895-14.205 4.452-4.617 9.797-8.271 15.709-10.735 5.911-2.461 12.262-3.68 18.661-3.578h132.088c11.662 0.66 22.652 5.698 30.791 14.111 4.197 4.16 7.607 9.058 10.056 14.449l-38.533 0.060z" />
<glyph unicode="&#xe95a;" horiz-adv-x="1958" d="M722.16 311.515h102.576c12.551 0.915 24.261 6.688 32.663 16.099 8.406 9.415 12.847 21.733 12.393 34.37-0.454 12.633-5.769 24.602-14.824 33.379-9.058 8.781-21.151 13.687-33.736 13.691-6.965 0.315-13.905-1.035-20.247-3.946s-11.905-7.296-16.226-12.791l-27.832-35.938-27.731 36.005c-4.306 5.51-9.854 9.914-16.189 12.843s-13.274 4.299-20.244 3.998c-12.892 0.015-25.259-5.112-34.385-14.261-9.13-9.148-14.265-21.56-14.28-34.512s5.090-25.379 14.193-34.55c9.103-9.167 21.463-14.328 34.351-14.344l29.516-0.045zM806.222 374.426c1.815 2.198 4.107 3.95 6.703 5.116s5.424 1.718 8.267 1.613c5.521 0 10.821-2.206 14.726-6.129s6.099-9.246 6.099-14.794c0-5.551-2.194-10.874-6.099-14.797s-9.205-6.129-14.726-6.129h-42.104l27.134 35.12zM677.941 345.585c-2.933 2.926-4.932 6.662-5.743 10.731-0.81 4.073-0.398 8.297 1.189 12.13s4.276 7.104 7.719 9.4c3.443 2.292 7.491 3.503 11.624 3.477 2.851 0.090 5.683-0.476 8.278-1.662s4.884-2.952 6.692-5.169l27.303-35.127h-42.28c-2.757-0.038-5.491 0.495-8.034 1.564s-4.839 2.648-6.748 4.647v0.008z" />
<glyph unicode="&#xe95b;" horiz-adv-x="1958" d="M1170.871 10.79h-142.205v281.968c0 35.142 38.072 91.14 38.072 91.14h60.967c0 0 43.166-50.574 43.166-91.14v-281.968z" />
<glyph unicode="&#xe95c;" horiz-adv-x="1958" d="M1097.841 269.805c14.22 0 25.75 11.583 25.75 25.87s-11.53 25.87-25.75 25.87c-14.22 0-25.746-11.583-25.746-25.87s11.527-25.87 25.746-25.87z" />
<glyph unicode="&#xe95d;" horiz-adv-x="1958" d="M1127.705 385.067h-60.967l12.914 181.619h33.89l14.163-181.619z" />
<glyph unicode="&#xe95e;" horiz-adv-x="1958" d="M1120.301 599.916h-46.166v-33.229h46.166v33.229z" />
<glyph unicode="&#xe95f;" horiz-adv-x="1958" d="M1168.44 209.896h-137.336v-154.313h137.336v154.313z" />
<glyph unicode="&#xe960;" horiz-adv-x="1958" d="M1170.867 292.738c-1.5 19.827-7.881 38.972-18.571 55.705 0.604-2.738 1.103-5.473 1.538-8.248 11.508-72.411 18.777-143.615-2.423-214.207-6.789-19.021-15.731-37.194-26.65-54.163-12.689-24.036-32.625-43.417-56.954-55.375-3.755-1.857-7.517-3.74-11.279-5.653h114.332l0.008 281.941z" />
<glyph unicode="&#xe961;" horiz-adv-x="1958" d="M1042.717 352.595v111.485h-153.69v-111.492c0 0-0.004-77.651 71.402-81.44v-230.438h0.63c-11.834-14.704-51.691-29.891-51.691-29.891h112.944c0 0-40.555 17.791-50.371 29.891-0.236 0.008-0.473 0.026-0.709 0.060v230.377c71.414 3.755 71.485 81.447 71.485 81.447z" />
<glyph unicode="&#xe962;" horiz-adv-x="1958" d="M970.103 413.274c-17.348-14.97-44.617-14.133-68.856-18.702v-39.617c0 0 0-68.649 64.606-68.649s64.602 68.649 64.602 68.649v77.862c-21.845 1.347-43.398-5.63-60.352-19.542v0z" />
<glyph unicode="&#xe963;" horiz-adv-x="1958" d="M1170.286-48.996c0-8.286-144.423-15.004-322.579-15.004s-322.579 6.717-322.579 15.004c0 8.286 144.423 15.004 322.579 15.004s322.579-6.717 322.579-15.004z" />
<glyph unicode="&#xe964;" horiz-adv-x="1958" d="M345.084 11.018c0-8.286-77.25-15.004-172.542-15.004s-172.542 6.717-172.542 15.004c0 8.286 77.25 15.004 172.542 15.004s172.542-6.717 172.542-15.004z" />
<glyph unicode="&#xe965;" horiz-adv-x="1958" d="M1837.949 71.033c0-8.286-77.25-15.004-172.542-15.004s-172.542 6.717-172.542 15.004c0 8.286 77.25 15.004 172.542 15.004s172.542-6.717 172.542-15.004z" />
<glyph unicode="&#xe966;" horiz-adv-x="1958" d="M1886.711 56.029c0-8.286-77.25-15.004-172.542-15.004s-172.542 6.717-172.542 15.004c0 8.286 77.25 15.004 172.542 15.004s172.542-6.717 172.542-15.004z" />
<glyph unicode="&#xe967;" horiz-adv-x="1958" d="M1957.978 71.033c0-8.286-77.25-15.004-172.542-15.004s-172.542 6.717-172.542 15.004c0 8.286 77.25 15.004 172.542 15.004s172.542-6.717 172.542-15.004z" />
<glyph unicode="&#xe968;" horiz-adv-x="856" d="M442.175 586.047c-6.672 3.259-5.169 4.514-5.169 4.514l-4.801-1.806c0.297-1.63 4.291-6.623 3.62-12.926-0.955-8.857 2.699-11.551 4.793-12.037 3.803-0.913 1.317 5.482 9.717 10.756 5.791 3.637 6.068 4.6-8.159 11.498z" />
<glyph unicode="&#xe969;" horiz-adv-x="856" d="M401.943 735.411c50.354-30.088 68.247-92.928 39.91-140.436s-92.147-61.654-142.463-31.558c-50.316 30.096-68.274 92.931-39.911 140.464s92.072 61.584 142.464 31.53z" />
<glyph unicode="&#xe96a;" horiz-adv-x="856" d="M314.676 746.674c26.686 5.262 54.378 0.391 77.674-13.663 50.374-30.066 68.247-92.928 39.899-140.447-12.435-20.666-32.164-35.915-55.293-42.735 13.365 2.575 26.039 7.931 37.201 15.721s20.563 17.841 27.592 29.5c28.325 47.481 10.429 110.338-39.899 140.451-12.955 7.826-27.4 12.863-42.41 14.787s-30.256 0.693-44.763-3.614v0z" />
<glyph unicode="&#xe96b;" horiz-adv-x="856" d="M409.282 382.622c-7 8.143-8.109 5.56-8.109 5.56l0.745 7.321c2.38 0.183 10.747-3.542 19.256-0.302 11.925 4.541 17.097 0.529 18.419-2.29 2.64-5.021-7.103-3.829-11.361-17.393-2.954-9.414-4.119-10.146-18.949 7.104z" />
<glyph unicode="&#xe96c;" horiz-adv-x="856" d="M187.116 383.76c60.104-58.996 153.86-60.896 209.473-4.274 55.614 56.617 51.89 150.412-8.244 209.442s-153.872 60.915-209.473 4.278c-55.602-56.638-51.867-150.444 8.244-209.445z" />
<glyph unicode="&#xe96d;" horiz-adv-x="856" d="M187.116 383.76c60.104-58.996 153.86-60.896 209.473-4.274 55.614 56.617 51.89 150.412-8.244 209.442s-153.872 60.915-209.473 4.278c-55.602-56.638-51.867-150.444 8.244-209.445z" />
<glyph unicode="&#xe96e;" horiz-adv-x="856" d="M270.439 634.208c39.021-1.661 76.024-17.818 103.779-45.314 60.105-59.029 63.786-152.776 8.229-209.462-24.311-24.63-56.968-39.248-91.53-40.975 19.522-0.945 39.023 2.231 57.238 9.315s34.736 17.922 48.491 31.808c55.55 56.671 51.89 150.42-8.244 209.45-15.433 15.336-33.899 27.277-54.213 35.057s-42.028 11.228-63.75 10.121v0z" />
<glyph unicode="&#xe96f;" horiz-adv-x="856" d="M170.51 464.691c-5.798-0.356-11.349-2.36-11.667-8.321-0.591-10.759 4.869-18.783 16.315-16.889 6.201 1.024 12.966 5.224 13.707 11.863 0.629 5.887-2.034 11.368-8.072 12.575-3.384 0.673-6.837 0.93-10.283 0.772z" />
<glyph unicode="&#xe970;" horiz-adv-x="856" d="M559.549 631.948c-4.472 7.571-2.182 7.884-2.182 7.884l-5.981 1.351c-0.752-1.816-0.035-9.406-4.863-15.242-6.757-8.174-4.843-13.315-3.112-15.11 3.215-3.455 4.892 4.563 16.715 4.313 8.167-0.174 9.038 0.593-0.579 16.804z" />
<glyph unicode="&#xe971;" horiz-adv-x="856" d="M617.571 807.036c30.448-63.018 6.945-137.303-52.308-166.12-59.258-28.816-132.182-0.852-162.618 62.179s-7.017 137.383 52.306 166.123c59.324 28.741 132.107 0.893 162.62-62.183z" />
<glyph unicode="&#xe972;" horiz-adv-x="856" d="M537.981 875.597c30.042-12.279 54.42-35.326 68.375-64.634 30.458-63.022 6.945-137.307-52.308-166.119-25.926-12.438-55.578-14.699-83.093-6.335 15.003-6.22 31.146-9.216 47.377-8.794 16.236 0.423 32.199 4.255 46.852 11.247 59.382 28.696 82.865 103.102 52.318 166.127-7.747 16.334-18.823 30.866-32.521 42.664-13.693 11.798-29.701 20.601-47 25.844v0z" />
<glyph unicode="&#xe973;" horiz-adv-x="856" d="M602.008 525.867c-5.278 7.053-3.013 7.58-3.013 7.58l-6.035 0.696c-0.554-1.894 0.95-9.327-3.121-15.541-5.832-8.825-3.433-13.665-1.494-15.313 3.591-3.025 4.373 5.068 16.023 6.131 8.093 0.56 8.904 1.398-2.36 16.448z" />
<glyph unicode="&#xe974;" horiz-adv-x="856" d="M640.796 705.391c36.81-59.172 21.474-135.243-34.297-169.876-55.776-34.633-130.751-14.858-167.547 44.298s-21.482 135.254 34.298 169.876c55.777 34.623 130.796 14.872 167.546-44.298z" />
<glyph unicode="&#xe975;" horiz-adv-x="856" d="M554.899 764.789c31.027-8.97 57.596-29.186 74.529-56.702 36.795-59.157 21.479-135.258-34.321-169.882-24.339-15.062-53.441-20.447-81.559-15.092 15.508-4.565 31.803-5.817 47.826-3.675 16.028 2.141 31.422 7.63 45.185 16.108 55.692 34.654 71.052 110.765 34.297 169.876-9.404 15.34-21.91 28.545-36.711 38.768s-31.576 17.24-49.246 20.599v0z" />
<glyph unicode="&#xe976;" horiz-adv-x="856" d="M476.451 742.43c-1.409-0.376-2.776-0.828-4.011-1.295-9.898-3.575-17.378-11.632-23.925-19.527-7.259-8.166-12.465-17.947-15.186-28.531-1.642-6.216-2.441-12.625-2.375-19.054 0.204-8.847 4.518-21.667 14.515-23.993 2.86-0.554 5.819-0.274 8.525 0.807s5.043 2.917 6.736 5.289c4.079 5.066 3.726 9.993 3.91 16.142 0.099 3.703-0.027 7.428 0.438 11.088 1.126 8.649 6.413 14.779 12.803 20.324 6.088 5.144 13.293 9.779 16.716 17.285 2.618 5.786 3.291 14.099-1.436 19.035-4.28 4.421-10.975 3.961-16.709 2.43z" />
<glyph unicode="&#xe977;" horiz-adv-x="856" d="M441.481 648.050c-4.738 0.837-9.585 0.308-11.012-4.396-2.589-8.525 0.277-16.041 9.79-16.81 5.194-0.382 11.468 1.68 13.33 6.88 0.988 2.087 1.118 4.478 0.364 6.66s-2.333 3.983-4.398 5.014c-2.574 1.212-5.286 2.105-8.076 2.658l0.001-0.006z" />
<glyph unicode="&#xe978;" horiz-adv-x="856" d="M729.879 139.143l-0.752-0.702c-65.125 76.221-90.79 125.818-100.738 154.105-10.942 30.641-6.327 43.191-6.139 43.715l0.97-0.386c0 0-4.606-12.778 6.223-43.231 9.968-28.088 35.523-77.567 100.436-153.501z" />
<glyph unicode="&#xe979;" horiz-adv-x="856" d="M759.991 122.19l-0.757-0.702c-97.532 120.659-205.73 175.886-206.794 176.43l0.455 0.925c0.999-0.534 109.42-55.81 207.095-176.652z" />
<glyph unicode="&#xe97a;" horiz-adv-x="856" d="M730.706 134.74l-0.955-0.391c-27.613 69.439-198.428 217.41-200.15 218.913l0.752 0.702c1.623-1.395 172.571-149.593 200.353-219.225z" />
<glyph unicode="&#xe97b;" horiz-adv-x="856" d="M749.014 130.634l-0.757-0.702c-1.197 1.286-118.086 132.121-162.504 118.477-44.853-13.846-111.006 12.461-111.602 12.788l0.384 0.975c0.642-0.282 66.473-26.451 110.97-12.708 18.892 5.877 52.229-12.377 98.957-54.178 22.587-20.455 44.131-42.033 64.552-64.655v0.005z" />
<glyph unicode="&#xe97c;" horiz-adv-x="856" d="M739.6 137.164c-52.555 51.136-96.627 110.325-130.548 175.346-24.091 46.965-32.234 78.695-32.348 78.972l0.989 0.247c0.084-0.307 8.241-31.927 32.293-78.759 33.886-64.908 77.898-123.993 130.384-175.030l-0.772-0.777z" />
<glyph unicode="&#xe97d;" horiz-adv-x="856" d="M742.578 133.528l-0.752-0.698c-55.068 73.995-142.054 143.553-205.265 188.921-68.566 49.088-124.807 81.109-125.375 81.435l0.518 0.89c0.575-0.312 56.84-32.348 125.445-81.485 63.166-45.313 150.271-114.945 205.428-189.064z" />
<glyph unicode="&#xe97e;" horiz-adv-x="856" d="M726.521 155.339c-63.315 61.673-114.93 159.511-147.095 230.672-20.856 46.045-39.278 93.155-55.187 141.134l0.999 0.315c15.86-47.954 34.252-95.033 55.098-141.038 32.125-71.111 83.691-168.792 146.843-230.375l-0.658-0.707z" />
<glyph unicode="&#xe97f;" horiz-adv-x="856" d="M694.099 192.143l-3.042-2.835c-1.326-1.237-3.087-1.895-4.897-1.835s-3.522 0.836-4.764 2.157c-0.613 0.658-1.093 1.43-1.405 2.271-0.317 0.846-0.46 1.741-0.425 2.637 0.035 0.9 0.247 1.786 0.623 2.602 0.371 0.816 0.905 1.548 1.568 2.157l3.052 2.844c0.653 0.618 1.42 1.093 2.261 1.41s1.736 0.46 2.632 0.43c0.895-0.035 1.776-0.242 2.592-0.613 0.816-0.376 1.548-0.91 2.157-1.568 1.237-1.326 1.895-3.087 1.83-4.892-0.064-1.811-0.846-3.522-2.167-4.754l-0.015-0.010z" />
<glyph unicode="&#xe980;" horiz-adv-x="856" d="M523.986 413.229c-5.402 4.883-3.646 5.664-3.646 5.664l-5.021-0.391c-0.153-1.613 2.246-7.42-0.139-13.173-3.305-8.083-0.594-11.635 1.237-12.654 3.398-1.909 2.746 4.789 12.135 7.465 6.456 1.85 6.94 2.652-4.566 13.089z" />
<glyph unicode="&#xe981;" horiz-adv-x="856" d="M526.989 565.174c39.288-42.19 38.927-106.404-0.806-143.437-39.728-37.032-103.765-32.842-143.056 9.345-39.291 42.19-38.9 106.346 0.829 143.376s103.756 32.89 143.034-9.284z" />
<glyph unicode="&#xe982;" horiz-adv-x="856" d="M447.761 599.73c26.618-2.345 51.407-14.544 69.513-34.209 39.288-42.189 38.942-106.39-0.787-143.422-17.373-16.097-40.147-25.095-63.83-25.224 13.324-1.247 26.759 0.331 39.433 4.62 12.672 4.294 24.302 11.205 34.132 20.287 39.728 37.027 40.094 101.247 0.801 143.437-10.077 10.964-22.335 19.699-35.984 25.643-13.651 5.943-28.393 8.964-43.279 8.869z" />
<glyph unicode="&#xe983;" horiz-adv-x="856" d="M387.629 569.083c-1.071-0.521-2.124-1.091-3.055-1.666-7.497-4.544-12.239-12.223-16.309-19.66-4.605-7.783-7.278-16.557-7.796-25.587-0.359-5.308 0.005-10.64 1.084-15.85 1.573-7.16 7.093-16.866 15.591-17.18 2.411 0.006 4.77 0.705 6.795 2.015s3.631 3.174 4.626 5.371c2.533 4.806 1.446 8.711 0.62 13.723-0.5 3.026-1.2 6.012-1.41 9.072-0.473 7.187 2.815 13.067 7.231 18.476 4.051 5.096 9.235 10.047 10.837 16.702 1.165 5.046 0.516 12.041-4.2 15.216-4.234 2.977-9.585 1.541-14.013-0.63z" />
<glyph unicode="&#xe984;" horiz-adv-x="856" d="M374.229 486.903c-3.966-0.058-7.746-1.352-8.237-5.33-0.73-7.342 2.778-12.992 10.641-12.056 4.271 0.517 9.040 3.203 9.746 7.707 0.469 1.855 0.195 3.819-0.765 5.474s-2.529 2.868-4.373 3.379c-2.294 0.563-4.65 0.841-7.013 0.826z" />
<glyph unicode="&#xe985;" horiz-adv-x="856" d="M497.54 246.143c-5.302 5.501-6.051 3.631-6.051 3.631l0.262 5.293c1.677 0.213 7.837-2.117 13.803 0.539 8.311 3.671 12.199 1.014 13.327-0.895 2.068-3.532-4.947-3.027-7.534-12.896-1.677-6.901-2.488-7.45-13.807 4.329z" />
<glyph unicode="&#xe986;" horiz-adv-x="856" d="M338.054 238.134c45.473-39.981 112.855-37.616 150.481 5.283 37.628 42.904 31.276 110.018-14.21 149.989-45.484 39.971-112.856 37.586-150.481-5.293-37.625-42.874-31.279-110.048 14.21-149.979z" />
<glyph unicode="&#xe987;" horiz-adv-x="856" d="M387.905 421.173c28.071 0.351 55.268-9.77 76.282-28.4 45.469-39.981 51.88-107.154 14.21-149.984-16.457-18.66-39.316-30.458-64.054-33.060 14.037 0.104 27.895 3.151 40.677 8.954s24.202 14.227 33.52 24.729c37.624 42.874 31.267 109.993-14.212 149.984-11.68 10.393-25.4 18.229-40.282 23.013s-30.597 6.406-46.14 4.764v0z" />
<glyph unicode="&#xe988;" horiz-adv-x="856" d="M328.352 382.884c-1.070-0.678-2.090-1.38-3.019-2.083-7.327-5.451-11.517-14.049-14.976-22.271-3.982-8.612-5.858-18.051-5.472-27.534 0.198-5.59 1.141-11.121 2.804-16.458 2.399-7.297 9.193-16.869 18.112-16.3 2.519 0.262 4.91 1.242 6.89 2.82 1.98 1.583 3.465 3.695 4.279 6.095 2.128 5.273 0.542 9.305-0.804 14.42-0.995 3.092-1.826 6.238-2.49 9.414-1.248 7.465 1.617 14.010 5.539 20.099 3.773 5.832 8.589 11.497 9.548 18.61 0.771 5.466-0.803 12.54-5.967 15.444-4.671 2.483-10.131 0.416-14.444-2.256z" />
<glyph unicode="&#xe989;" horiz-adv-x="856" d="M322.913 295.518c-4.126-0.47-8.027-2.137-8.028-6.421-0.001-7.742 4.239-13.272 12.397-11.482 4.384 0.979 9.093 4.279 9.355 9.073 0.282 1.994-0.22 4.027-1.402 5.659s-2.952 2.746-4.936 3.102c-2.45 0.317-4.93 0.341-7.385 0.069z" />
<glyph unicode="&#xe98a;" horiz-adv-x="856" d="M625.862 295.854c-5.402 7.267-3.082 7.796-3.082 7.796l-6.213 0.727c-0.604-1.934 0.965-9.572-3.305-16.043-5.996-9.082-3.537-14.069-1.514-15.751 3.676-3.097 4.467 5.209 16.547 6.228 8.331 0.722 9.137 1.588-2.434 17.042z" />
<glyph unicode="&#xe98b;" horiz-adv-x="856" d="M665.837 480.572c37.863-60.878 22.083-139.157-35.232-174.853s-134.5-15.276-172.39 45.595c-37.888 60.866-22.086 139.156 35.232 174.854 57.316 35.699 134.497 15.272 172.39-45.596z" />
<glyph unicode="&#xe98c;" horiz-adv-x="856" d="M577.397 541.685c31.932-9.229 59.273-30.044 76.676-58.373 37.888-60.857 22.108-139.136-35.232-174.823-25.041-15.503-54.989-21.044-83.919-15.518 15.949-4.68 32.704-5.961 49.177-3.745 16.473 2.211 32.298 7.861 46.446 16.587 57.265 35.771 73.090 113.986 35.232 174.854-9.676 15.764-22.533 29.333-37.754 39.841-15.217 10.507-32.461 17.72-50.626 21.178v0z" />
<glyph unicode="&#xe98d;" horiz-adv-x="856" d="M496.685 518.678c-1.454-0.387-2.839-0.857-4.132-1.328-10.206-3.646-17.866-11.988-24.646-20.040-7.489-8.379-12.872-18.425-15.701-29.304-1.699-6.397-2.524-12.991-2.453-19.61 0.225-9.077 4.646-22.266 14.933-24.65 2.944-0.569 5.99-0.282 8.775 0.831s5.191 3.003 6.93 5.451c4.24 5.244 3.859 10.285 4.032 16.607 0.104 3.794-0.034 7.623 0.449 11.393 1.134 8.888 6.54 15.28 13.173 20.903 6.258 5.305 13.668 10.073 17.19 17.785 2.701 5.948 3.379 14.504-1.479 19.568-4.299 4.447-11.219 3.919-17.072 2.395z" />
<glyph unicode="&#xe98e;" horiz-adv-x="856" d="M460.709 421.579c-4.884 0.871-9.86 0.341-11.337-4.526-2.648-8.776 0.283-16.518 10.172-17.22 5.331-0.401 11.765 1.726 13.708 7.074 1.022 2.147 1.159 4.61 0.381 6.856-0.777 2.251-2.406 4.101-4.536 5.16-2.674 1.232-5.492 2.127-8.388 2.656z" />
<glyph unicode="&#xe98f;" glyph-name="clouds" horiz-adv-x="2998" d="M0 401.557c-0.002-5.678 1.118-11.301 3.295-16.548s5.369-10.013 9.393-14.028c4.024-4.015 8.802-7.199 14.061-9.371s10.894-3.289 16.586-3.288h966.346c11.487 0 22.511 4.555 30.637 12.663s12.693 19.105 12.693 30.571c0 11.466-4.567 22.463-12.693 30.571s-19.15 12.663-30.637 12.663h-966.346c-5.691 0.002-11.327-1.116-16.586-3.288s-10.036-5.356-14.061-9.371c-4.024-4.015-7.216-8.782-9.393-14.028s-3.297-10.869-3.295-16.547zM1882.228 283.15c0-5.677 1.123-11.3 3.295-16.547 2.18-5.246 5.368-10.013 9.398-14.028 4.022-4.015 8.803-7.199 14.055-9.371 5.26-2.173 10.901-3.289 16.59-3.288h966.342c11.495 0 22.52 4.555 30.646 12.663s12.693 19.104 12.693 30.571c0 11.468-4.567 22.466-12.693 30.576s-19.15 12.666-30.646 12.668h-966.342c-11.495 0-22.52-4.554-30.646-12.662s-12.693-19.105-12.693-30.571v-0.011zM587.609 523.233c-0.004-5.68 1.114-11.304 3.29-16.553s5.368-10.018 9.392-14.035c4.024-4.018 8.802-7.205 14.062-9.38s10.897-3.294 16.59-3.294h966.348c5.69 0 11.33 1.119 16.582 3.292 5.26 2.174 10.042 5.359 14.063 9.375s7.218 8.783 9.389 14.030c2.18 5.246 3.295 10.87 3.295 16.548 0 11.466-4.567 22.463-12.693 30.571s-19.142 12.663-30.637 12.663h-966.348c-11.49 0-22.51-4.553-30.636-12.656s-12.694-19.096-12.698-30.56zM242.042 523.233c-0.002-5.683 1.118-11.312 3.298-16.563s5.375-10.022 9.405-14.040c4.029-4.018 8.813-7.204 14.078-9.376s10.906-3.288 16.604-3.283h117.259c11.494 0.003 22.516 4.561 30.642 12.67s12.692 19.108 12.692 30.575c-0.003 11.465-4.569 22.46-12.696 30.567s-19.146 12.663-30.638 12.666h-117.259c-11.492-0.003-22.512-4.558-30.639-12.666s-12.693-19.102-12.695-30.567l-0.050 0.017zM325.669 38.045c0-5.673 1.121-11.297 3.299-16.541 2.178-5.252 5.369-10.017 9.394-14.030s8.801-7.201 14.059-9.373c5.258-2.172 10.892-3.287 16.584-3.287h117.244c5.691 0 11.328 1.115 16.586 3.287s10.038 5.359 14.063 9.373c4.025 4.013 7.218 8.778 9.396 14.022 2.178 5.252 3.3 10.868 3.3 16.549-0.003 11.47-4.571 22.462-12.699 30.571s-19.152 12.66-30.646 12.66h-117.244c-11.493 0-22.513-4.558-30.639-12.66-8.126-8.109-12.693-19.109-12.696-30.571zM2706.176 167.322c0-5.677-1.115-11.3-3.295-16.547s-5.368-10.013-9.389-14.028c-4.030-4.015-8.803-7.203-14.063-9.375s-10.892-3.287-16.582-3.287h-966.35c-5.69 0-11.322 1.115-16.582 3.287s-10.034 5.359-14.063 9.375c-4.022 4.015-7.209 8.782-9.389 14.028s-3.295 10.869-3.295 16.547c0 5.678 1.115 11.301 3.295 16.548s5.368 10.013 9.389 14.028c4.030 4.014 8.803 7.199 14.063 9.371s10.892 3.289 16.582 3.287h966.35c5.69 0.002 11.33-1.116 16.582-3.288 5.26-2.173 10.034-5.357 14.063-9.372 4.022-4.015 7.218-8.782 9.389-14.027 2.18-5.246 3.295-10.868 3.295-16.547zM2997.677 160.645c0-5.678-1.123-11.302-3.295-16.548-2.18-5.247-5.376-10.010-9.398-14.032-4.030-4.013-8.803-7.201-14.063-9.373s-10.892-3.295-16.59-3.295h-117.248c-5.69 0-11.322 1.123-16.582 3.295s-10.034 5.359-14.063 9.373c-4.022 4.022-7.209 8.786-9.389 14.033s-3.295 10.869-3.295 16.548c0 5.679 1.115 11.303 3.287 16.551 2.18 5.247 5.376 10.015 9.398 14.031s8.803 7.202 14.063 9.375c5.26 2.173 10.892 3.29 16.582 3.288h117.248c11.495 0.003 22.511-4.549 30.646-12.654 8.126-8.104 12.693-19.099 12.701-30.565v-0.026zM430.756 371.919c0.002-14.415-4.281-28.508-12.307-40.494s-19.435-21.33-32.783-26.848c-13.348-5.518-28.038-6.962-42.209-4.151s-27.19 9.752-37.407 19.945c-10.218 10.193-17.176 23.18-19.995 37.317s-1.372 28.793 4.157 42.111c5.529 13.318 14.893 24.702 26.907 32.709s26.138 12.283 40.588 12.282c19.372-0.002 37.949-7.68 51.648-21.345s21.397-32.199 21.401-51.526zM492.429 572.722c0.002-19.388-5.759-38.343-16.554-54.465s-26.141-28.688-44.095-36.109c-17.955-7.421-37.711-9.364-56.772-5.582s-36.569 13.118-50.312 26.827c-13.742 13.709-23.101 31.177-26.892 50.193s-1.847 38.727 5.591 56.64c7.437 17.913 20.032 33.224 36.19 43.995s35.157 16.521 54.591 16.52c26.057-0.002 51.046-10.329 69.471-28.711s28.779-43.311 28.783-69.307zM1971.72 752.818c0-11.464-4.567-22.457-12.693-30.563s-19.15-12.66-30.637-12.663h-117.248c-5.69-0.001-11.322 1.117-16.582 3.291s-10.042 5.359-14.063 9.375c-4.022 4.016-7.218 8.783-9.389 14.030-2.18 5.246-3.295 10.869-3.295 16.548 0 11.466 4.567 22.463 12.693 30.571s19.15 12.663 30.637 12.663h117.248c11.495-0.003 22.52-4.561 30.646-12.672s12.693-19.111 12.684-30.58zM1721.344 802.322c0-19.387 5.764-38.338 16.557-54.458s26.137-28.684 44.090-36.105c17.953-7.421 37.706-9.365 56.766-5.585s36.567 13.111 50.308 26.817c13.741 13.706 23.106 31.169 26.897 50.182 3.799 19.013 1.858 38.722-5.574 56.635s-20.018 33.225-36.17 44.002c-16.153 10.776-35.146 16.532-54.578 16.54-12.907 0.005-25.683-2.527-37.615-7.451-11.925-4.924-22.759-12.144-31.884-21.247-9.133-9.104-16.376-19.912-21.314-31.808s-7.482-24.646-7.482-37.523zM2847.818 312.792c0-14.414-4.278-28.506-12.305-40.492s-19.439-21.326-32.793-26.843c-13.345-5.516-28.036-6.959-42.207-4.147s-27.186 9.754-37.401 19.948c-10.215 10.193-17.177 23.18-19.993 37.317s-1.371 28.793 4.162 42.11c5.525 13.318 14.889 24.7 26.905 32.708s26.137 12.282 40.588 12.281c19.373-0.001 37.954-7.68 51.654-21.348 13.692-13.668 21.388-32.206 21.388-51.534zM2738.407 361.168c0.008-23.951-7.11-47.364-20.447-67.28s-32.289-35.438-54.47-44.604c-22.181-9.167-46.584-11.566-70.127-6.895-23.552 4.672-45.18 16.205-62.15 33.14-16.979 16.936-28.54 38.512-33.222 62.003s-2.279 47.839 6.904 69.967c9.191 22.127 24.749 41.040 44.709 54.346s43.429 20.407 67.435 20.407c32.19-0.002 63.059-12.759 85.818-35.466s35.551-53.504 35.551-85.617zM2355.39 249.786c103.383 1.657 185.839 86.61 184.18 189.749s-86.809 185.407-190.191 183.751c-103.374-1.657-185.839-86.61-184.18-189.749s86.817-185.407 190.191-183.751zM2159.277 288.979c86.776 86.572 86.776 226.932 0 313.503-86.767 86.572-227.46 86.572-314.228 0-86.776-86.571-86.776-226.931 0-313.503 86.767-86.572 227.46-86.572 314.228 0zM2571.421 89.468c0-23.94-7.118-47.352-20.447-67.27-13.337-19.91-32.297-35.427-54.47-44.594s-46.584-11.561-70.119-6.887c-23.544 4.674-45.172 16.202-62.142 33.14-16.979 16.929-28.532 38.507-33.214 61.993s-2.279 47.831 6.904 69.959c9.183 22.125 24.741 41.035 44.701 54.341s43.421 20.406 67.427 20.406c32.19 0 63.059-12.756 85.818-35.464s35.543-53.507 35.543-85.623zM628.065 299.039c0-23.951-7.118-47.363-20.455-67.277s-32.294-35.435-54.473-44.6c-22.179-9.166-46.584-11.563-70.128-6.891s-45.172 16.206-62.147 33.142c-16.974 16.936-28.534 38.513-33.217 62.003s-2.278 47.838 6.909 69.966c9.187 22.127 24.744 41.038 44.705 54.345s43.428 20.407 67.435 20.406c32.19-0.001 63.062-12.76 85.824-35.468s35.548-53.51 35.548-85.625zM1013.603 156.461c9.266 121.76-82.159 227.957-204.205 237.197-122.043 9.241-228.487-81.974-237.75-203.734-9.262-121.763 82.164-227.953 204.209-237.194 122.043-9.241 228.489 81.97 237.746 203.731zM1029.194 670.765c0-33.197-9.868-65.647-28.35-93.249-18.49-27.603-44.759-49.116-75.503-61.819s-64.57-16.028-97.206-9.551c-32.632 6.476-62.609 22.462-86.137 45.935s-39.551 53.38-46.042 85.939c-6.492 32.559-3.16 66.306 9.574 96.976s34.297 56.884 61.963 75.327c27.666 18.443 60.196 28.287 93.468 28.287 44.618 0 87.412-17.684 118.957-49.161 31.554-31.476 49.276-74.169 49.276-118.684zM1360.657 704.854c9.951 121.048-80.334 227.228-201.662 237.159-121.336 9.931-227.766-80.148-237.717-201.197s80.334-227.229 201.67-237.159c121.327-9.931 227.757 80.148 237.708 201.197zM779.812 581.35c0.004-15.514-4.603-30.681-13.239-43.583s-20.914-22.959-35.279-28.899c-14.365-5.94-30.174-7.496-45.426-4.472s-29.263 10.493-40.261 21.462c-10.997 10.968-18.487 24.944-21.522 40.161s-1.48 30.988 4.47 45.322c5.95 14.334 16.026 26.585 28.956 35.205s28.131 13.22 43.681 13.22c20.847 0 40.842-8.261 55.585-22.966s23.029-34.651 23.035-55.45z" />
<glyph unicode="&#xe990;" horiz-adv-x="5436" d="M5420.74 960c-849.461-332.353-1770.821-504.242-2702.853-504.242-932.041 0-1853.402 171.888-2702.863 504.242-5-9.57-10.016-19.189-15.053-28.855 854.189-334.21 1780.678-507.059 2717.906-507.059s1863.718 172.848 2717.907 507.059c-4.976 9.628-9.991 19.246-15.044 28.855z" />
<glyph unicode="&#xe991;" horiz-adv-x="5436" d="M1619.107 3.165c149.475 145.286 289.735 294.323 420.797 447.113-223.701 19.976-446.072 49.839-666.26 89.474 71.938-179.848 153.763-358.71 245.463-536.587z" />
<glyph unicode="&#xe992;" horiz-adv-x="5436" d="M856.114 142.731c167.417 130.222 326.032 265.089 475.842 404.601-221.088 41.090-439.597 91.985-654.664 152.486 49.722-185.769 109.33-371.464 178.822-557.087z" />
<glyph unicode="&#xe993;" horiz-adv-x="5436" d="M2398.505-64c129.962 158.563 250.43 319.959 361.405 484.188-224.313-1.243-448.56 7.414-671.849 25.936 93.729-171.931 197.211-341.972 310.444-510.124z" />
<glyph unicode="&#xe994;" horiz-adv-x="5436" d="M3182.238-57.129c109.31 169.895 208.848 341.716 298.606 515.465-222.868-22.44-446.904-35.029-671.246-37.718 114.669-162.041 238.879-321.29 372.64-477.748z" />
<glyph unicode="&#xe995;" horiz-adv-x="5436" d="M3182.238-57.129c109.31 169.895 208.848 341.716 298.606 515.465-222.868-22.44-446.904-35.029-671.246-37.718 114.669-162.041 238.879-321.29 372.64-477.748z" />
<glyph unicode="&#xe996;" horiz-adv-x="5436" d="M3959.234 23.579c87.662 179.235 165.419 359.504 233.271 540.807-219.394-43.502-441.2-77.266-664.566-101.16 134.546-150.255 278.317-296.805 431.295-439.647z" />
<glyph unicode="&#xe997;" horiz-adv-x="5436" d="M4714.611 175.405c65.526 186.586 121.1 373.303 166.701 560.149-213.939-64.238-431.554-118.894-651.972-163.751 152.93-136.749 314.693-268.881 485.271-396.398z" />
<glyph unicode="&#xe998;" horiz-adv-x="1371" d="M661.518 605.37l709.068 354.63-783.043-302.496 63.312-18.183 10.664-33.951z" />
<glyph unicode="&#xe999;" horiz-adv-x="1371" d="M650.85 639.329l719.732 320.671-709.066-354.63-10.665 33.959z" />
<glyph unicode="&#xe99a;" horiz-adv-x="1371" d="M661.515 605.37l709.060 354.63-639.639-491.036-69.421 136.406z" />
<glyph unicode="&#xe99b;" horiz-adv-x="1371" d="M661.515 605.37l709.060 354.63-603.661-463.421-105.4 108.791z" />
<glyph unicode="&#xe99c;" horiz-adv-x="1371" d="M661.515 605.37l709.060 354.63-470.29-491.949-238.77 137.318z" />
<glyph unicode="&#xe99d;" horiz-adv-x="1371" d="M8.103 29.323c74.957-27.843 145.653-67.628 224.187-86.445 47.496-11.434 91.046-7.6 137.868 4.003 85.97 21.384 190.732 64.945 242.584 140.182 45.272 65.746 9.863 160.88-70.637 179.113-62.963 14.238-103.218-52.243-105.748-105.538-5.196-110.624 129.333-129.322 211.095-104.906 130.892 39.161 137.408 217.244 121.087 325.873-2.826 18.809-32.809 17.153-29.923-1.604 15.281-101.132 13.841-262.070-107.194-298.258-73.977-22.126-184.92 4.973-161.455 100.807 5.767 24.239 24.105 50.771 50.63 54.768 38.458 5.717 72.657-35.901 82.682-67.976 12.973-41.507-22.547-80.499-51.898-104.62-39.438-32.412-87.128-54.943-134.812-72.603-43.044-15.952-91.736-30.904-138.387-26.871-91.106 7.828-172.059 59.227-256.040 90.329-17.93 6.623-31.771-19.779-13.722-26.49l-0.319 0.235z" />
</font>
</defs>
</svg>
