<svg width="16" height="18" viewBox="0 0 16 18" fill="none" xmlns="http://www.w3.org/2000/svg">
<path fill-rule="evenodd" clip-rule="evenodd" d="M6.33333 14.0001C6.79358 14.0001 7.16667 13.627 7.16667 13.1667V8.16675C7.16667 7.7065 6.79358 7.33341 6.33333 7.33341C5.8731 7.33341 5.5 7.7065 5.5 8.16675V13.1667C5.5 13.627 5.8731 14.0001 6.33333 14.0001ZM14.6667 4.00008H11.3333V3.16675C11.3333 1.78604 10.2141 0.666748 8.83333 0.666748H7.16667C5.78596 0.666748 4.66667 1.78604 4.66667 3.16675V4.00008H1.33333C0.8731 4.00008 0.5 4.37318 0.5 4.83341C0.5 5.29365 0.8731 5.66675 1.33333 5.66675H2.16667V14.8334C2.16667 16.2142 3.28596 17.3334 4.66667 17.3334H11.3333C12.7141 17.3334 13.8333 16.2142 13.8333 14.8334V5.66675H14.6667C15.1269 5.66675 15.5 5.29365 15.5 4.83341C15.5 4.37318 15.1269 4.00008 14.6667 4.00008ZM6.33333 3.16675C6.33333 2.70651 6.70642 2.33341 7.16667 2.33341H8.83333C9.29358 2.33341 9.66667 2.70651 9.66667 3.16675V4.00008H6.33333V3.16675ZM12.1667 14.8334C12.1667 15.2937 11.7936 15.6667 11.3333 15.6667H4.66667C4.20643 15.6667 3.83333 15.2937 3.83333 14.8334V5.66675H12.1667V14.8334ZM9.66667 14.0001C10.1269 14.0001 10.5 13.627 10.5 13.1667V8.16675C10.5 7.7065 10.1269 7.33341 9.66667 7.33341C9.20642 7.33341 8.83333 7.7065 8.83333 8.16675V13.1667C8.83333 13.627 9.20642 14.0001 9.66667 14.0001Z" fill="#FCFCFD"/>
</svg>
