<svg width="18" height="18" viewBox="0 0 18 18" fill="none" xmlns="http://www.w3.org/2000/svg">
<path fill-rule="evenodd" clip-rule="evenodd" d="M9.00008 0.666748C4.39771 0.666748 0.666748 4.39771 0.666748 9.00008C0.666748 13.6024 4.39771 17.3334 9.00008 17.3334C13.6024 17.3334 17.3334 13.6024 17.3334 9.00008C17.3334 6.78995 16.4554 4.67033 14.8927 3.10752C13.3298 1.54472 11.2102 0.666748 9.00008 0.666748ZM9.00008 15.6667C5.31818 15.6667 2.33341 12.682 2.33341 9.00008C2.33341 5.31818 5.31818 2.33341 9.00008 2.33341C12.682 2.33341 15.6667 5.31818 15.6667 9.00008C15.6667 10.7682 14.9643 12.4639 13.7142 13.7142C12.4639 14.9643 10.7682 15.6667 9.00008 15.6667ZM12.3334 8.16675H9.83341V5.66675C9.83341 5.20651 9.46033 4.83341 9.00008 4.83341C8.53983 4.83341 8.16675 5.20651 8.16675 5.66675V8.16675H5.66675C5.20651 8.16675 4.83341 8.53983 4.83341 9.00008C4.83341 9.46033 5.20651 9.83341 5.66675 9.83341H8.16675V12.3334C8.16675 12.7937 8.53983 13.1667 9.00008 13.1667C9.46033 13.1667 9.83341 12.7937 9.83341 12.3334V9.83341H12.3334C12.7937 9.83341 13.1667 9.46033 13.1667 9.00008C13.1667 8.53983 12.7937 8.16675 12.3334 8.16675Z" fill="white"/>
</svg>
