<svg width="36" height="36" viewBox="0 0 36 36" fill="none" xmlns="http://www.w3.org/2000/svg">
<path fill-rule="evenodd" clip-rule="evenodd" d="M11.5075 16.7575C11.3482 16.9239 11.2233 17.1201 11.14 17.335C10.965 17.7611 10.965 18.2389 11.14 18.665C11.2233 18.8799 11.3482 19.0761 11.5075 19.2425L16.7575 24.4925C17.4437 25.1787 18.5563 25.1787 19.2425 24.4925C19.9287 23.8063 19.9287 22.6937 19.2425 22.0075L16.9675 19.75H23.25C24.2165 19.75 25 18.9665 25 18C25 17.0335 24.2165 16.25 23.25 16.25H16.9675L19.2425 13.9925C19.5738 13.6639 19.7601 13.2166 19.7601 12.75C19.7601 12.2834 19.5738 11.8361 19.2425 11.5075C18.9138 11.1762 18.4665 10.9899 18 10.9899C17.5334 10.9899 17.0861 11.1762 16.7575 11.5075L11.5075 16.7575ZM0.5 18C0.5 27.6649 8.33501 35.5 18 35.5C27.6649 35.5 35.5 27.6649 35.5 18C35.5 8.33501 27.6649 0.5 18 0.5C8.33501 0.5 0.5 8.33501 0.5 18ZM32 18C32 25.732 25.732 32 18 32C10.268 32 4 25.732 4 18C4 10.268 10.268 4 18 4C21.713 4 25.2741 5.47499 27.8996 8.10051C30.5249 10.726 32 14.287 32 18Z" fill="#0A1F44"/>
</svg>
